ISO-10303-21;
HEADER;
FILE_DESCRIPTION(('Open CASCADE Model'),'2;1');
FILE_NAME('Open CASCADE Shape Model','2026-07-24T20:47:52',('Author'),(
    'Open CASCADE'),'Open CASCADE STEP processor 7.9','Open CASCADE 7.9'
  ,'Unknown');
FILE_SCHEMA(('AUTOMOTIVE_DESIGN { 1 0 10303 214 1 1 1 1 }'));
ENDSEC;
DATA;
#1 = APPLICATION_PROTOCOL_DEFINITION('international standard',
  'automotive_design',2000,#2);
#2 = APPLICATION_CONTEXT(
  'core data for automotive mechanical design processes');
#3 = SHAPE_DEFINITION_REPRESENTATION(#4,#10);
#4 = PRODUCT_DEFINITION_SHAPE('','',#5);
#5 = PRODUCT_DEFINITION('design','',#6,#9);
#6 = PRODUCT_DEFINITION_FORMATION('','',#7);
#7 = PRODUCT('Open CASCADE STEP translator 7.9 1',
  'Open CASCADE STEP translator 7.9 1','',(#8));
#8 = PRODUCT_CONTEXT('',#2,'mechanical');
#9 = PRODUCT_DEFINITION_CONTEXT('part definition',#2,'design');
#10 = ADVANCED_BREP_SHAPE_REPRESENTATION('',(#11,#15),#1120);
#11 = AXIS2_PLACEMENT_3D('',#12,#13,#14);
#12 = CARTESIAN_POINT('',(0.,0.,0.));
#13 = DIRECTION('',(0.,0.,1.));
#14 = DIRECTION('',(1.,0.,-0.));
#15 = MANIFOLD_SOLID_BREP('',#16);
#16 = CLOSED_SHELL('',(#17,#184,#238,#340,#395,#538,#592,#673,#712,#767,
    #821,#875,#930,#969,#1008,#1063,#1113));
#17 = ADVANCED_FACE('',(#18,#54),#31,.F.);
#18 = FACE_BOUND('',#19,.F.);
#19 = EDGE_LOOP('',(#20));
#20 = ORIENTED_EDGE('',*,*,#21,.T.);
#21 = EDGE_CURVE('',#22,#22,#24,.T.);
#22 = VERTEX_POINT('',#23);
#23 = CARTESIAN_POINT('',(24.2,0.,0.));
#24 = SURFACE_CURVE('',#25,(#30,#42),.PCURVE_S1.);
#25 = CIRCLE('',#26,24.2);
#26 = AXIS2_PLACEMENT_3D('',#27,#28,#29);
#27 = CARTESIAN_POINT('',(0.,0.,0.));
#28 = DIRECTION('',(0.,0.,1.));
#29 = DIRECTION('',(1.,0.,-0.));
#30 = PCURVE('',#31,#36);
#31 = PLANE('',#32);
#32 = AXIS2_PLACEMENT_3D('',#33,#34,#35);
#33 = CARTESIAN_POINT('',(-5.469760530158E-16,6.857365063158E-16,0.));
#34 = DIRECTION('',(0.,0.,1.));
#35 = DIRECTION('',(1.,0.,-0.));
#36 = DEFINITIONAL_REPRESENTATION('',(#37),#41);
#37 = CIRCLE('',#38,24.2);
#38 = AXIS2_PLACEMENT_2D('',#39,#40);
#39 = CARTESIAN_POINT('',(5.469760530158E-16,-6.857365063158E-16));
#40 = DIRECTION('',(1.,0.));
#41 = ( GEOMETRIC_REPRESENTATION_CONTEXT(2) 
PARAMETRIC_REPRESENTATION_CONTEXT() REPRESENTATION_CONTEXT('2D SPACE',''
  ) );
#42 = PCURVE('',#43,#48);
#43 = TOROIDAL_SURFACE('',#44,24.2,0.8);
#44 = AXIS2_PLACEMENT_3D('',#45,#46,#47);
#45 = CARTESIAN_POINT('',(0.,0.,0.8));
#46 = DIRECTION('',(0.,0.,1.));
#47 = DIRECTION('',(1.,0.,-0.));
#48 = DEFINITIONAL_REPRESENTATION('',(#49),#53);
#49 = LINE('',#50,#51);
#50 = CARTESIAN_POINT('',(0.,4.712388980385));
#51 = VECTOR('',#52,1.);
#52 = DIRECTION('',(1.,0.));
#53 = ( GEOMETRIC_REPRESENTATION_CONTEXT(2) 
PARAMETRIC_REPRESENTATION_CONTEXT() REPRESENTATION_CONTEXT('2D SPACE',''
  ) );
#54 = FACE_BOUND('',#55,.F.);
#55 = EDGE_LOOP('',(#56));
#56 = ORIENTED_EDGE('',*,*,#57,.F.);
#57 = EDGE_CURVE('',#58,#58,#60,.T.);
#58 = VERTEX_POINT('',#59);
#59 = CARTESIAN_POINT('',(23.138712150852,0.,0.));
#60 = SURFACE_CURVE('',#61,(#84,#110),.PCURVE_S1.);
#61 = ( BOUNDED_CURVE() B_SPLINE_CURVE(11,(#62,#63,#64,#65,#66,#67,#68,
    #69,#70,#71,#72,#73,#74,#75,#76,#77,#78,#79,#80,#81,#82,#83),
.UNSPECIFIED.,.T.,.F.) B_SPLINE_CURVE_WITH_KNOTS((12,10,12),(
    3.683225919281E-15,72.256631032565,144.51326206513),.UNSPECIFIED.) 
CURVE() GEOMETRIC_REPRESENTATION_ITEM() RATIONAL_B_SPLINE_CURVE((1.,1.,
    1.,1.000000000001,0.999999999999,1.000000000001,0.999999999999,
    1.000000000001,1.,1.,1.,1.,1.,1.,1.,1.,1.,1.,1.,1.,1.,1.)) 
REPRESENTATION_ITEM('') );
#62 = CARTESIAN_POINT('',(23.138712150852,0.,0.));
#63 = CARTESIAN_POINT('',(23.138712150851,6.512805570965,
    1.249000902703E-16));
#64 = CARTESIAN_POINT('',(21.122207216292,13.114628563539,
    -6.314393452556E-16));
#65 = CARTESIAN_POINT('',(16.997800831263,19.062298331082,
    1.734723475977E-15));
#66 = CARTESIAN_POINT('',(11.01440385214,23.557379108292,
    -3.105155021998E-15));
#67 = CARTESIAN_POINT('',(3.799720416233,25.93384135776,
    3.753941602014E-15));
#68 = CARTESIAN_POINT('',(-3.797435726456,25.923392433587,
    -3.101685575047E-15));
#69 = CARTESIAN_POINT('',(-10.96811211115,23.535460169261,
    1.693090112553E-15));
#70 = CARTESIAN_POINT('',(-16.91005876111,19.100300224433,
    -4.718447854657E-16));
#71 = CARTESIAN_POINT('',(-21.06267846694,13.216835973524,
    -6.591949208712E-17));
#72 = CARTESIAN_POINT('',(-23.13871215085,6.608400736968,
    9.367506770275E-17));
#73 = CARTESIAN_POINT('',(-23.13871215085,-6.608400736968,
    -1.52655665886E-16));
#74 = CARTESIAN_POINT('',(-21.06267846695,-13.21683597352,
    6.800116025829E-16));
#75 = CARTESIAN_POINT('',(-16.9100587611,-19.10030022443,
    -1.373900992974E-15));
#76 = CARTESIAN_POINT('',(-10.96811211118,-23.53546016926,
    1.439820485061E-15));
#77 = CARTESIAN_POINT('',(-3.797435726429,-25.92339243357,
    -2.602085213965E-16));
#78 = CARTESIAN_POINT('',(3.799720416214,-25.93384135777,
    -1.533495552763E-15));
#79 = CARTESIAN_POINT('',(11.014403852146,-23.55737910828,
    2.567390744446E-15));
#80 = CARTESIAN_POINT('',(16.997800831264,-19.06229833108,
    -2.189221026683E-15));
#81 = CARTESIAN_POINT('',(21.122207216289,-13.11462856354,
    1.096345236817E-15));
#82 = CARTESIAN_POINT('',(23.138712150852,-6.512805570965,
    -2.98372437868E-16));
#83 = CARTESIAN_POINT('',(23.138712150852,0.,0.));
#84 = PCURVE('',#31,#85);
#85 = DEFINITIONAL_REPRESENTATION('',(#86),#109);
#86 = B_SPLINE_CURVE_WITH_KNOTS('',11,(#87,#88,#89,#90,#91,#92,#93,#94,
    #95,#96,#97,#98,#99,#100,#101,#102,#103,#104,#105,#106,#107,#108),
  .UNSPECIFIED.,.F.,.F.,(12,10,12),(3.683225919281E-15,72.256631032565,
    144.51326206513),.UNSPECIFIED.);
#87 = CARTESIAN_POINT('',(23.138712150852,0.));
#88 = CARTESIAN_POINT('',(23.138712150853,6.512805570967));
#89 = CARTESIAN_POINT('',(21.122207216285,13.114628563533));
#90 = CARTESIAN_POINT('',(16.997800831275,19.062298331102));
#91 = CARTESIAN_POINT('',(11.014403852127,23.557379108253));
#92 = CARTESIAN_POINT('',(3.799720416239,25.933841357811));
#93 = CARTESIAN_POINT('',(-3.797435726452,25.923392433539));
#94 = CARTESIAN_POINT('',(-10.96811211116,23.535460169293));
#95 = CARTESIAN_POINT('',(-16.91005876111,19.100300224418));
#96 = CARTESIAN_POINT('',(-21.06267846695,13.216835973529));
#97 = CARTESIAN_POINT('',(-23.13871215085,6.608400736968));
#98 = CARTESIAN_POINT('',(-23.13871215085,-6.608400736968));
#99 = CARTESIAN_POINT('',(-21.06267846695,-13.21683597352));
#100 = CARTESIAN_POINT('',(-16.9100587611,-19.10030022443));
#101 = CARTESIAN_POINT('',(-10.96811211118,-23.53546016927));
#102 = CARTESIAN_POINT('',(-3.797435726432,-25.92339243357));
#103 = CARTESIAN_POINT('',(3.799720416218,-25.93384135777));
#104 = CARTESIAN_POINT('',(11.014403852143,-23.55737910827));
#105 = CARTESIAN_POINT('',(16.997800831266,-19.06229833108));
#106 = CARTESIAN_POINT('',(21.122207216288,-13.11462856353));
#107 = CARTESIAN_POINT('',(23.138712150853,-6.512805570965));
#108 = CARTESIAN_POINT('',(23.138712150852,1.06581410364E-14));
#109 = ( GEOMETRIC_REPRESENTATION_CONTEXT(2) 
PARAMETRIC_REPRESENTATION_CONTEXT() REPRESENTATION_CONTEXT('2D SPACE',''
  ) );
#110 = PCURVE('',#111,#178);
#111 = ( BOUNDED_SURFACE() B_SPLINE_SURFACE(2,11,(
    (#112,#113,#114,#115,#116,#117,#118,#119,#120,#121,#122,#123,#124
      ,#125,#126,#127,#128,#129,#130,#131,#132,#133)
    ,(#134,#135,#136,#137,#138,#139,#140,#141,#142,#143,#144,#145,#146
      ,#147,#148,#149,#150,#151,#152,#153,#154,#155)
    ,(#156,#157,#158,#159,#160,#161,#162,#163,#164,#165,#166,#167,#168
      ,#169,#170,#171,#172,#173,#174,#175,#176,#177
)),.UNSPECIFIED.,.F.,.T.,.F.) B_SPLINE_SURFACE_WITH_KNOTS((3,3),(12,10,
    12),(0.,144.51326206513),(3.683225919281E-15,72.256631032565,
144.51326206513),.UNSPECIFIED.) GEOMETRIC_REPRESENTATION_ITEM() 
RATIONAL_B_SPLINE_SURFACE((
    (1.,1.,1.,1.000000000001,0.999999999999,1.000000000001
      ,0.999999999999,1.000000000001,1.,1.,1.,1.,1.,1.,1.,1.,1.,1.,1.,1.
      ,1.,1.)
    ,(0.985384672341,0.985384672341,0.985384672341,0.985384672342
      ,0.98538467234,0.985384672342,0.98538467234,0.985384672341
      ,0.985384672341,0.985384672341,0.985384672341,0.985384672341
      ,0.985384672341,0.985384672341,0.985384672341,0.985384672341
      ,0.985384672341,0.985384672341,0.985384672341,0.985384672341
      ,0.985384672341,0.985384672341)
    ,(1.,1.,1.,1.000000000001,0.999999999999,1.000000000001
      ,0.999999999999,1.000000000001,1.,1.,1.,1.,1.,1.,1.,1.,1.,1.,1.,1.
,1.,1.))) REPRESENTATION_ITEM('') SURFACE() );
#112 = CARTESIAN_POINT('',(23.138712150852,0.,0.));
#113 = CARTESIAN_POINT('',(23.138712150851,6.512805570965,
    1.249000902703E-16));
#114 = CARTESIAN_POINT('',(21.122207216292,13.114628563539,
    -6.314393452556E-16));
#115 = CARTESIAN_POINT('',(16.997800831263,19.062298331082,
    1.734723475977E-15));
#116 = CARTESIAN_POINT('',(11.01440385214,23.557379108292,
    -3.105155021998E-15));
#117 = CARTESIAN_POINT('',(3.799720416233,25.93384135776,
    3.753941602014E-15));
#118 = CARTESIAN_POINT('',(-3.797435726456,25.923392433587,
    -3.101685575047E-15));
#119 = CARTESIAN_POINT('',(-10.96811211115,23.535460169261,
    1.693090112553E-15));
#120 = CARTESIAN_POINT('',(-16.91005876111,19.100300224433,
    -4.718447854657E-16));
#121 = CARTESIAN_POINT('',(-21.06267846694,13.216835973524,
    -6.591949208712E-17));
#122 = CARTESIAN_POINT('',(-23.13871215085,6.608400736968,
    9.367506770275E-17));
#123 = CARTESIAN_POINT('',(-23.13871215085,-6.608400736968,
    -1.52655665886E-16));
#124 = CARTESIAN_POINT('',(-21.06267846695,-13.21683597352,
    6.800116025829E-16));
#125 = CARTESIAN_POINT('',(-16.9100587611,-19.10030022443,
    -1.373900992974E-15));
#126 = CARTESIAN_POINT('',(-10.96811211118,-23.53546016926,
    1.439820485061E-15));
#127 = CARTESIAN_POINT('',(-3.797435726429,-25.92339243357,
    -2.602085213965E-16));
#128 = CARTESIAN_POINT('',(3.799720416214,-25.93384135777,
    -1.533495552763E-15));
#129 = CARTESIAN_POINT('',(11.014403852146,-23.55737910828,
    2.567390744446E-15));
#130 = CARTESIAN_POINT('',(16.997800831264,-19.06229833108,
    -2.189221026683E-15));
#131 = CARTESIAN_POINT('',(21.122207216289,-13.11462856354,
    1.096345236817E-15));
#132 = CARTESIAN_POINT('',(23.138712150852,-6.512805570965,
    -2.98372437868E-16));
#133 = CARTESIAN_POINT('',(23.138712150852,0.,0.));
#134 = CARTESIAN_POINT('',(23.000415776398,3.819861094101E-15,
    4.215378046624E-15));
#135 = CARTESIAN_POINT('',(23.000415776398,6.473879575772,
    3.930883396563E-15));
#136 = CARTESIAN_POINT('',(20.995963168677,13.036244530283,
    -1.867603294237E-14));
#137 = CARTESIAN_POINT('',(16.896207699663,18.948366028779,
    3.14401282786E-14));
#138 = CARTESIAN_POINT('',(10.948572525415,23.416580428505,
    1.013390760196E-13));
#139 = CARTESIAN_POINT('',(3.777010096228,25.778838943996,
    -3.313252450177E-13));
#140 = CARTESIAN_POINT('',(-3.774739061672,25.76845247131,
    3.710851070871E-13));
#141 = CARTESIAN_POINT('',(-10.90255746275,23.394792495503,
    -2.099084794871E-13));
#142 = CARTESIAN_POINT('',(-16.8089900498,18.986140790881,
    6.67660371434E-14));
#143 = CARTESIAN_POINT('',(-20.93679021313,13.137841062965,
    -3.573530360512E-16));
#144 = CARTESIAN_POINT('',(-23.00041577639,6.568903384786,
    -2.831068712794E-15));
#145 = CARTESIAN_POINT('',(-23.00041577639,-6.568903384786,
    -3.309852392164E-15));
#146 = CARTESIAN_POINT('',(-20.93679021313,-13.13784106296,
    -1.805153249101E-14));
#147 = CARTESIAN_POINT('',(-16.80899004979,-18.98614079089,
    1.533356774885E-13));
#148 = CARTESIAN_POINT('',(-10.90255746277,-23.39479249548,
    -3.740688314657E-13));
#149 = CARTESIAN_POINT('',(-3.77473906165,-25.76845247133,
    4.971578704271E-13));
#150 = CARTESIAN_POINT('',(3.77701009621,-25.77883894397,
    -3.805115944555E-13));
#151 = CARTESIAN_POINT('',(10.948572525422,-23.41658042851,
    1.536791527368E-13));
#152 = CARTESIAN_POINT('',(16.896207699662,-18.94836602876,
    5.495603971895E-15));
#153 = CARTESIAN_POINT('',(20.995963168676,-13.03624453028,
    -1.858929676857E-14));
#154 = CARTESIAN_POINT('',(23.000415776398,-6.47387957577,
    3.795574965437E-15));
#155 = CARTESIAN_POINT('',(23.000415776398,7.421147030229E-15,
    4.211908599672E-15));
#156 = CARTESIAN_POINT('',(22.870145306882,0.,4.642727602467E-02));
#157 = CARTESIAN_POINT('',(22.870145306881,6.437212615481,
    4.642727602467E-02));
#158 = CARTESIAN_POINT('',(20.877045580122,12.962409443469,
    4.642727602462E-02));
#159 = CARTESIAN_POINT('',(16.800510433511,18.841045684513,
    4.642727602476E-02));
#160 = CARTESIAN_POINT('',(10.886561660168,23.28395287272,
    4.642727602479E-02));
#161 = CARTESIAN_POINT('',(3.755617749087,25.632831954988,
    4.642727602413E-02));
#162 = CARTESIAN_POINT('',(-3.753359577291,25.622504309581,
    4.642727602527E-02));
#163 = CARTESIAN_POINT('',(-10.84080721904,23.262288342852,
    4.642727602433E-02));
#164 = CARTESIAN_POINT('',(-16.71378676969,18.878606496763,
    4.642727602477E-02));
#165 = CARTESIAN_POINT('',(-20.81820777019,13.063430550546,
    4.642727602467E-02));
#166 = CARTESIAN_POINT('',(-22.87014530688,6.531698225694,
    4.642727602466E-02));
#167 = CARTESIAN_POINT('',(-22.87014530688,-6.531698225694,
    4.642727602466E-02));
#168 = CARTESIAN_POINT('',(-20.8182077702,-13.06343055054,
    4.642727602463E-02));
#169 = CARTESIAN_POINT('',(-16.71378676968,-18.87860649675,
    4.642727602495E-02));
#170 = CARTESIAN_POINT('',(-10.84080721906,-23.26228834286,
    4.642727602399E-02));
#171 = CARTESIAN_POINT('',(-3.753359577269,-25.62250430955,
    4.642727602555E-02));
#172 = CARTESIAN_POINT('',(3.755617749075,-25.63283195501,
    4.642727602401E-02));
#173 = CARTESIAN_POINT('',(10.886561660168,-23.28395287269,
    4.642727602491E-02));
#174 = CARTESIAN_POINT('',(16.800510433516,-18.84104568452,
    4.64272760247E-02));
#175 = CARTESIAN_POINT('',(20.877045580117,-12.96240944346,
    4.642727602462E-02));
#176 = CARTESIAN_POINT('',(22.870145306882,-6.437212615481,
    4.642727602467E-02));
#177 = CARTESIAN_POINT('',(22.870145306882,-5.601570049221E-15,
    4.642727602467E-02));
#178 = DEFINITIONAL_REPRESENTATION('',(#179),#183);
#179 = LINE('',#180,#181);
#180 = CARTESIAN_POINT('',(0.,0.));
#181 = VECTOR('',#182,1.);
#182 = DIRECTION('',(0.,1.));
#183 = ( GEOMETRIC_REPRESENTATION_CONTEXT(2) 
PARAMETRIC_REPRESENTATION_CONTEXT() REPRESENTATION_CONTEXT('2D SPACE',''
  ) );
#184 = ADVANCED_FACE('',(#185),#43,.T.);
#185 = FACE_BOUND('',#186,.T.);
#186 = EDGE_LOOP('',(#187,#209,#210,#211));
#187 = ORIENTED_EDGE('',*,*,#188,.F.);
#188 = EDGE_CURVE('',#22,#189,#191,.T.);
#189 = VERTEX_POINT('',#190);
#190 = CARTESIAN_POINT('',(25.,0.,0.8));
#191 = SEAM_CURVE('',#192,(#197,#203),.PCURVE_S1.);
#192 = CIRCLE('',#193,0.8);
#193 = AXIS2_PLACEMENT_3D('',#194,#195,#196);
#194 = CARTESIAN_POINT('',(24.2,0.,0.8));
#195 = DIRECTION('',(0.,-1.,0.));
#196 = DIRECTION('',(1.,0.,0.));
#197 = PCURVE('',#43,#198);
#198 = DEFINITIONAL_REPRESENTATION('',(#199),#202);
#199 = B_SPLINE_CURVE_WITH_KNOTS('',1,(#200,#201),.UNSPECIFIED.,.F.,.F.,
  (2,2),(4.712388980385,6.28318530718),.PIECEWISE_BEZIER_KNOTS.);
#200 = CARTESIAN_POINT('',(0.,4.712388980385));
#201 = CARTESIAN_POINT('',(0.,6.28318530718));
#202 = ( GEOMETRIC_REPRESENTATION_CONTEXT(2) 
PARAMETRIC_REPRESENTATION_CONTEXT() REPRESENTATION_CONTEXT('2D SPACE',''
  ) );
#203 = PCURVE('',#43,#204);
#204 = DEFINITIONAL_REPRESENTATION('',(#205),#208);
#205 = B_SPLINE_CURVE_WITH_KNOTS('',1,(#206,#207),.UNSPECIFIED.,.F.,.F.,
  (2,2),(4.712388980385,6.28318530718),.PIECEWISE_BEZIER_KNOTS.);
#206 = CARTESIAN_POINT('',(6.28318530718,4.712388980385));
#207 = CARTESIAN_POINT('',(6.28318530718,6.28318530718));
#208 = ( GEOMETRIC_REPRESENTATION_CONTEXT(2) 
PARAMETRIC_REPRESENTATION_CONTEXT() REPRESENTATION_CONTEXT('2D SPACE',''
  ) );
#209 = ORIENTED_EDGE('',*,*,#21,.T.);
#210 = ORIENTED_EDGE('',*,*,#188,.T.);
#211 = ORIENTED_EDGE('',*,*,#212,.F.);
#212 = EDGE_CURVE('',#189,#189,#213,.T.);
#213 = SURFACE_CURVE('',#214,(#219,#226),.PCURVE_S1.);
#214 = CIRCLE('',#215,25.);
#215 = AXIS2_PLACEMENT_3D('',#216,#217,#218);
#216 = CARTESIAN_POINT('',(0.,0.,0.8));
#217 = DIRECTION('',(0.,0.,1.));
#218 = DIRECTION('',(1.,0.,-0.));
#219 = PCURVE('',#43,#220);
#220 = DEFINITIONAL_REPRESENTATION('',(#221),#225);
#221 = LINE('',#222,#223);
#222 = CARTESIAN_POINT('',(0.,6.28318530718));
#223 = VECTOR('',#224,1.);
#224 = DIRECTION('',(1.,0.));
#225 = ( GEOMETRIC_REPRESENTATION_CONTEXT(2) 
PARAMETRIC_REPRESENTATION_CONTEXT() REPRESENTATION_CONTEXT('2D SPACE',''
  ) );
#226 = PCURVE('',#227,#232);
#227 = CYLINDRICAL_SURFACE('',#228,25.);
#228 = AXIS2_PLACEMENT_3D('',#229,#230,#231);
#229 = CARTESIAN_POINT('',(0.,0.,0.));
#230 = DIRECTION('',(-0.,-0.,-1.));
#231 = DIRECTION('',(1.,0.,0.));
#232 = DEFINITIONAL_REPRESENTATION('',(#233),#237);
#233 = LINE('',#234,#235);
#234 = CARTESIAN_POINT('',(-0.,-0.8));
#235 = VECTOR('',#236,1.);
#236 = DIRECTION('',(-1.,0.));
#237 = ( GEOMETRIC_REPRESENTATION_CONTEXT(2) 
PARAMETRIC_REPRESENTATION_CONTEXT() REPRESENTATION_CONTEXT('2D SPACE',''
  ) );
#238 = ADVANCED_FACE('',(#239),#111,.T.);
#239 = FACE_BOUND('',#240,.T.);
#240 = EDGE_LOOP('',(#241,#262,#338,#339));
#241 = ORIENTED_EDGE('',*,*,#242,.T.);
#242 = EDGE_CURVE('',#58,#243,#245,.T.);
#243 = VERTEX_POINT('',#244);
#244 = CARTESIAN_POINT('',(22.870145306882,0.,4.642727602467E-02));
#245 = SEAM_CURVE('',#246,(#250,#256),.PCURVE_S1.);
#246 = ( BOUNDED_CURVE() B_SPLINE_CURVE(2,(#247,#248,#249),
.UNSPECIFIED.,.F.,.F.) B_SPLINE_CURVE_WITH_KNOTS((3,3),(0.,
144.51326206513),.PIECEWISE_BEZIER_KNOTS.) CURVE() 
GEOMETRIC_REPRESENTATION_ITEM() RATIONAL_B_SPLINE_CURVE((1.,
0.985384672341,1.)) REPRESENTATION_ITEM('') );
#247 = CARTESIAN_POINT('',(23.138712150852,0.,0.));
#248 = CARTESIAN_POINT('',(23.000415776398,3.819861094101E-15,
    4.215378046624E-15));
#249 = CARTESIAN_POINT('',(22.870145306882,0.,4.642727602467E-02));
#250 = PCURVE('',#111,#251);
#251 = DEFINITIONAL_REPRESENTATION('',(#252),#255);
#252 = B_SPLINE_CURVE_WITH_KNOTS('',1,(#253,#254),.UNSPECIFIED.,.F.,.F.,
  (2,2),(0.,144.51326206513),.PIECEWISE_BEZIER_KNOTS.);
#253 = CARTESIAN_POINT('',(0.,3.683225919281E-15));
#254 = CARTESIAN_POINT('',(144.51326206513,3.683225919281E-15));
#255 = ( GEOMETRIC_REPRESENTATION_CONTEXT(2) 
PARAMETRIC_REPRESENTATION_CONTEXT() REPRESENTATION_CONTEXT('2D SPACE',''
  ) );
#256 = PCURVE('',#111,#257);
#257 = DEFINITIONAL_REPRESENTATION('',(#258),#261);
#258 = B_SPLINE_CURVE_WITH_KNOTS('',1,(#259,#260),.UNSPECIFIED.,.F.,.F.,
  (2,2),(0.,144.51326206513),.PIECEWISE_BEZIER_KNOTS.);
#259 = CARTESIAN_POINT('',(0.,144.51326206513));
#260 = CARTESIAN_POINT('',(144.51326206513,144.51326206513));
#261 = ( GEOMETRIC_REPRESENTATION_CONTEXT(2) 
PARAMETRIC_REPRESENTATION_CONTEXT() REPRESENTATION_CONTEXT('2D SPACE',''
  ) );
#262 = ORIENTED_EDGE('',*,*,#263,.T.);
#263 = EDGE_CURVE('',#243,#243,#264,.T.);
#264 = SURFACE_CURVE('',#265,(#288,#295),.PCURVE_S1.);
#265 = ( BOUNDED_CURVE() B_SPLINE_CURVE(11,(#266,#267,#268,#269,#270,
    #271,#272,#273,#274,#275,#276,#277,#278,#279,#280,#281,#282,#283,
    #284,#285,#286,#287),.UNSPECIFIED.,.T.,.F.) 
B_SPLINE_CURVE_WITH_KNOTS((12,10,12),(3.683225919281E-15,72.256631032565
,144.51326206513),.UNSPECIFIED.) CURVE() GEOMETRIC_REPRESENTATION_ITEM()
 RATIONAL_B_SPLINE_CURVE((1.,1.,1.,1.000000000001,0.999999999999,
    1.000000000001,0.999999999999,1.000000000001,1.,1.,1.,1.,1.,1.,1.,1.
,1.,1.,1.,1.,1.,1.)) REPRESENTATION_ITEM('') );
#266 = CARTESIAN_POINT('',(22.870145306882,0.,4.642727602467E-02));
#267 = CARTESIAN_POINT('',(22.870145306881,6.437212615481,
    4.642727602467E-02));
#268 = CARTESIAN_POINT('',(20.877045580122,12.962409443469,
    4.642727602462E-02));
#269 = CARTESIAN_POINT('',(16.800510433511,18.841045684513,
    4.642727602476E-02));
#270 = CARTESIAN_POINT('',(10.886561660168,23.28395287272,
    4.642727602479E-02));
#271 = CARTESIAN_POINT('',(3.755617749087,25.632831954988,
    4.642727602413E-02));
#272 = CARTESIAN_POINT('',(-3.753359577291,25.622504309581,
    4.642727602527E-02));
#273 = CARTESIAN_POINT('',(-10.84080721904,23.262288342852,
    4.642727602433E-02));
#274 = CARTESIAN_POINT('',(-16.71378676969,18.878606496763,
    4.642727602477E-02));
#275 = CARTESIAN_POINT('',(-20.81820777019,13.063430550546,
    4.642727602467E-02));
#276 = CARTESIAN_POINT('',(-22.87014530688,6.531698225694,
    4.642727602466E-02));
#277 = CARTESIAN_POINT('',(-22.87014530688,-6.531698225694,
    4.642727602466E-02));
#278 = CARTESIAN_POINT('',(-20.8182077702,-13.06343055054,
    4.642727602463E-02));
#279 = CARTESIAN_POINT('',(-16.71378676968,-18.87860649675,
    4.642727602495E-02));
#280 = CARTESIAN_POINT('',(-10.84080721906,-23.26228834286,
    4.642727602399E-02));
#281 = CARTESIAN_POINT('',(-3.753359577269,-25.62250430955,
    4.642727602555E-02));
#282 = CARTESIAN_POINT('',(3.755617749075,-25.63283195501,
    4.642727602401E-02));
#283 = CARTESIAN_POINT('',(10.886561660168,-23.28395287269,
    4.642727602491E-02));
#284 = CARTESIAN_POINT('',(16.800510433516,-18.84104568452,
    4.64272760247E-02));
#285 = CARTESIAN_POINT('',(20.877045580117,-12.96240944346,
    4.642727602462E-02));
#286 = CARTESIAN_POINT('',(22.870145306882,-6.437212615481,
    4.642727602467E-02));
#287 = CARTESIAN_POINT('',(22.870145306882,-5.601570049221E-15,
    4.642727602467E-02));
#288 = PCURVE('',#111,#289);
#289 = DEFINITIONAL_REPRESENTATION('',(#290),#294);
#290 = LINE('',#291,#292);
#291 = CARTESIAN_POINT('',(144.51326206513,0.));
#292 = VECTOR('',#293,1.);
#293 = DIRECTION('',(0.,1.));
#294 = ( GEOMETRIC_REPRESENTATION_CONTEXT(2) 
PARAMETRIC_REPRESENTATION_CONTEXT() REPRESENTATION_CONTEXT('2D SPACE',''
  ) );
#295 = PCURVE('',#296,#301);
#296 = SPHERICAL_SURFACE('',#297,68.125);
#297 = AXIS2_PLACEMENT_3D('',#298,#299,#300);
#298 = CARTESIAN_POINT('',(0.,0.,-64.125));
#299 = DIRECTION('',(0.,0.,1.));
#300 = DIRECTION('',(1.,0.,0.));
#301 = DEFINITIONAL_REPRESENTATION('',(#302),#337);
#302 = B_SPLINE_CURVE_WITH_KNOTS('',9,(#303,#304,#305,#306,#307,#308,
    #309,#310,#311,#312,#313,#314,#315,#316,#317,#318,#319,#320,#321,
    #322,#323,#324,#325,#326,#327,#328,#329,#330,#331,#332,#333,#334,
    #335,#336),.UNSPECIFIED.,.F.,.F.,(10,8,8,8,10),(3.683225919281E-15,
    36.128315516283,72.256631032565,108.38494654884,144.51326206513),
  .UNSPECIFIED.);
#303 = CARTESIAN_POINT('',(2.22044604925E-16,1.228438988706));
#304 = CARTESIAN_POINT('',(0.172008183644,1.228438988706));
#305 = CARTESIAN_POINT('',(0.345485667567,1.228438988706));
#306 = CARTESIAN_POINT('',(0.519908556628,1.228438988706));
#307 = CARTESIAN_POINT('',(0.694857360008,1.228438988706));
#308 = CARTESIAN_POINT('',(0.869996861867,1.228438988706));
#309 = CARTESIAN_POINT('',(1.045158504663,1.228438988706));
#310 = CARTESIAN_POINT('',(1.220240210353,1.228438988706));
#311 = CARTESIAN_POINT('',(1.395212973228,1.228438988706));
#312 = CARTESIAN_POINT('',(1.744941203674,1.228438988706));
#313 = CARTESIAN_POINT('',(1.919696692251,1.228438988706));
#314 = CARTESIAN_POINT('',(2.094344948611,1.228438988706));
#315 = CARTESIAN_POINT('',(2.268919706767,1.228438988706));
#316 = CARTESIAN_POINT('',(2.44346088249,1.228438988706));
#317 = CARTESIAN_POINT('',(2.617994003193,1.228438988706));
#318 = CARTESIAN_POINT('',(2.792526778386,1.228438988706));
#319 = CARTESIAN_POINT('',(2.967059672826,1.228438988706));
#320 = CARTESIAN_POINT('',(3.316125634354,1.228438988706));
#321 = CARTESIAN_POINT('',(3.490658528793,1.228438988706));
#322 = CARTESIAN_POINT('',(3.665191303987,1.228438988706));
#323 = CARTESIAN_POINT('',(3.839724424688,1.228438988706));
#324 = CARTESIAN_POINT('',(4.014265600413,1.228438988706));
#325 = CARTESIAN_POINT('',(4.188840358568,1.228438988706));
#326 = CARTESIAN_POINT('',(4.363488614929,1.228438988706));
#327 = CARTESIAN_POINT('',(4.538244103506,1.228438988706));
#328 = CARTESIAN_POINT('',(4.887972333951,1.228438988706));
#329 = CARTESIAN_POINT('',(5.062945096827,1.228438988706));
#330 = CARTESIAN_POINT('',(5.238026802516,1.228438988706));
#331 = CARTESIAN_POINT('',(5.413188445313,1.228438988706));
#332 = CARTESIAN_POINT('',(5.588327947171,1.228438988706));
#333 = CARTESIAN_POINT('',(5.763276750552,1.228438988706));
#334 = CARTESIAN_POINT('',(5.937699639612,1.228438988706));
#335 = CARTESIAN_POINT('',(6.111177123536,1.228438988706));
#336 = CARTESIAN_POINT('',(6.28318530718,1.228438988706));
#337 = ( GEOMETRIC_REPRESENTATION_CONTEXT(2) 
PARAMETRIC_REPRESENTATION_CONTEXT() REPRESENTATION_CONTEXT('2D SPACE',''
  ) );
#338 = ORIENTED_EDGE('',*,*,#242,.F.);
#339 = ORIENTED_EDGE('',*,*,#57,.F.);
#340 = ADVANCED_FACE('',(#341),#227,.T.);
#341 = FACE_BOUND('',#342,.F.);
#342 = EDGE_LOOP('',(#343,#366,#393,#394));
#343 = ORIENTED_EDGE('',*,*,#344,.T.);
#344 = EDGE_CURVE('',#189,#345,#347,.T.);
#345 = VERTEX_POINT('',#346);
#346 = CARTESIAN_POINT('',(25.,0.,3.2));
#347 = SEAM_CURVE('',#348,(#352,#359),.PCURVE_S1.);
#348 = LINE('',#349,#350);
#349 = CARTESIAN_POINT('',(25.,0.,0.));
#350 = VECTOR('',#351,1.);
#351 = DIRECTION('',(0.,0.,1.));
#352 = PCURVE('',#227,#353);
#353 = DEFINITIONAL_REPRESENTATION('',(#354),#358);
#354 = LINE('',#355,#356);
#355 = CARTESIAN_POINT('',(-0.,0.));
#356 = VECTOR('',#357,1.);
#357 = DIRECTION('',(-0.,-1.));
#358 = ( GEOMETRIC_REPRESENTATION_CONTEXT(2) 
PARAMETRIC_REPRESENTATION_CONTEXT() REPRESENTATION_CONTEXT('2D SPACE',''
  ) );
#359 = PCURVE('',#227,#360);
#360 = DEFINITIONAL_REPRESENTATION('',(#361),#365);
#361 = LINE('',#362,#363);
#362 = CARTESIAN_POINT('',(-6.28318530718,0.));
#363 = VECTOR('',#364,1.);
#364 = DIRECTION('',(-0.,-1.));
#365 = ( GEOMETRIC_REPRESENTATION_CONTEXT(2) 
PARAMETRIC_REPRESENTATION_CONTEXT() REPRESENTATION_CONTEXT('2D SPACE',''
  ) );
#366 = ORIENTED_EDGE('',*,*,#367,.T.);
#367 = EDGE_CURVE('',#345,#345,#368,.T.);
#368 = SURFACE_CURVE('',#369,(#374,#381),.PCURVE_S1.);
#369 = CIRCLE('',#370,25.);
#370 = AXIS2_PLACEMENT_3D('',#371,#372,#373);
#371 = CARTESIAN_POINT('',(0.,0.,3.2));
#372 = DIRECTION('',(0.,0.,1.));
#373 = DIRECTION('',(1.,0.,-0.));
#374 = PCURVE('',#227,#375);
#375 = DEFINITIONAL_REPRESENTATION('',(#376),#380);
#376 = LINE('',#377,#378);
#377 = CARTESIAN_POINT('',(-0.,-3.2));
#378 = VECTOR('',#379,1.);
#379 = DIRECTION('',(-1.,0.));
#380 = ( GEOMETRIC_REPRESENTATION_CONTEXT(2) 
PARAMETRIC_REPRESENTATION_CONTEXT() REPRESENTATION_CONTEXT('2D SPACE',''
  ) );
#381 = PCURVE('',#382,#387);
#382 = TOROIDAL_SURFACE('',#383,24.2,0.8);
#383 = AXIS2_PLACEMENT_3D('',#384,#385,#386);
#384 = CARTESIAN_POINT('',(0.,0.,3.2));
#385 = DIRECTION('',(0.,0.,1.));
#386 = DIRECTION('',(1.,0.,-0.));
#387 = DEFINITIONAL_REPRESENTATION('',(#388),#392);
#388 = LINE('',#389,#390);
#389 = CARTESIAN_POINT('',(0.,0.));
#390 = VECTOR('',#391,1.);
#391 = DIRECTION('',(1.,0.));
#392 = ( GEOMETRIC_REPRESENTATION_CONTEXT(2) 
PARAMETRIC_REPRESENTATION_CONTEXT() REPRESENTATION_CONTEXT('2D SPACE',''
  ) );
#393 = ORIENTED_EDGE('',*,*,#344,.F.);
#394 = ORIENTED_EDGE('',*,*,#212,.F.);
#395 = ADVANCED_FACE('',(#396),#296,.F.);
#396 = FACE_BOUND('',#397,.F.);
#397 = EDGE_LOOP('',(#398,#422,#423,#424));
#398 = ORIENTED_EDGE('',*,*,#399,.F.);
#399 = EDGE_CURVE('',#243,#400,#402,.T.);
#400 = VERTEX_POINT('',#401);
#401 = CARTESIAN_POINT('',(6.880802079465,-1.685310448437E-15,
    3.651619772184));
#402 = SEAM_CURVE('',#403,(#408,#415),.PCURVE_S1.);
#403 = CIRCLE('',#404,68.125);
#404 = AXIS2_PLACEMENT_3D('',#405,#406,#407);
#405 = CARTESIAN_POINT('',(0.,0.,-64.125));
#406 = DIRECTION('',(-2.449293598295E-16,-1.,0.));
#407 = DIRECTION('',(1.,-2.449293598295E-16,0.));
#408 = PCURVE('',#296,#409);
#409 = DEFINITIONAL_REPRESENTATION('',(#410),#414);
#410 = LINE('',#411,#412);
#411 = CARTESIAN_POINT('',(0.,-6.28318530718));
#412 = VECTOR('',#413,1.);
#413 = DIRECTION('',(0.,1.));
#414 = ( GEOMETRIC_REPRESENTATION_CONTEXT(2) 
PARAMETRIC_REPRESENTATION_CONTEXT() REPRESENTATION_CONTEXT('2D SPACE',''
  ) );
#415 = PCURVE('',#296,#416);
#416 = DEFINITIONAL_REPRESENTATION('',(#417),#421);
#417 = LINE('',#418,#419);
#418 = CARTESIAN_POINT('',(6.28318530718,-6.28318530718));
#419 = VECTOR('',#420,1.);
#420 = DIRECTION('',(0.,1.));
#421 = ( GEOMETRIC_REPRESENTATION_CONTEXT(2) 
PARAMETRIC_REPRESENTATION_CONTEXT() REPRESENTATION_CONTEXT('2D SPACE',''
  ) );
#422 = ORIENTED_EDGE('',*,*,#263,.T.);
#423 = ORIENTED_EDGE('',*,*,#399,.T.);
#424 = ORIENTED_EDGE('',*,*,#425,.T.);
#425 = EDGE_CURVE('',#400,#400,#426,.T.);
#426 = SURFACE_CURVE('',#427,(#443,#485),.PCURVE_S1.);
#427 = ( BOUNDED_CURVE() B_SPLINE_CURVE(14,(#428,#429,#430,#431,#432,
    #433,#434,#435,#436,#437,#438,#439,#440,#441,#442),.UNSPECIFIED.,.T.
,.F.) B_SPLINE_CURVE_WITH_KNOTS((15,15),(2.824774849514E-15,
37.699111843078),.PIECEWISE_BEZIER_KNOTS.) CURVE() 
GEOMETRIC_REPRESENTATION_ITEM() RATIONAL_B_SPLINE_CURVE((1.,1.,
    0.999999999999,1.000000000003,0.999999999994,1.00000000001,
    0.999999999987,1.000000000015,0.999999999986,1.000000000011,
    0.999999999993,1.000000000003,0.999999999999,1.,1.)) 
REPRESENTATION_ITEM('') );
#428 = CARTESIAN_POINT('',(6.880802079465,-1.685310448437E-15,
    3.651619772184));
#429 = CARTESIAN_POINT('',(6.880802079464,-3.0434252598,3.651619772184)
  );
#430 = CARTESIAN_POINT('',(5.431375212901,-6.151635454984,3.651619772184
    ));
#431 = CARTESIAN_POINT('',(2.430311292397,-8.514497721209,3.651619772184
    ));
#432 = CARTESIAN_POINT('',(-1.662923971506,-9.291294466661,
    3.651619772184));
#433 = CARTESIAN_POINT('',(-5.903044905612,-7.753690928934,
    3.651619772185));
#434 = CARTESIAN_POINT('',(-8.747475855432,-4.709339267922,
    3.651619772183));
#435 = CARTESIAN_POINT('',(-10.54689040897,1.073110844976E-10,
    3.651619772185));
#436 = CARTESIAN_POINT('',(-8.747475855432,4.709339267731,3.651619772183
    ));
#437 = CARTESIAN_POINT('',(-5.903044905615,7.75369092907,3.651619772185)
  );
#438 = CARTESIAN_POINT('',(-1.6629239715,9.291294466582,3.651619772184)
  );
#439 = CARTESIAN_POINT('',(2.430311292392,8.514497721245,3.651619772184)
  );
#440 = CARTESIAN_POINT('',(5.431375212904,6.151635454972,3.651619772184)
  );
#441 = CARTESIAN_POINT('',(6.880802079463,3.043425259803,3.651619772184)
  );
#442 = CARTESIAN_POINT('',(6.880802079465,0.,3.651619772184));
#443 = PCURVE('',#296,#444);
#444 = DEFINITIONAL_REPRESENTATION('',(#445),#484);
#445 = B_SPLINE_CURVE_WITH_KNOTS('',10,(#446,#447,#448,#449,#450,#451,
    #452,#453,#454,#455,#456,#457,#458,#459,#460,#461,#462,#463,#464,
    #465,#466,#467,#468,#469,#470,#471,#472,#473,#474,#475,#476,#477,
    #478,#479,#480,#481,#482,#483),.UNSPECIFIED.,.F.,.F.,(11,9,9,9,11),(
    2.824774849514E-15,9.424777960769,18.849555921539,28.274333882308,
    37.699111843078),.UNSPECIFIED.);
#446 = CARTESIAN_POINT('',(6.28318530718,1.469621204192));
#447 = CARTESIAN_POINT('',(6.1283779419,1.469621204192));
#448 = CARTESIAN_POINT('',(5.972381250329,1.469621204192));
#449 = CARTESIAN_POINT('',(5.815620993691,1.469621204192));
#450 = CARTESIAN_POINT('',(5.658305991238,1.469621204192));
#451 = CARTESIAN_POINT('',(5.500754551056,1.469621204192));
#452 = CARTESIAN_POINT('',(5.343124231981,1.469621204192));
#453 = CARTESIAN_POINT('',(5.185501282967,1.469621204192));
#454 = CARTESIAN_POINT('',(5.027950634872,1.469621204192));
#455 = CARTESIAN_POINT('',(4.870485794022,1.469621204192));
#456 = CARTESIAN_POINT('',(4.555730427886,1.469621204192));
#457 = CARTESIAN_POINT('',(4.398439849706,1.469621204192));
#458 = CARTESIAN_POINT('',(4.241235694988,1.469621204192));
#459 = CARTESIAN_POINT('',(4.084096680104,1.469621204192));
#460 = CARTESIAN_POINT('',(3.92699599474,1.469621204192));
#461 = CARTESIAN_POINT('',(3.769911381466,1.469621204192));
#462 = CARTESIAN_POINT('',(3.612830219457,1.469621204192));
#463 = CARTESIAN_POINT('',(3.455749612243,1.469621204192));
#464 = CARTESIAN_POINT('',(3.298671479618,1.469621204192));
#465 = CARTESIAN_POINT('',(2.984513827562,1.469621204192));
#466 = CARTESIAN_POINT('',(2.827435694937,1.469621204192));
#467 = CARTESIAN_POINT('',(2.670355087722,1.469621204191));
#468 = CARTESIAN_POINT('',(2.513273925715,1.469621204193));
#469 = CARTESIAN_POINT('',(2.356189312438,1.469621204191));
#470 = CARTESIAN_POINT('',(2.199088627077,1.469621204193));
#471 = CARTESIAN_POINT('',(2.041949612191,1.469621204192));
#472 = CARTESIAN_POINT('',(1.884745457474,1.469621204192));
#473 = CARTESIAN_POINT('',(1.727454879294,1.469621204192));
#474 = CARTESIAN_POINT('',(1.412699513158,1.469621204192));
#475 = CARTESIAN_POINT('',(1.255234672305,1.469621204192));
#476 = CARTESIAN_POINT('',(1.097684024223,1.469621204192));
#477 = CARTESIAN_POINT('',(0.940061075178,1.469621204193));
#478 = CARTESIAN_POINT('',(0.782430756149,1.469621204191));
#479 = CARTESIAN_POINT('',(0.62487931592,1.469621204193));
#480 = CARTESIAN_POINT('',(0.4675643135,1.469621204192));
#481 = CARTESIAN_POINT('',(0.310804056848,1.469621204192));
#482 = CARTESIAN_POINT('',(0.15480736528,1.469621204192));
#483 = CARTESIAN_POINT('',(2.233716918544E-15,1.469621204192));
#484 = ( GEOMETRIC_REPRESENTATION_CONTEXT(2) 
PARAMETRIC_REPRESENTATION_CONTEXT() REPRESENTATION_CONTEXT('2D SPACE',''
  ) );
#485 = PCURVE('',#486,#532);
#486 = ( BOUNDED_SURFACE() B_SPLINE_SURFACE(2,14,(
    (#487,#488,#489,#490,#491,#492,#493,#494,#495,#496,#497,#498,#499
      ,#500,#501)
    ,(#502,#503,#504,#505,#506,#507,#508,#509,#510,#511,#512,#513,#514
      ,#515,#516)
    ,(#517,#518,#519,#520,#521,#522,#523,#524,#525,#526,#527,#528,#529
      ,#530,#531
)),.UNSPECIFIED.,.F.,.T.,.F.) B_SPLINE_SURFACE_WITH_KNOTS((3,3),(15,15),
  (0.,37.699111843078),(2.824774849514E-15,37.699111843078),
.PIECEWISE_BEZIER_KNOTS.) GEOMETRIC_REPRESENTATION_ITEM() 
RATIONAL_B_SPLINE_SURFACE((
    (1.,1.,0.999999999999,1.000000000003,0.999999999994,1.00000000001
      ,0.999999999987,1.000000000015,0.999999999986,1.000000000011
      ,0.999999999993,1.000000000003,0.999999999999,1.,1.)
    ,(0.670446642421,0.670446642422,0.670446642421,0.670446642422
      ,0.670446642419,0.670446642425,0.670446642416,0.670446642428
      ,0.670446642415,0.670446642427,0.670446642418,0.670446642423
      ,0.670446642421,0.670446642422,0.670446642421)
    ,(1.,1.,0.999999999999,1.000000000003,0.999999999994,1.00000000001
      ,0.999999999987,1.000000000015,0.999999999986,1.000000000011
      ,0.999999999993,1.000000000003,0.999999999999,1.,1.
))) REPRESENTATION_ITEM('') SURFACE() );
#487 = CARTESIAN_POINT('',(6.880802079465,-1.685310448437E-15,
    3.651619772184));
#488 = CARTESIAN_POINT('',(6.880802079464,-3.0434252598,3.651619772184)
  );
#489 = CARTESIAN_POINT('',(5.431375212901,-6.151635454984,3.651619772184
    ));
#490 = CARTESIAN_POINT('',(2.430311292397,-8.514497721209,3.651619772184
    ));
#491 = CARTESIAN_POINT('',(-1.662923971506,-9.291294466661,
    3.651619772184));
#492 = CARTESIAN_POINT('',(-5.903044905612,-7.753690928934,
    3.651619772185));
#493 = CARTESIAN_POINT('',(-8.747475855432,-4.709339267922,
    3.651619772183));
#494 = CARTESIAN_POINT('',(-10.54689040897,1.073110844976E-10,
    3.651619772185));
#495 = CARTESIAN_POINT('',(-8.747475855432,4.709339267731,3.651619772183
    ));
#496 = CARTESIAN_POINT('',(-5.903044905615,7.75369092907,3.651619772185)
  );
#497 = CARTESIAN_POINT('',(-1.6629239715,9.291294466582,3.651619772184)
  );
#498 = CARTESIAN_POINT('',(2.430311292392,8.514497721245,3.651619772184)
  );
#499 = CARTESIAN_POINT('',(5.431375212904,6.151635454972,3.651619772184)
  );
#500 = CARTESIAN_POINT('',(6.880802079463,3.043425259803,3.651619772184)
  );
#501 = CARTESIAN_POINT('',(6.880802079465,0.,3.651619772184));
#502 = CARTESIAN_POINT('',(6.,3.184952301893E-15,3.741040354095));
#503 = CARTESIAN_POINT('',(5.999999999998,-2.653840547646,3.741040354095
    ));
#504 = CARTESIAN_POINT('',(4.73611228765,-5.364172999541,3.741040354095)
  );
#505 = CARTESIAN_POINT('',(2.119210462075,-7.424568493239,3.741040354094
    ));
#506 = CARTESIAN_POINT('',(-1.45005534435,-8.101928547835,3.741040354099
    ));
#507 = CARTESIAN_POINT('',(-5.14740418707,-6.761151539723,3.741040354086
    ));
#508 = CARTESIAN_POINT('',(-7.627723414455,-4.106503178065,
    3.741040354108));
#509 = CARTESIAN_POINT('',(-9.196797368091,2.189895400434E-11,
    3.741040354081));
#510 = CARTESIAN_POINT('',(-7.627723414465,4.106503178032,3.741040354106
    ));
#511 = CARTESIAN_POINT('',(-5.147404187062,6.761151539737,3.741040354089
    ));
#512 = CARTESIAN_POINT('',(-1.450055344352,8.101928547835,3.741040354097
    ));
#513 = CARTESIAN_POINT('',(2.119210462073,7.424568493238,3.741040354095)
  );
#514 = CARTESIAN_POINT('',(4.736112287651,5.364172999542,3.741040354095)
  );
#515 = CARTESIAN_POINT('',(5.999999999997,2.653840547646,3.741040354095)
  );
#516 = CARTESIAN_POINT('',(6.,1.920252151733E-14,3.741040354095));
#517 = CARTESIAN_POINT('',(6.,-1.469576158977E-15,2.855710842749));
#518 = CARTESIAN_POINT('',(5.999999999998,-2.653840547645,2.855710842749
    ));
#519 = CARTESIAN_POINT('',(4.736112287649,-5.364172999546,2.85571084275)
  );
#520 = CARTESIAN_POINT('',(2.119210462081,-7.424568493223,2.855710842747
    ));
#521 = CARTESIAN_POINT('',(-1.450055344372,-8.10192854787,2.855710842756
    ));
#522 = CARTESIAN_POINT('',(-5.14740418702,-6.761151539675,2.855710842736
    ));
#523 = CARTESIAN_POINT('',(-7.627723414532,-4.106503178113,
    2.855710842769));
#524 = CARTESIAN_POINT('',(-9.196797368001,5.21428898323E-11,
    2.855710842728));
#525 = CARTESIAN_POINT('',(-7.627723414537,4.106503178023,2.855710842767
    ));
#526 = CARTESIAN_POINT('',(-5.147404187016,6.761151539735,2.855710842739
    ));
#527 = CARTESIAN_POINT('',(-1.450055344373,8.101928547839,2.855710842754
    ));
#528 = CARTESIAN_POINT('',(2.119210462081,7.424568493236,2.855710842748)
  );
#529 = CARTESIAN_POINT('',(4.736112287649,5.364172999542,2.85571084275)
  );
#530 = CARTESIAN_POINT('',(5.999999999997,2.653840547646,2.855710842749)
  );
#531 = CARTESIAN_POINT('',(6.,0.,2.855710842749));
#532 = DEFINITIONAL_REPRESENTATION('',(#533),#537);
#533 = LINE('',#534,#535);
#534 = CARTESIAN_POINT('',(0.,0.));
#535 = VECTOR('',#536,1.);
#536 = DIRECTION('',(0.,1.));
#537 = ( GEOMETRIC_REPRESENTATION_CONTEXT(2) 
PARAMETRIC_REPRESENTATION_CONTEXT() REPRESENTATION_CONTEXT('2D SPACE',''
  ) );
#538 = ADVANCED_FACE('',(#539),#382,.T.);
#539 = FACE_BOUND('',#540,.T.);
#540 = EDGE_LOOP('',(#541,#563,#564,#565));
#541 = ORIENTED_EDGE('',*,*,#542,.F.);
#542 = EDGE_CURVE('',#345,#543,#545,.T.);
#543 = VERTEX_POINT('',#544);
#544 = CARTESIAN_POINT('',(24.2,0.,4.));
#545 = SEAM_CURVE('',#546,(#551,#557),.PCURVE_S1.);
#546 = CIRCLE('',#547,0.8);
#547 = AXIS2_PLACEMENT_3D('',#548,#549,#550);
#548 = CARTESIAN_POINT('',(24.2,0.,3.2));
#549 = DIRECTION('',(0.,-1.,0.));
#550 = DIRECTION('',(1.,0.,0.));
#551 = PCURVE('',#382,#552);
#552 = DEFINITIONAL_REPRESENTATION('',(#553),#556);
#553 = B_SPLINE_CURVE_WITH_KNOTS('',1,(#554,#555),.UNSPECIFIED.,.F.,.F.,
  (2,2),(0.,1.570796326795),.PIECEWISE_BEZIER_KNOTS.);
#554 = CARTESIAN_POINT('',(0.,0.));
#555 = CARTESIAN_POINT('',(0.,1.570796326795));
#556 = ( GEOMETRIC_REPRESENTATION_CONTEXT(2) 
PARAMETRIC_REPRESENTATION_CONTEXT() REPRESENTATION_CONTEXT('2D SPACE',''
  ) );
#557 = PCURVE('',#382,#558);
#558 = DEFINITIONAL_REPRESENTATION('',(#559),#562);
#559 = B_SPLINE_CURVE_WITH_KNOTS('',1,(#560,#561),.UNSPECIFIED.,.F.,.F.,
  (2,2),(0.,1.570796326795),.PIECEWISE_BEZIER_KNOTS.);
#560 = CARTESIAN_POINT('',(6.28318530718,0.));
#561 = CARTESIAN_POINT('',(6.28318530718,1.570796326795));
#562 = ( GEOMETRIC_REPRESENTATION_CONTEXT(2) 
PARAMETRIC_REPRESENTATION_CONTEXT() REPRESENTATION_CONTEXT('2D SPACE',''
  ) );
#563 = ORIENTED_EDGE('',*,*,#367,.T.);
#564 = ORIENTED_EDGE('',*,*,#542,.T.);
#565 = ORIENTED_EDGE('',*,*,#566,.F.);
#566 = EDGE_CURVE('',#543,#543,#567,.T.);
#567 = SURFACE_CURVE('',#568,(#573,#580),.PCURVE_S1.);
#568 = CIRCLE('',#569,24.2);
#569 = AXIS2_PLACEMENT_3D('',#570,#571,#572);
#570 = CARTESIAN_POINT('',(0.,0.,4.));
#571 = DIRECTION('',(0.,0.,1.));
#572 = DIRECTION('',(1.,0.,-0.));
#573 = PCURVE('',#382,#574);
#574 = DEFINITIONAL_REPRESENTATION('',(#575),#579);
#575 = LINE('',#576,#577);
#576 = CARTESIAN_POINT('',(0.,1.570796326795));
#577 = VECTOR('',#578,1.);
#578 = DIRECTION('',(1.,0.));
#579 = ( GEOMETRIC_REPRESENTATION_CONTEXT(2) 
PARAMETRIC_REPRESENTATION_CONTEXT() REPRESENTATION_CONTEXT('2D SPACE',''
  ) );
#580 = PCURVE('',#581,#586);
#581 = PLANE('',#582);
#582 = AXIS2_PLACEMENT_3D('',#583,#584,#585);
#583 = CARTESIAN_POINT('',(-8.751616848252E-16,1.604946055186E-15,4.));
#584 = DIRECTION('',(0.,0.,1.));
#585 = DIRECTION('',(1.,0.,-0.));
#586 = DEFINITIONAL_REPRESENTATION('',(#587),#591);
#587 = CIRCLE('',#588,24.2);
#588 = AXIS2_PLACEMENT_2D('',#589,#590);
#589 = CARTESIAN_POINT('',(8.751616848252E-16,-1.604946055186E-15));
#590 = DIRECTION('',(1.,0.));
#591 = ( GEOMETRIC_REPRESENTATION_CONTEXT(2) 
PARAMETRIC_REPRESENTATION_CONTEXT() REPRESENTATION_CONTEXT('2D SPACE',''
  ) );
#592 = ADVANCED_FACE('',(#593),#486,.F.);
#593 = FACE_BOUND('',#594,.F.);
#594 = EDGE_LOOP('',(#595,#616,#671,#672));
#595 = ORIENTED_EDGE('',*,*,#596,.T.);
#596 = EDGE_CURVE('',#400,#597,#599,.T.);
#597 = VERTEX_POINT('',#598);
#598 = CARTESIAN_POINT('',(6.,-1.469576158977E-15,2.855710842749));
#599 = SEAM_CURVE('',#600,(#604,#610),.PCURVE_S1.);
#600 = ( BOUNDED_CURVE() B_SPLINE_CURVE(2,(#601,#602,#603),
.UNSPECIFIED.,.F.,.F.) B_SPLINE_CURVE_WITH_KNOTS((3,3),(0.,
37.699111843078),.PIECEWISE_BEZIER_KNOTS.) CURVE() 
GEOMETRIC_REPRESENTATION_ITEM() RATIONAL_B_SPLINE_CURVE((1.,
0.670446642421,1.)) REPRESENTATION_ITEM('') );
#601 = CARTESIAN_POINT('',(6.880802079465,-1.685310448437E-15,
    3.651619772184));
#602 = CARTESIAN_POINT('',(6.,3.184952301893E-15,3.741040354095));
#603 = CARTESIAN_POINT('',(6.,-1.469576158977E-15,2.855710842749));
#604 = PCURVE('',#486,#605);
#605 = DEFINITIONAL_REPRESENTATION('',(#606),#609);
#606 = B_SPLINE_CURVE_WITH_KNOTS('',1,(#607,#608),.UNSPECIFIED.,.F.,.F.,
  (2,2),(0.,37.699111843078),.PIECEWISE_BEZIER_KNOTS.);
#607 = CARTESIAN_POINT('',(0.,2.824774849514E-15));
#608 = CARTESIAN_POINT('',(37.699111843078,2.824774849514E-15));
#609 = ( GEOMETRIC_REPRESENTATION_CONTEXT(2) 
PARAMETRIC_REPRESENTATION_CONTEXT() REPRESENTATION_CONTEXT('2D SPACE',''
  ) );
#610 = PCURVE('',#486,#611);
#611 = DEFINITIONAL_REPRESENTATION('',(#612),#615);
#612 = B_SPLINE_CURVE_WITH_KNOTS('',1,(#613,#614),.UNSPECIFIED.,.F.,.F.,
  (2,2),(0.,37.699111843078),.PIECEWISE_BEZIER_KNOTS.);
#613 = CARTESIAN_POINT('',(0.,37.699111843078));
#614 = CARTESIAN_POINT('',(37.699111843078,37.699111843078));
#615 = ( GEOMETRIC_REPRESENTATION_CONTEXT(2) 
PARAMETRIC_REPRESENTATION_CONTEXT() REPRESENTATION_CONTEXT('2D SPACE',''
  ) );
#616 = ORIENTED_EDGE('',*,*,#617,.T.);
#617 = EDGE_CURVE('',#597,#597,#618,.T.);
#618 = SURFACE_CURVE('',#619,(#635,#642),.PCURVE_S1.);
#619 = ( BOUNDED_CURVE() B_SPLINE_CURVE(14,(#620,#621,#622,#623,#624,
    #625,#626,#627,#628,#629,#630,#631,#632,#633,#634),.UNSPECIFIED.,.T.
,.F.) B_SPLINE_CURVE_WITH_KNOTS((15,15),(2.824774849514E-15,
37.699111843078),.PIECEWISE_BEZIER_KNOTS.) CURVE() 
GEOMETRIC_REPRESENTATION_ITEM() RATIONAL_B_SPLINE_CURVE((1.,1.,
    0.999999999999,1.000000000003,0.999999999994,1.00000000001,
    0.999999999987,1.000000000015,0.999999999986,1.000000000011,
    0.999999999993,1.000000000003,0.999999999999,1.,1.)) 
REPRESENTATION_ITEM('') );
#620 = CARTESIAN_POINT('',(6.,-1.469576158977E-15,2.855710842749));
#621 = CARTESIAN_POINT('',(5.999999999998,-2.653840547645,2.855710842749
    ));
#622 = CARTESIAN_POINT('',(4.736112287649,-5.364172999546,2.85571084275)
  );
#623 = CARTESIAN_POINT('',(2.119210462081,-7.424568493223,2.855710842747
    ));
#624 = CARTESIAN_POINT('',(-1.450055344372,-8.10192854787,2.855710842756
    ));
#625 = CARTESIAN_POINT('',(-5.14740418702,-6.761151539675,2.855710842736
    ));
#626 = CARTESIAN_POINT('',(-7.627723414532,-4.106503178113,
    2.855710842769));
#627 = CARTESIAN_POINT('',(-9.196797368001,5.21428898323E-11,
    2.855710842728));
#628 = CARTESIAN_POINT('',(-7.627723414537,4.106503178023,2.855710842767
    ));
#629 = CARTESIAN_POINT('',(-5.147404187016,6.761151539735,2.855710842739
    ));
#630 = CARTESIAN_POINT('',(-1.450055344373,8.101928547839,2.855710842754
    ));
#631 = CARTESIAN_POINT('',(2.119210462081,7.424568493236,2.855710842748)
  );
#632 = CARTESIAN_POINT('',(4.736112287649,5.364172999542,2.85571084275)
  );
#633 = CARTESIAN_POINT('',(5.999999999997,2.653840547646,2.855710842749)
  );
#634 = CARTESIAN_POINT('',(6.,0.,2.855710842749));
#635 = PCURVE('',#486,#636);
#636 = DEFINITIONAL_REPRESENTATION('',(#637),#641);
#637 = LINE('',#638,#639);
#638 = CARTESIAN_POINT('',(37.699111843078,0.));
#639 = VECTOR('',#640,1.);
#640 = DIRECTION('',(0.,1.));
#641 = ( GEOMETRIC_REPRESENTATION_CONTEXT(2) 
PARAMETRIC_REPRESENTATION_CONTEXT() REPRESENTATION_CONTEXT('2D SPACE',''
  ) );
#642 = PCURVE('',#643,#648);
#643 = CYLINDRICAL_SURFACE('',#644,6.);
#644 = AXIS2_PLACEMENT_3D('',#645,#646,#647);
#645 = CARTESIAN_POINT('',(0.,0.,-3.));
#646 = DIRECTION('',(-0.,-0.,-1.));
#647 = DIRECTION('',(1.,0.,0.));
#648 = DEFINITIONAL_REPRESENTATION('',(#649),#670);
#649 = B_SPLINE_CURVE_WITH_KNOTS('',10,(#650,#651,#652,#653,#654,#655,
    #656,#657,#658,#659,#660,#661,#662,#663,#664,#665,#666,#667,#668,
    #669),.UNSPECIFIED.,.F.,.F.,(11,9,11),(2.824774849514E-15,
    18.849555921539,37.699111843078),.UNSPECIFIED.);
#650 = CARTESIAN_POINT('',(-6.28318530718,-5.855710842749));
#651 = CARTESIAN_POINT('',(-5.973570576621,-5.85571084275));
#652 = CARTESIAN_POINT('',(-5.659235727976,-5.855710842748));
#653 = CARTESIAN_POINT('',(-5.343230466278,-5.855710842751));
#654 = CARTESIAN_POINT('',(-5.027184923197,-5.855710842748));
#655 = CARTESIAN_POINT('',(-4.71269485477,-5.855710842751));
#656 = CARTESIAN_POINT('',(-4.398108426945,-5.855710842749));
#657 = CARTESIAN_POINT('',(-4.084129987288,-5.85571084275));
#658 = CARTESIAN_POINT('',(-3.769896077447,-5.855710842749));
#659 = CARTESIAN_POINT('',(-3.455750305646,-5.855710842749));
#660 = CARTESIAN_POINT('',(-2.827435001534,-5.855710842749));
#661 = CARTESIAN_POINT('',(-2.513289229731,-5.85571084275));
#662 = CARTESIAN_POINT('',(-2.199055319898,-5.855710842749));
#663 = CARTESIAN_POINT('',(-1.885076880218,-5.85571084275));
#664 = CARTESIAN_POINT('',(-1.570490452435,-5.855710842749));
#665 = CARTESIAN_POINT('',(-1.256000383956,-5.855710842749));
#666 = CARTESIAN_POINT('',(-0.93995484092,-5.85571084275));
#667 = CARTESIAN_POINT('',(-0.623949579197,-5.855710842748));
#668 = CARTESIAN_POINT('',(-0.309614730559,-5.85571084275));
#669 = CARTESIAN_POINT('',(-3.567370870083E-15,-5.855710842749));
#670 = ( GEOMETRIC_REPRESENTATION_CONTEXT(2) 
PARAMETRIC_REPRESENTATION_CONTEXT() REPRESENTATION_CONTEXT('2D SPACE',''
  ) );
#671 = ORIENTED_EDGE('',*,*,#596,.F.);
#672 = ORIENTED_EDGE('',*,*,#425,.F.);
#673 = ADVANCED_FACE('',(#674,#677),#581,.T.);
#674 = FACE_BOUND('',#675,.T.);
#675 = EDGE_LOOP('',(#676));
#676 = ORIENTED_EDGE('',*,*,#566,.T.);
#677 = FACE_BOUND('',#678,.T.);
#678 = EDGE_LOOP('',(#679));
#679 = ORIENTED_EDGE('',*,*,#680,.T.);
#680 = EDGE_CURVE('',#681,#681,#683,.T.);
#681 = VERTEX_POINT('',#682);
#682 = CARTESIAN_POINT('',(10.8,-2.645237086158E-15,4.));
#683 = SURFACE_CURVE('',#684,(#689,#700),.PCURVE_S1.);
#684 = CIRCLE('',#685,10.8);
#685 = AXIS2_PLACEMENT_3D('',#686,#687,#688);
#686 = CARTESIAN_POINT('',(0.,0.,4.));
#687 = DIRECTION('',(0.,-0.,-1.));
#688 = DIRECTION('',(1.,-2.449293598295E-16,0.));
#689 = PCURVE('',#581,#690);
#690 = DEFINITIONAL_REPRESENTATION('',(#691),#699);
#691 = ( BOUNDED_CURVE() B_SPLINE_CURVE(2,(#692,#693,#694,#695,#696,#697
,#698),.UNSPECIFIED.,.T.,.F.) B_SPLINE_CURVE_WITH_KNOTS((1,2,2,2,2,1),(
    -2.094395102393,0.,2.094395102393,4.188790204786,6.28318530718,
8.377580409573),.UNSPECIFIED.) CURVE() GEOMETRIC_REPRESENTATION_ITEM() 
RATIONAL_B_SPLINE_CURVE((1.,0.5,1.,0.5,1.,0.5,1.)) REPRESENTATION_ITEM(
  '') );
#692 = CARTESIAN_POINT('',(10.8,-4.250183141345E-15));
#693 = CARTESIAN_POINT('',(10.8,-18.70614872174));
#694 = CARTESIAN_POINT('',(-5.4,-9.353074360872));
#695 = CARTESIAN_POINT('',(-21.6,1.040291030972E-15));
#696 = CARTESIAN_POINT('',(-5.4,9.353074360872));
#697 = CARTESIAN_POINT('',(10.8,18.706148721744));
#698 = CARTESIAN_POINT('',(10.8,-4.250183141345E-15));
#699 = ( GEOMETRIC_REPRESENTATION_CONTEXT(2) 
PARAMETRIC_REPRESENTATION_CONTEXT() REPRESENTATION_CONTEXT('2D SPACE',''
  ) );
#700 = PCURVE('',#701,#706);
#701 = TOROIDAL_SURFACE('',#702,10.8,0.8);
#702 = AXIS2_PLACEMENT_3D('',#703,#704,#705);
#703 = CARTESIAN_POINT('',(0.,0.,4.8));
#704 = DIRECTION('',(-0.,-0.,-1.));
#705 = DIRECTION('',(1.,-2.449293598295E-16,0.));
#706 = DEFINITIONAL_REPRESENTATION('',(#707),#711);
#707 = LINE('',#708,#709);
#708 = CARTESIAN_POINT('',(0.,1.570796326795));
#709 = VECTOR('',#710,1.);
#710 = DIRECTION('',(1.,0.));
#711 = ( GEOMETRIC_REPRESENTATION_CONTEXT(2) 
PARAMETRIC_REPRESENTATION_CONTEXT() REPRESENTATION_CONTEXT('2D SPACE',''
  ) );
#712 = ADVANCED_FACE('',(#713),#643,.T.);
#713 = FACE_BOUND('',#714,.F.);
#714 = EDGE_LOOP('',(#715,#738,#765,#766));
#715 = ORIENTED_EDGE('',*,*,#716,.F.);
#716 = EDGE_CURVE('',#717,#597,#719,.T.);
#717 = VERTEX_POINT('',#718);
#718 = CARTESIAN_POINT('',(6.,0.,-0.3));
#719 = SEAM_CURVE('',#720,(#724,#731),.PCURVE_S1.);
#720 = LINE('',#721,#722);
#721 = CARTESIAN_POINT('',(6.,0.,-3.));
#722 = VECTOR('',#723,1.);
#723 = DIRECTION('',(0.,0.,1.));
#724 = PCURVE('',#643,#725);
#725 = DEFINITIONAL_REPRESENTATION('',(#726),#730);
#726 = LINE('',#727,#728);
#727 = CARTESIAN_POINT('',(-6.28318530718,0.));
#728 = VECTOR('',#729,1.);
#729 = DIRECTION('',(-0.,-1.));
#730 = ( GEOMETRIC_REPRESENTATION_CONTEXT(2) 
PARAMETRIC_REPRESENTATION_CONTEXT() REPRESENTATION_CONTEXT('2D SPACE',''
  ) );
#731 = PCURVE('',#643,#732);
#732 = DEFINITIONAL_REPRESENTATION('',(#733),#737);
#733 = LINE('',#734,#735);
#734 = CARTESIAN_POINT('',(-0.,0.));
#735 = VECTOR('',#736,1.);
#736 = DIRECTION('',(-0.,-1.));
#737 = ( GEOMETRIC_REPRESENTATION_CONTEXT(2) 
PARAMETRIC_REPRESENTATION_CONTEXT() REPRESENTATION_CONTEXT('2D SPACE',''
  ) );
#738 = ORIENTED_EDGE('',*,*,#739,.F.);
#739 = EDGE_CURVE('',#717,#717,#740,.T.);
#740 = SURFACE_CURVE('',#741,(#746,#753),.PCURVE_S1.);
#741 = CIRCLE('',#742,6.);
#742 = AXIS2_PLACEMENT_3D('',#743,#744,#745);
#743 = CARTESIAN_POINT('',(0.,0.,-0.3));
#744 = DIRECTION('',(0.,0.,1.));
#745 = DIRECTION('',(1.,0.,-0.));
#746 = PCURVE('',#643,#747);
#747 = DEFINITIONAL_REPRESENTATION('',(#748),#752);
#748 = LINE('',#749,#750);
#749 = CARTESIAN_POINT('',(-0.,-2.7));
#750 = VECTOR('',#751,1.);
#751 = DIRECTION('',(-1.,0.));
#752 = ( GEOMETRIC_REPRESENTATION_CONTEXT(2) 
PARAMETRIC_REPRESENTATION_CONTEXT() REPRESENTATION_CONTEXT('2D SPACE',''
  ) );
#753 = PCURVE('',#754,#759);
#754 = TOROIDAL_SURFACE('',#755,3.3,2.7);
#755 = AXIS2_PLACEMENT_3D('',#756,#757,#758);
#756 = CARTESIAN_POINT('',(0.,0.,-0.3));
#757 = DIRECTION('',(-0.,-0.,-1.));
#758 = DIRECTION('',(1.,0.,-0.));
#759 = DEFINITIONAL_REPRESENTATION('',(#760),#764);
#760 = LINE('',#761,#762);
#761 = CARTESIAN_POINT('',(-0.,0.));
#762 = VECTOR('',#763,1.);
#763 = DIRECTION('',(-1.,0.));
#764 = ( GEOMETRIC_REPRESENTATION_CONTEXT(2) 
PARAMETRIC_REPRESENTATION_CONTEXT() REPRESENTATION_CONTEXT('2D SPACE',''
  ) );
#765 = ORIENTED_EDGE('',*,*,#716,.T.);
#766 = ORIENTED_EDGE('',*,*,#617,.F.);
#767 = ADVANCED_FACE('',(#768),#701,.F.);
#768 = FACE_BOUND('',#769,.F.);
#769 = EDGE_LOOP('',(#770,#792,#793,#794));
#770 = ORIENTED_EDGE('',*,*,#771,.F.);
#771 = EDGE_CURVE('',#681,#772,#774,.T.);
#772 = VERTEX_POINT('',#773);
#773 = CARTESIAN_POINT('',(10.,-2.449293598295E-15,4.8));
#774 = SEAM_CURVE('',#775,(#780,#786),.PCURVE_S1.);
#775 = CIRCLE('',#776,0.8);
#776 = AXIS2_PLACEMENT_3D('',#777,#778,#779);
#777 = CARTESIAN_POINT('',(10.8,-2.645237086158E-15,4.8));
#778 = DIRECTION('',(2.449293598295E-16,1.,0.));
#779 = DIRECTION('',(1.,-2.449293598295E-16,0.));
#780 = PCURVE('',#701,#781);
#781 = DEFINITIONAL_REPRESENTATION('',(#782),#785);
#782 = B_SPLINE_CURVE_WITH_KNOTS('',1,(#783,#784),.UNSPECIFIED.,.F.,.F.,
  (2,2),(1.570796326795,3.14159265359),.PIECEWISE_BEZIER_KNOTS.);
#783 = CARTESIAN_POINT('',(0.,1.570796326795));
#784 = CARTESIAN_POINT('',(0.,3.14159265359));
#785 = ( GEOMETRIC_REPRESENTATION_CONTEXT(2) 
PARAMETRIC_REPRESENTATION_CONTEXT() REPRESENTATION_CONTEXT('2D SPACE',''
  ) );
#786 = PCURVE('',#701,#787);
#787 = DEFINITIONAL_REPRESENTATION('',(#788),#791);
#788 = B_SPLINE_CURVE_WITH_KNOTS('',1,(#789,#790),.UNSPECIFIED.,.F.,.F.,
  (2,2),(1.570796326795,3.14159265359),.PIECEWISE_BEZIER_KNOTS.);
#789 = CARTESIAN_POINT('',(6.28318530718,1.570796326795));
#790 = CARTESIAN_POINT('',(6.28318530718,3.14159265359));
#791 = ( GEOMETRIC_REPRESENTATION_CONTEXT(2) 
PARAMETRIC_REPRESENTATION_CONTEXT() REPRESENTATION_CONTEXT('2D SPACE',''
  ) );
#792 = ORIENTED_EDGE('',*,*,#680,.T.);
#793 = ORIENTED_EDGE('',*,*,#771,.T.);
#794 = ORIENTED_EDGE('',*,*,#795,.F.);
#795 = EDGE_CURVE('',#772,#772,#796,.T.);
#796 = SURFACE_CURVE('',#797,(#802,#809),.PCURVE_S1.);
#797 = CIRCLE('',#798,10.);
#798 = AXIS2_PLACEMENT_3D('',#799,#800,#801);
#799 = CARTESIAN_POINT('',(0.,0.,4.8));
#800 = DIRECTION('',(0.,-0.,-1.));
#801 = DIRECTION('',(1.,-2.449293598295E-16,0.));
#802 = PCURVE('',#701,#803);
#803 = DEFINITIONAL_REPRESENTATION('',(#804),#808);
#804 = LINE('',#805,#806);
#805 = CARTESIAN_POINT('',(0.,3.14159265359));
#806 = VECTOR('',#807,1.);
#807 = DIRECTION('',(1.,0.));
#808 = ( GEOMETRIC_REPRESENTATION_CONTEXT(2) 
PARAMETRIC_REPRESENTATION_CONTEXT() REPRESENTATION_CONTEXT('2D SPACE',''
  ) );
#809 = PCURVE('',#810,#815);
#810 = CYLINDRICAL_SURFACE('',#811,10.);
#811 = AXIS2_PLACEMENT_3D('',#812,#813,#814);
#812 = CARTESIAN_POINT('',(0.,0.,0.));
#813 = DIRECTION('',(-0.,-0.,-1.));
#814 = DIRECTION('',(1.,0.,0.));
#815 = DEFINITIONAL_REPRESENTATION('',(#816),#820);
#816 = LINE('',#817,#818);
#817 = CARTESIAN_POINT('',(-6.28318530718,-4.8));
#818 = VECTOR('',#819,1.);
#819 = DIRECTION('',(1.,-0.));
#820 = ( GEOMETRIC_REPRESENTATION_CONTEXT(2) 
PARAMETRIC_REPRESENTATION_CONTEXT() REPRESENTATION_CONTEXT('2D SPACE',''
  ) );
#821 = ADVANCED_FACE('',(#822),#754,.T.);
#822 = FACE_BOUND('',#823,.F.);
#823 = EDGE_LOOP('',(#824,#846,#847,#848));
#824 = ORIENTED_EDGE('',*,*,#825,.F.);
#825 = EDGE_CURVE('',#717,#826,#828,.T.);
#826 = VERTEX_POINT('',#827);
#827 = CARTESIAN_POINT('',(3.3,0.,-3.));
#828 = SEAM_CURVE('',#829,(#834,#840),.PCURVE_S1.);
#829 = CIRCLE('',#830,2.7);
#830 = AXIS2_PLACEMENT_3D('',#831,#832,#833);
#831 = CARTESIAN_POINT('',(3.3,0.,-0.3));
#832 = DIRECTION('',(0.,1.,0.));
#833 = DIRECTION('',(1.,0.,-0.));
#834 = PCURVE('',#754,#835);
#835 = DEFINITIONAL_REPRESENTATION('',(#836),#839);
#836 = B_SPLINE_CURVE_WITH_KNOTS('',1,(#837,#838),.UNSPECIFIED.,.F.,.F.,
  (2,2),(0.,1.570796326795),.PIECEWISE_BEZIER_KNOTS.);
#837 = CARTESIAN_POINT('',(0.,0.));
#838 = CARTESIAN_POINT('',(0.,1.570796326795));
#839 = ( GEOMETRIC_REPRESENTATION_CONTEXT(2) 
PARAMETRIC_REPRESENTATION_CONTEXT() REPRESENTATION_CONTEXT('2D SPACE',''
  ) );
#840 = PCURVE('',#754,#841);
#841 = DEFINITIONAL_REPRESENTATION('',(#842),#845);
#842 = B_SPLINE_CURVE_WITH_KNOTS('',1,(#843,#844),.UNSPECIFIED.,.F.,.F.,
  (2,2),(0.,1.570796326795),.PIECEWISE_BEZIER_KNOTS.);
#843 = CARTESIAN_POINT('',(-6.28318530718,0.));
#844 = CARTESIAN_POINT('',(-6.28318530718,1.570796326795));
#845 = ( GEOMETRIC_REPRESENTATION_CONTEXT(2) 
PARAMETRIC_REPRESENTATION_CONTEXT() REPRESENTATION_CONTEXT('2D SPACE',''
  ) );
#846 = ORIENTED_EDGE('',*,*,#739,.F.);
#847 = ORIENTED_EDGE('',*,*,#825,.T.);
#848 = ORIENTED_EDGE('',*,*,#849,.T.);
#849 = EDGE_CURVE('',#826,#826,#850,.T.);
#850 = SURFACE_CURVE('',#851,(#856,#863),.PCURVE_S1.);
#851 = CIRCLE('',#852,3.3);
#852 = AXIS2_PLACEMENT_3D('',#853,#854,#855);
#853 = CARTESIAN_POINT('',(0.,0.,-3.));
#854 = DIRECTION('',(0.,0.,1.));
#855 = DIRECTION('',(1.,0.,-0.));
#856 = PCURVE('',#754,#857);
#857 = DEFINITIONAL_REPRESENTATION('',(#858),#862);
#858 = LINE('',#859,#860);
#859 = CARTESIAN_POINT('',(-0.,1.570796326795));
#860 = VECTOR('',#861,1.);
#861 = DIRECTION('',(-1.,0.));
#862 = ( GEOMETRIC_REPRESENTATION_CONTEXT(2) 
PARAMETRIC_REPRESENTATION_CONTEXT() REPRESENTATION_CONTEXT('2D SPACE',''
  ) );
#863 = PCURVE('',#864,#869);
#864 = PLANE('',#865);
#865 = AXIS2_PLACEMENT_3D('',#866,#867,#868);
#866 = CARTESIAN_POINT('',(-3.418600331349E-16,2.108840176837E-16,-3.));
#867 = DIRECTION('',(0.,0.,1.));
#868 = DIRECTION('',(1.,0.,-0.));
#869 = DEFINITIONAL_REPRESENTATION('',(#870),#874);
#870 = CIRCLE('',#871,3.3);
#871 = AXIS2_PLACEMENT_2D('',#872,#873);
#872 = CARTESIAN_POINT('',(3.418600331349E-16,-2.108840176837E-16));
#873 = DIRECTION('',(1.,0.));
#874 = ( GEOMETRIC_REPRESENTATION_CONTEXT(2) 
PARAMETRIC_REPRESENTATION_CONTEXT() REPRESENTATION_CONTEXT('2D SPACE',''
  ) );
#875 = ADVANCED_FACE('',(#876),#810,.T.);
#876 = FACE_BOUND('',#877,.F.);
#877 = EDGE_LOOP('',(#878,#901,#902,#903));
#878 = ORIENTED_EDGE('',*,*,#879,.F.);
#879 = EDGE_CURVE('',#772,#880,#882,.T.);
#880 = VERTEX_POINT('',#881);
#881 = CARTESIAN_POINT('',(10.,0.,55.));
#882 = SEAM_CURVE('',#883,(#887,#894),.PCURVE_S1.);
#883 = LINE('',#884,#885);
#884 = CARTESIAN_POINT('',(10.,0.,0.));
#885 = VECTOR('',#886,1.);
#886 = DIRECTION('',(0.,0.,1.));
#887 = PCURVE('',#810,#888);
#888 = DEFINITIONAL_REPRESENTATION('',(#889),#893);
#889 = LINE('',#890,#891);
#890 = CARTESIAN_POINT('',(-6.28318530718,0.));
#891 = VECTOR('',#892,1.);
#892 = DIRECTION('',(-0.,-1.));
#893 = ( GEOMETRIC_REPRESENTATION_CONTEXT(2) 
PARAMETRIC_REPRESENTATION_CONTEXT() REPRESENTATION_CONTEXT('2D SPACE',''
  ) );
#894 = PCURVE('',#810,#895);
#895 = DEFINITIONAL_REPRESENTATION('',(#896),#900);
#896 = LINE('',#897,#898);
#897 = CARTESIAN_POINT('',(-0.,0.));
#898 = VECTOR('',#899,1.);
#899 = DIRECTION('',(-0.,-1.));
#900 = ( GEOMETRIC_REPRESENTATION_CONTEXT(2) 
PARAMETRIC_REPRESENTATION_CONTEXT() REPRESENTATION_CONTEXT('2D SPACE',''
  ) );
#901 = ORIENTED_EDGE('',*,*,#795,.T.);
#902 = ORIENTED_EDGE('',*,*,#879,.T.);
#903 = ORIENTED_EDGE('',*,*,#904,.T.);
#904 = EDGE_CURVE('',#880,#880,#905,.T.);
#905 = SURFACE_CURVE('',#906,(#911,#918),.PCURVE_S1.);
#906 = CIRCLE('',#907,10.);
#907 = AXIS2_PLACEMENT_3D('',#908,#909,#910);
#908 = CARTESIAN_POINT('',(0.,0.,55.));
#909 = DIRECTION('',(0.,0.,1.));
#910 = DIRECTION('',(1.,0.,0.));
#911 = PCURVE('',#810,#912);
#912 = DEFINITIONAL_REPRESENTATION('',(#913),#917);
#913 = LINE('',#914,#915);
#914 = CARTESIAN_POINT('',(-0.,-55.));
#915 = VECTOR('',#916,1.);
#916 = DIRECTION('',(-1.,0.));
#917 = ( GEOMETRIC_REPRESENTATION_CONTEXT(2) 
PARAMETRIC_REPRESENTATION_CONTEXT() REPRESENTATION_CONTEXT('2D SPACE',''
  ) );
#918 = PCURVE('',#919,#924);
#919 = PLANE('',#920);
#920 = AXIS2_PLACEMENT_3D('',#921,#922,#923);
#921 = CARTESIAN_POINT('',(-5.469760530158E-16,6.857365063158E-16,55.));
#922 = DIRECTION('',(0.,0.,1.));
#923 = DIRECTION('',(1.,0.,-0.));
#924 = DEFINITIONAL_REPRESENTATION('',(#925),#929);
#925 = CIRCLE('',#926,10.);
#926 = AXIS2_PLACEMENT_2D('',#927,#928);
#927 = CARTESIAN_POINT('',(5.469760530158E-16,-6.857365063158E-16));
#928 = DIRECTION('',(1.,0.));
#929 = ( GEOMETRIC_REPRESENTATION_CONTEXT(2) 
PARAMETRIC_REPRESENTATION_CONTEXT() REPRESENTATION_CONTEXT('2D SPACE',''
  ) );
#930 = ADVANCED_FACE('',(#931,#934),#864,.F.);
#931 = FACE_BOUND('',#932,.F.);
#932 = EDGE_LOOP('',(#933));
#933 = ORIENTED_EDGE('',*,*,#849,.T.);
#934 = FACE_BOUND('',#935,.F.);
#935 = EDGE_LOOP('',(#936));
#936 = ORIENTED_EDGE('',*,*,#937,.T.);
#937 = EDGE_CURVE('',#938,#938,#940,.T.);
#938 = VERTEX_POINT('',#939);
#939 = CARTESIAN_POINT('',(3.,0.,-3.));
#940 = SURFACE_CURVE('',#941,(#946,#957),.PCURVE_S1.);
#941 = CIRCLE('',#942,3.);
#942 = AXIS2_PLACEMENT_3D('',#943,#944,#945);
#943 = CARTESIAN_POINT('',(0.,0.,-3.));
#944 = DIRECTION('',(0.,0.,-1.));
#945 = DIRECTION('',(1.,0.,0.));
#946 = PCURVE('',#864,#947);
#947 = DEFINITIONAL_REPRESENTATION('',(#948),#956);
#948 = ( BOUNDED_CURVE() B_SPLINE_CURVE(2,(#949,#950,#951,#952,#953,#954
,#955),.UNSPECIFIED.,.T.,.F.) B_SPLINE_CURVE_WITH_KNOTS((1,2,2,2,2,1),(
    -2.094395102393,0.,2.094395102393,4.188790204786,6.28318530718,
8.377580409573),.UNSPECIFIED.) CURVE() GEOMETRIC_REPRESENTATION_ITEM() 
RATIONAL_B_SPLINE_CURVE((1.,0.5,1.,0.5,1.,0.5,1.)) REPRESENTATION_ITEM(
  '') );
#949 = CARTESIAN_POINT('',(3.,-2.108840176837E-16));
#950 = CARTESIAN_POINT('',(3.,-5.196152422707));
#951 = CARTESIAN_POINT('',(-1.5,-2.598076211353));
#952 = CARTESIAN_POINT('',(-6.,-9.456720971721E-16));
#953 = CARTESIAN_POINT('',(-1.5,2.598076211353));
#954 = CARTESIAN_POINT('',(3.,5.196152422707));
#955 = CARTESIAN_POINT('',(3.,-2.108840176837E-16));
#956 = ( GEOMETRIC_REPRESENTATION_CONTEXT(2) 
PARAMETRIC_REPRESENTATION_CONTEXT() REPRESENTATION_CONTEXT('2D SPACE',''
  ) );
#957 = PCURVE('',#958,#963);
#958 = CYLINDRICAL_SURFACE('',#959,3.);
#959 = AXIS2_PLACEMENT_3D('',#960,#961,#962);
#960 = CARTESIAN_POINT('',(0.,0.,-4.));
#961 = DIRECTION('',(-0.,-0.,-1.));
#962 = DIRECTION('',(1.,0.,0.));
#963 = DEFINITIONAL_REPRESENTATION('',(#964),#968);
#964 = LINE('',#965,#966);
#965 = CARTESIAN_POINT('',(-6.28318530718,-1.));
#966 = VECTOR('',#967,1.);
#967 = DIRECTION('',(1.,-0.));
#968 = ( GEOMETRIC_REPRESENTATION_CONTEXT(2) 
PARAMETRIC_REPRESENTATION_CONTEXT() REPRESENTATION_CONTEXT('2D SPACE',''
  ) );
#969 = ADVANCED_FACE('',(#970,#973),#919,.T.);
#970 = FACE_BOUND('',#971,.T.);
#971 = EDGE_LOOP('',(#972));
#972 = ORIENTED_EDGE('',*,*,#904,.T.);
#973 = FACE_BOUND('',#974,.T.);
#974 = EDGE_LOOP('',(#975));
#975 = ORIENTED_EDGE('',*,*,#976,.T.);
#976 = EDGE_CURVE('',#977,#977,#979,.T.);
#977 = VERTEX_POINT('',#978);
#978 = CARTESIAN_POINT('',(6.,0.,55.));
#979 = SURFACE_CURVE('',#980,(#985,#996),.PCURVE_S1.);
#980 = CIRCLE('',#981,6.);
#981 = AXIS2_PLACEMENT_3D('',#982,#983,#984);
#982 = CARTESIAN_POINT('',(0.,0.,55.));
#983 = DIRECTION('',(0.,0.,-1.));
#984 = DIRECTION('',(1.,0.,0.));
#985 = PCURVE('',#919,#986);
#986 = DEFINITIONAL_REPRESENTATION('',(#987),#995);
#987 = ( BOUNDED_CURVE() B_SPLINE_CURVE(2,(#988,#989,#990,#991,#992,#993
,#994),.UNSPECIFIED.,.T.,.F.) B_SPLINE_CURVE_WITH_KNOTS((1,2,2,2,2,1),(
    -2.094395102393,0.,2.094395102393,4.188790204786,6.28318530718,
8.377580409573),.UNSPECIFIED.) CURVE() GEOMETRIC_REPRESENTATION_ITEM() 
RATIONAL_B_SPLINE_CURVE((1.,0.5,1.,0.5,1.,0.5,1.)) REPRESENTATION_ITEM(
  '') );
#988 = CARTESIAN_POINT('',(6.,-6.857365063158E-16));
#989 = CARTESIAN_POINT('',(6.,-10.39230484541));
#990 = CARTESIAN_POINT('',(-3.,-5.196152422707));
#991 = CARTESIAN_POINT('',(-12.,-2.155312665293E-15));
#992 = CARTESIAN_POINT('',(-3.,5.196152422707));
#993 = CARTESIAN_POINT('',(6.,10.392304845413));
#994 = CARTESIAN_POINT('',(6.,-6.857365063158E-16));
#995 = ( GEOMETRIC_REPRESENTATION_CONTEXT(2) 
PARAMETRIC_REPRESENTATION_CONTEXT() REPRESENTATION_CONTEXT('2D SPACE',''
  ) );
#996 = PCURVE('',#997,#1002);
#997 = CYLINDRICAL_SURFACE('',#998,6.);
#998 = AXIS2_PLACEMENT_3D('',#999,#1000,#1001);
#999 = CARTESIAN_POINT('',(0.,0.,17.));
#1000 = DIRECTION('',(-0.,-0.,-1.));
#1001 = DIRECTION('',(1.,0.,0.));
#1002 = DEFINITIONAL_REPRESENTATION('',(#1003),#1007);
#1003 = LINE('',#1004,#1005);
#1004 = CARTESIAN_POINT('',(-6.28318530718,-38.));
#1005 = VECTOR('',#1006,1.);
#1006 = DIRECTION('',(1.,-0.));
#1007 = ( GEOMETRIC_REPRESENTATION_CONTEXT(2) 
PARAMETRIC_REPRESENTATION_CONTEXT() REPRESENTATION_CONTEXT('2D SPACE',''
  ) );
#1008 = ADVANCED_FACE('',(#1009),#958,.F.);
#1009 = FACE_BOUND('',#1010,.T.);
#1010 = EDGE_LOOP('',(#1011,#1012,#1035,#1062));
#1011 = ORIENTED_EDGE('',*,*,#937,.T.);
#1012 = ORIENTED_EDGE('',*,*,#1013,.T.);
#1013 = EDGE_CURVE('',#938,#1014,#1016,.T.);
#1014 = VERTEX_POINT('',#1015);
#1015 = CARTESIAN_POINT('',(3.,0.,17.));
#1016 = SEAM_CURVE('',#1017,(#1021,#1028),.PCURVE_S1.);
#1017 = LINE('',#1018,#1019);
#1018 = CARTESIAN_POINT('',(3.,0.,-3.));
#1019 = VECTOR('',#1020,1.);
#1020 = DIRECTION('',(0.,0.,1.));
#1021 = PCURVE('',#958,#1022);
#1022 = DEFINITIONAL_REPRESENTATION('',(#1023),#1027);
#1023 = LINE('',#1024,#1025);
#1024 = CARTESIAN_POINT('',(-0.,-1.));
#1025 = VECTOR('',#1026,1.);
#1026 = DIRECTION('',(-0.,-1.));
#1027 = ( GEOMETRIC_REPRESENTATION_CONTEXT(2) 
PARAMETRIC_REPRESENTATION_CONTEXT() REPRESENTATION_CONTEXT('2D SPACE',''
  ) );
#1028 = PCURVE('',#958,#1029);
#1029 = DEFINITIONAL_REPRESENTATION('',(#1030),#1034);
#1030 = LINE('',#1031,#1032);
#1031 = CARTESIAN_POINT('',(-6.28318530718,-1.));
#1032 = VECTOR('',#1033,1.);
#1033 = DIRECTION('',(-0.,-1.));
#1034 = ( GEOMETRIC_REPRESENTATION_CONTEXT(2) 
PARAMETRIC_REPRESENTATION_CONTEXT() REPRESENTATION_CONTEXT('2D SPACE',''
  ) );
#1035 = ORIENTED_EDGE('',*,*,#1036,.T.);
#1036 = EDGE_CURVE('',#1014,#1014,#1037,.T.);
#1037 = SURFACE_CURVE('',#1038,(#1043,#1050),.PCURVE_S1.);
#1038 = CIRCLE('',#1039,3.);
#1039 = AXIS2_PLACEMENT_3D('',#1040,#1041,#1042);
#1040 = CARTESIAN_POINT('',(0.,0.,17.));
#1041 = DIRECTION('',(0.,0.,1.));
#1042 = DIRECTION('',(1.,0.,0.));
#1043 = PCURVE('',#958,#1044);
#1044 = DEFINITIONAL_REPRESENTATION('',(#1045),#1049);
#1045 = LINE('',#1046,#1047);
#1046 = CARTESIAN_POINT('',(-0.,-21.));
#1047 = VECTOR('',#1048,1.);
#1048 = DIRECTION('',(-1.,0.));
#1049 = ( GEOMETRIC_REPRESENTATION_CONTEXT(2) 
PARAMETRIC_REPRESENTATION_CONTEXT() REPRESENTATION_CONTEXT('2D SPACE',''
  ) );
#1050 = PCURVE('',#1051,#1056);
#1051 = PLANE('',#1052);
#1052 = AXIS2_PLACEMENT_3D('',#1053,#1054,#1055);
#1053 = CARTESIAN_POINT('',(-3.418600331349E-16,2.108840176837E-16,17.)
  );
#1054 = DIRECTION('',(0.,0.,1.));
#1055 = DIRECTION('',(1.,0.,-0.));
#1056 = DEFINITIONAL_REPRESENTATION('',(#1057),#1061);
#1057 = CIRCLE('',#1058,3.);
#1058 = AXIS2_PLACEMENT_2D('',#1059,#1060);
#1059 = CARTESIAN_POINT('',(3.418600331349E-16,-2.108840176837E-16));
#1060 = DIRECTION('',(1.,0.));
#1061 = ( GEOMETRIC_REPRESENTATION_CONTEXT(2) 
PARAMETRIC_REPRESENTATION_CONTEXT() REPRESENTATION_CONTEXT('2D SPACE',''
  ) );
#1062 = ORIENTED_EDGE('',*,*,#1013,.F.);
#1063 = ADVANCED_FACE('',(#1064),#997,.F.);
#1064 = FACE_BOUND('',#1065,.T.);
#1065 = EDGE_LOOP('',(#1066,#1090,#1111,#1112));
#1066 = ORIENTED_EDGE('',*,*,#1067,.F.);
#1067 = EDGE_CURVE('',#1068,#1068,#1070,.T.);
#1068 = VERTEX_POINT('',#1069);
#1069 = CARTESIAN_POINT('',(6.,0.,17.));
#1070 = SURFACE_CURVE('',#1071,(#1076,#1083),.PCURVE_S1.);
#1071 = CIRCLE('',#1072,6.);
#1072 = AXIS2_PLACEMENT_3D('',#1073,#1074,#1075);
#1073 = CARTESIAN_POINT('',(0.,0.,17.));
#1074 = DIRECTION('',(0.,0.,1.));
#1075 = DIRECTION('',(1.,0.,0.));
#1076 = PCURVE('',#997,#1077);
#1077 = DEFINITIONAL_REPRESENTATION('',(#1078),#1082);
#1078 = LINE('',#1079,#1080);
#1079 = CARTESIAN_POINT('',(-0.,0.));
#1080 = VECTOR('',#1081,1.);
#1081 = DIRECTION('',(-1.,0.));
#1082 = ( GEOMETRIC_REPRESENTATION_CONTEXT(2) 
PARAMETRIC_REPRESENTATION_CONTEXT() REPRESENTATION_CONTEXT('2D SPACE',''
  ) );
#1083 = PCURVE('',#1051,#1084);
#1084 = DEFINITIONAL_REPRESENTATION('',(#1085),#1089);
#1085 = CIRCLE('',#1086,6.);
#1086 = AXIS2_PLACEMENT_2D('',#1087,#1088);
#1087 = CARTESIAN_POINT('',(3.418600331349E-16,-2.108840176837E-16));
#1088 = DIRECTION('',(1.,0.));
#1089 = ( GEOMETRIC_REPRESENTATION_CONTEXT(2) 
PARAMETRIC_REPRESENTATION_CONTEXT() REPRESENTATION_CONTEXT('2D SPACE',''
  ) );
#1090 = ORIENTED_EDGE('',*,*,#1091,.T.);
#1091 = EDGE_CURVE('',#1068,#977,#1092,.T.);
#1092 = SEAM_CURVE('',#1093,(#1097,#1104),.PCURVE_S1.);
#1093 = LINE('',#1094,#1095);
#1094 = CARTESIAN_POINT('',(6.,0.,17.));
#1095 = VECTOR('',#1096,1.);
#1096 = DIRECTION('',(0.,0.,1.));
#1097 = PCURVE('',#997,#1098);
#1098 = DEFINITIONAL_REPRESENTATION('',(#1099),#1103);
#1099 = LINE('',#1100,#1101);
#1100 = CARTESIAN_POINT('',(-6.28318530718,0.));
#1101 = VECTOR('',#1102,1.);
#1102 = DIRECTION('',(-0.,-1.));
#1103 = ( GEOMETRIC_REPRESENTATION_CONTEXT(2) 
PARAMETRIC_REPRESENTATION_CONTEXT() REPRESENTATION_CONTEXT('2D SPACE',''
  ) );
#1104 = PCURVE('',#997,#1105);
#1105 = DEFINITIONAL_REPRESENTATION('',(#1106),#1110);
#1106 = LINE('',#1107,#1108);
#1107 = CARTESIAN_POINT('',(-0.,0.));
#1108 = VECTOR('',#1109,1.);
#1109 = DIRECTION('',(-0.,-1.));
#1110 = ( GEOMETRIC_REPRESENTATION_CONTEXT(2) 
PARAMETRIC_REPRESENTATION_CONTEXT() REPRESENTATION_CONTEXT('2D SPACE',''
  ) );
#1111 = ORIENTED_EDGE('',*,*,#976,.F.);
#1112 = ORIENTED_EDGE('',*,*,#1091,.F.);
#1113 = ADVANCED_FACE('',(#1114,#1117),#1051,.T.);
#1114 = FACE_BOUND('',#1115,.T.);
#1115 = EDGE_LOOP('',(#1116));
#1116 = ORIENTED_EDGE('',*,*,#1067,.T.);
#1117 = FACE_BOUND('',#1118,.T.);
#1118 = EDGE_LOOP('',(#1119));
#1119 = ORIENTED_EDGE('',*,*,#1036,.F.);
#1120 = ( GEOMETRIC_REPRESENTATION_CONTEXT(3) 
GLOBAL_UNCERTAINTY_ASSIGNED_CONTEXT((#1124)) 
GLOBAL_UNIT_ASSIGNED_CONTEXT((#1121,#1122,#1123)) REPRESENTATION_CONTEXT
('Context #1','3D Context with UNIT and UNCERTAINTY') );
#1121 = ( LENGTH_UNIT() NAMED_UNIT(*) SI_UNIT(.MILLI.,.METRE.) );
#1122 = ( NAMED_UNIT(*) PLANE_ANGLE_UNIT() SI_UNIT($,.RADIAN.) );
#1123 = ( NAMED_UNIT(*) SI_UNIT($,.STERADIAN.) SOLID_ANGLE_UNIT() );
#1124 = UNCERTAINTY_MEASURE_WITH_UNIT(LENGTH_MEASURE(2.E-06),#1121,
  'distance_accuracy_value','confusion accuracy');
#1125 = PRODUCT_RELATED_PRODUCT_CATEGORY('part',$,(#7));
ENDSEC;
END-ISO-10303-21;
