ISO-10303-21;
HEADER;
FILE_DESCRIPTION(('Open CASCADE Model'),'2;1');
FILE_NAME('Open CASCADE Shape Model','2026-07-24T20:47:53',('Author'),(
    'Open CASCADE'),'Open CASCADE STEP processor 7.9','Open CASCADE 7.9'
  ,'Unknown');
FILE_SCHEMA(('AUTOMOTIVE_DESIGN { 1 0 10303 214 1 1 1 1 }'));
ENDSEC;
DATA;
#1 = APPLICATION_PROTOCOL_DEFINITION('international standard',
  'automotive_design',2000,#2);
#2 = APPLICATION_CONTEXT(
  'core data for automotive mechanical design processes');
#3 = SHAPE_DEFINITION_REPRESENTATION(#4,#10);
#4 = PRODUCT_DEFINITION_SHAPE('','',#5);
#5 = PRODUCT_DEFINITION('design','',#6,#9);
#6 = PRODUCT_DEFINITION_FORMATION('','',#7);
#7 = PRODUCT('Open CASCADE STEP translator 7.9 3',
  'Open CASCADE STEP translator 7.9 3','',(#8));
#8 = PRODUCT_CONTEXT('',#2,'mechanical');
#9 = PRODUCT_DEFINITION_CONTEXT('part definition',#2,'design');
#10 = ADVANCED_BREP_SHAPE_REPRESENTATION('',(#11,#15),#957);
#11 = AXIS2_PLACEMENT_3D('',#12,#13,#14);
#12 = CARTESIAN_POINT('',(0.,0.,0.));
#13 = DIRECTION('',(0.,0.,1.));
#14 = DIRECTION('',(1.,0.,-0.));
#15 = MANIFOLD_SOLID_BREP('',#16);
#16 = CLOSED_SHELL('',(#17,#184,#238,#340,#395,#526,#580,#658,#697,#752,
    #806,#841,#896,#950));
#17 = ADVANCED_FACE('',(#18,#54),#31,.F.);
#18 = FACE_BOUND('',#19,.F.);
#19 = EDGE_LOOP('',(#20));
#20 = ORIENTED_EDGE('',*,*,#21,.T.);
#21 = EDGE_CURVE('',#22,#22,#24,.T.);
#22 = VERTEX_POINT('',#23);
#23 = CARTESIAN_POINT('',(24.2,0.,0.));
#24 = SURFACE_CURVE('',#25,(#30,#42),.PCURVE_S1.);
#25 = CIRCLE('',#26,24.2);
#26 = AXIS2_PLACEMENT_3D('',#27,#28,#29);
#27 = CARTESIAN_POINT('',(0.,0.,0.));
#28 = DIRECTION('',(0.,0.,1.));
#29 = DIRECTION('',(1.,0.,-0.));
#30 = PCURVE('',#31,#36);
#31 = PLANE('',#32);
#32 = AXIS2_PLACEMENT_3D('',#33,#34,#35);
#33 = CARTESIAN_POINT('',(-5.469760530158E-16,6.857365063158E-16,0.));
#34 = DIRECTION('',(0.,0.,1.));
#35 = DIRECTION('',(1.,0.,-0.));
#36 = DEFINITIONAL_REPRESENTATION('',(#37),#41);
#37 = CIRCLE('',#38,24.2);
#38 = AXIS2_PLACEMENT_2D('',#39,#40);
#39 = CARTESIAN_POINT('',(5.469760530158E-16,-6.857365063158E-16));
#40 = DIRECTION('',(1.,0.));
#41 = ( GEOMETRIC_REPRESENTATION_CONTEXT(2) 
PARAMETRIC_REPRESENTATION_CONTEXT() REPRESENTATION_CONTEXT('2D SPACE',''
  ) );
#42 = PCURVE('',#43,#48);
#43 = TOROIDAL_SURFACE('',#44,24.2,0.8);
#44 = AXIS2_PLACEMENT_3D('',#45,#46,#47);
#45 = CARTESIAN_POINT('',(0.,0.,0.8));
#46 = DIRECTION('',(0.,0.,1.));
#47 = DIRECTION('',(1.,0.,-0.));
#48 = DEFINITIONAL_REPRESENTATION('',(#49),#53);
#49 = LINE('',#50,#51);
#50 = CARTESIAN_POINT('',(0.,4.712388980385));
#51 = VECTOR('',#52,1.);
#52 = DIRECTION('',(1.,0.));
#53 = ( GEOMETRIC_REPRESENTATION_CONTEXT(2) 
PARAMETRIC_REPRESENTATION_CONTEXT() REPRESENTATION_CONTEXT('2D SPACE',''
  ) );
#54 = FACE_BOUND('',#55,.F.);
#55 = EDGE_LOOP('',(#56));
#56 = ORIENTED_EDGE('',*,*,#57,.F.);
#57 = EDGE_CURVE('',#58,#58,#60,.T.);
#58 = VERTEX_POINT('',#59);
#59 = CARTESIAN_POINT('',(23.138712150852,0.,0.));
#60 = SURFACE_CURVE('',#61,(#84,#110),.PCURVE_S1.);
#61 = ( BOUNDED_CURVE() B_SPLINE_CURVE(11,(#62,#63,#64,#65,#66,#67,#68,
    #69,#70,#71,#72,#73,#74,#75,#76,#77,#78,#79,#80,#81,#82,#83),
.UNSPECIFIED.,.T.,.F.) B_SPLINE_CURVE_WITH_KNOTS((12,10,12),(
    3.683225919281E-15,72.256631032565,144.51326206513),.UNSPECIFIED.) 
CURVE() GEOMETRIC_REPRESENTATION_ITEM() RATIONAL_B_SPLINE_CURVE((1.,1.,
    1.,1.000000000001,0.999999999999,1.000000000001,0.999999999999,
    1.000000000001,1.,1.,1.,1.,1.,1.,1.,1.,1.,1.,1.,1.,1.,1.)) 
REPRESENTATION_ITEM('') );
#62 = CARTESIAN_POINT('',(23.138712150852,0.,0.));
#63 = CARTESIAN_POINT('',(23.138712150851,6.512805570965,
    1.249000902703E-16));
#64 = CARTESIAN_POINT('',(21.122207216292,13.114628563539,
    -6.314393452556E-16));
#65 = CARTESIAN_POINT('',(16.997800831263,19.062298331082,
    1.734723475977E-15));
#66 = CARTESIAN_POINT('',(11.01440385214,23.557379108292,
    -3.105155021998E-15));
#67 = CARTESIAN_POINT('',(3.799720416233,25.93384135776,
    3.753941602014E-15));
#68 = CARTESIAN_POINT('',(-3.797435726456,25.923392433587,
    -3.101685575047E-15));
#69 = CARTESIAN_POINT('',(-10.96811211115,23.535460169261,
    1.693090112553E-15));
#70 = CARTESIAN_POINT('',(-16.91005876111,19.100300224433,
    -4.718447854657E-16));
#71 = CARTESIAN_POINT('',(-21.06267846694,13.216835973524,
    -6.591949208712E-17));
#72 = CARTESIAN_POINT('',(-23.13871215085,6.608400736968,
    9.367506770275E-17));
#73 = CARTESIAN_POINT('',(-23.13871215085,-6.608400736968,
    -1.52655665886E-16));
#74 = CARTESIAN_POINT('',(-21.06267846695,-13.21683597352,
    6.800116025829E-16));
#75 = CARTESIAN_POINT('',(-16.9100587611,-19.10030022443,
    -1.373900992974E-15));
#76 = CARTESIAN_POINT('',(-10.96811211118,-23.53546016926,
    1.439820485061E-15));
#77 = CARTESIAN_POINT('',(-3.797435726429,-25.92339243357,
    -2.602085213965E-16));
#78 = CARTESIAN_POINT('',(3.799720416214,-25.93384135777,
    -1.533495552763E-15));
#79 = CARTESIAN_POINT('',(11.014403852146,-23.55737910828,
    2.567390744446E-15));
#80 = CARTESIAN_POINT('',(16.997800831264,-19.06229833108,
    -2.189221026683E-15));
#81 = CARTESIAN_POINT('',(21.122207216289,-13.11462856354,
    1.096345236817E-15));
#82 = CARTESIAN_POINT('',(23.138712150852,-6.512805570965,
    -2.98372437868E-16));
#83 = CARTESIAN_POINT('',(23.138712150852,0.,0.));
#84 = PCURVE('',#31,#85);
#85 = DEFINITIONAL_REPRESENTATION('',(#86),#109);
#86 = B_SPLINE_CURVE_WITH_KNOTS('',11,(#87,#88,#89,#90,#91,#92,#93,#94,
    #95,#96,#97,#98,#99,#100,#101,#102,#103,#104,#105,#106,#107,#108),
  .UNSPECIFIED.,.F.,.F.,(12,10,12),(3.683225919281E-15,72.256631032565,
    144.51326206513),.UNSPECIFIED.);
#87 = CARTESIAN_POINT('',(23.138712150852,0.));
#88 = CARTESIAN_POINT('',(23.138712150853,6.512805570967));
#89 = CARTESIAN_POINT('',(21.122207216285,13.114628563533));
#90 = CARTESIAN_POINT('',(16.997800831275,19.062298331102));
#91 = CARTESIAN_POINT('',(11.014403852127,23.557379108253));
#92 = CARTESIAN_POINT('',(3.799720416239,25.933841357811));
#93 = CARTESIAN_POINT('',(-3.797435726452,25.923392433539));
#94 = CARTESIAN_POINT('',(-10.96811211116,23.535460169293));
#95 = CARTESIAN_POINT('',(-16.91005876111,19.100300224418));
#96 = CARTESIAN_POINT('',(-21.06267846695,13.216835973529));
#97 = CARTESIAN_POINT('',(-23.13871215085,6.608400736968));
#98 = CARTESIAN_POINT('',(-23.13871215085,-6.608400736968));
#99 = CARTESIAN_POINT('',(-21.06267846695,-13.21683597352));
#100 = CARTESIAN_POINT('',(-16.9100587611,-19.10030022443));
#101 = CARTESIAN_POINT('',(-10.96811211118,-23.53546016927));
#102 = CARTESIAN_POINT('',(-3.797435726432,-25.92339243357));
#103 = CARTESIAN_POINT('',(3.799720416218,-25.93384135777));
#104 = CARTESIAN_POINT('',(11.014403852143,-23.55737910827));
#105 = CARTESIAN_POINT('',(16.997800831266,-19.06229833108));
#106 = CARTESIAN_POINT('',(21.122207216288,-13.11462856353));
#107 = CARTESIAN_POINT('',(23.138712150853,-6.512805570965));
#108 = CARTESIAN_POINT('',(23.138712150852,1.06581410364E-14));
#109 = ( GEOMETRIC_REPRESENTATION_CONTEXT(2) 
PARAMETRIC_REPRESENTATION_CONTEXT() REPRESENTATION_CONTEXT('2D SPACE',''
  ) );
#110 = PCURVE('',#111,#178);
#111 = ( BOUNDED_SURFACE() B_SPLINE_SURFACE(2,11,(
    (#112,#113,#114,#115,#116,#117,#118,#119,#120,#121,#122,#123,#124
      ,#125,#126,#127,#128,#129,#130,#131,#132,#133)
    ,(#134,#135,#136,#137,#138,#139,#140,#141,#142,#143,#144,#145,#146
      ,#147,#148,#149,#150,#151,#152,#153,#154,#155)
    ,(#156,#157,#158,#159,#160,#161,#162,#163,#164,#165,#166,#167,#168
      ,#169,#170,#171,#172,#173,#174,#175,#176,#177
)),.UNSPECIFIED.,.F.,.T.,.F.) B_SPLINE_SURFACE_WITH_KNOTS((3,3),(12,10,
    12),(0.,144.51326206513),(3.683225919281E-15,72.256631032565,
144.51326206513),.UNSPECIFIED.) GEOMETRIC_REPRESENTATION_ITEM() 
RATIONAL_B_SPLINE_SURFACE((
    (1.,1.,1.,1.000000000001,0.999999999999,1.000000000001
      ,0.999999999999,1.000000000001,1.,1.,1.,1.,1.,1.,1.,1.,1.,1.,1.,1.
      ,1.,1.)
    ,(0.985384672341,0.985384672341,0.985384672341,0.985384672342
      ,0.98538467234,0.985384672342,0.98538467234,0.985384672341
      ,0.985384672341,0.985384672341,0.985384672341,0.985384672341
      ,0.985384672341,0.985384672341,0.985384672341,0.985384672341
      ,0.985384672341,0.985384672341,0.985384672341,0.985384672341
      ,0.985384672341,0.985384672341)
    ,(1.,1.,1.,1.000000000001,0.999999999999,1.000000000001
      ,0.999999999999,1.000000000001,1.,1.,1.,1.,1.,1.,1.,1.,1.,1.,1.,1.
,1.,1.))) REPRESENTATION_ITEM('') SURFACE() );
#112 = CARTESIAN_POINT('',(23.138712150852,0.,0.));
#113 = CARTESIAN_POINT('',(23.138712150851,6.512805570965,
    1.249000902703E-16));
#114 = CARTESIAN_POINT('',(21.122207216292,13.114628563539,
    -6.314393452556E-16));
#115 = CARTESIAN_POINT('',(16.997800831263,19.062298331082,
    1.734723475977E-15));
#116 = CARTESIAN_POINT('',(11.01440385214,23.557379108292,
    -3.105155021998E-15));
#117 = CARTESIAN_POINT('',(3.799720416233,25.93384135776,
    3.753941602014E-15));
#118 = CARTESIAN_POINT('',(-3.797435726456,25.923392433587,
    -3.101685575047E-15));
#119 = CARTESIAN_POINT('',(-10.96811211115,23.535460169261,
    1.693090112553E-15));
#120 = CARTESIAN_POINT('',(-16.91005876111,19.100300224433,
    -4.718447854657E-16));
#121 = CARTESIAN_POINT('',(-21.06267846694,13.216835973524,
    -6.591949208712E-17));
#122 = CARTESIAN_POINT('',(-23.13871215085,6.608400736968,
    9.367506770275E-17));
#123 = CARTESIAN_POINT('',(-23.13871215085,-6.608400736968,
    -1.52655665886E-16));
#124 = CARTESIAN_POINT('',(-21.06267846695,-13.21683597352,
    6.800116025829E-16));
#125 = CARTESIAN_POINT('',(-16.9100587611,-19.10030022443,
    -1.373900992974E-15));
#126 = CARTESIAN_POINT('',(-10.96811211118,-23.53546016926,
    1.439820485061E-15));
#127 = CARTESIAN_POINT('',(-3.797435726429,-25.92339243357,
    -2.602085213965E-16));
#128 = CARTESIAN_POINT('',(3.799720416214,-25.93384135777,
    -1.533495552763E-15));
#129 = CARTESIAN_POINT('',(11.014403852146,-23.55737910828,
    2.567390744446E-15));
#130 = CARTESIAN_POINT('',(16.997800831264,-19.06229833108,
    -2.189221026683E-15));
#131 = CARTESIAN_POINT('',(21.122207216289,-13.11462856354,
    1.096345236817E-15));
#132 = CARTESIAN_POINT('',(23.138712150852,-6.512805570965,
    -2.98372437868E-16));
#133 = CARTESIAN_POINT('',(23.138712150852,0.,0.));
#134 = CARTESIAN_POINT('',(23.000415776398,3.819861094101E-15,
    4.215378046624E-15));
#135 = CARTESIAN_POINT('',(23.000415776398,6.473879575772,
    3.930883396563E-15));
#136 = CARTESIAN_POINT('',(20.995963168677,13.036244530283,
    -1.867603294237E-14));
#137 = CARTESIAN_POINT('',(16.896207699663,18.948366028779,
    3.14401282786E-14));
#138 = CARTESIAN_POINT('',(10.948572525415,23.416580428505,
    1.013390760196E-13));
#139 = CARTESIAN_POINT('',(3.777010096228,25.778838943996,
    -3.313252450177E-13));
#140 = CARTESIAN_POINT('',(-3.774739061672,25.76845247131,
    3.710851070871E-13));
#141 = CARTESIAN_POINT('',(-10.90255746275,23.394792495503,
    -2.099084794871E-13));
#142 = CARTESIAN_POINT('',(-16.8089900498,18.986140790881,
    6.67660371434E-14));
#143 = CARTESIAN_POINT('',(-20.93679021313,13.137841062965,
    -3.573530360512E-16));
#144 = CARTESIAN_POINT('',(-23.00041577639,6.568903384786,
    -2.831068712794E-15));
#145 = CARTESIAN_POINT('',(-23.00041577639,-6.568903384786,
    -3.309852392164E-15));
#146 = CARTESIAN_POINT('',(-20.93679021313,-13.13784106296,
    -1.805153249101E-14));
#147 = CARTESIAN_POINT('',(-16.80899004979,-18.98614079089,
    1.533356774885E-13));
#148 = CARTESIAN_POINT('',(-10.90255746277,-23.39479249548,
    -3.740688314657E-13));
#149 = CARTESIAN_POINT('',(-3.77473906165,-25.76845247133,
    4.971578704271E-13));
#150 = CARTESIAN_POINT('',(3.77701009621,-25.77883894397,
    -3.805115944555E-13));
#151 = CARTESIAN_POINT('',(10.948572525422,-23.41658042851,
    1.536791527368E-13));
#152 = CARTESIAN_POINT('',(16.896207699662,-18.94836602876,
    5.495603971895E-15));
#153 = CARTESIAN_POINT('',(20.995963168676,-13.03624453028,
    -1.858929676857E-14));
#154 = CARTESIAN_POINT('',(23.000415776398,-6.47387957577,
    3.795574965437E-15));
#155 = CARTESIAN_POINT('',(23.000415776398,7.421147030229E-15,
    4.211908599672E-15));
#156 = CARTESIAN_POINT('',(22.870145306882,0.,4.642727602467E-02));
#157 = CARTESIAN_POINT('',(22.870145306881,6.437212615481,
    4.642727602467E-02));
#158 = CARTESIAN_POINT('',(20.877045580122,12.962409443469,
    4.642727602462E-02));
#159 = CARTESIAN_POINT('',(16.800510433511,18.841045684513,
    4.642727602476E-02));
#160 = CARTESIAN_POINT('',(10.886561660168,23.28395287272,
    4.642727602479E-02));
#161 = CARTESIAN_POINT('',(3.755617749087,25.632831954988,
    4.642727602413E-02));
#162 = CARTESIAN_POINT('',(-3.753359577291,25.622504309581,
    4.642727602527E-02));
#163 = CARTESIAN_POINT('',(-10.84080721904,23.262288342852,
    4.642727602433E-02));
#164 = CARTESIAN_POINT('',(-16.71378676969,18.878606496763,
    4.642727602477E-02));
#165 = CARTESIAN_POINT('',(-20.81820777019,13.063430550546,
    4.642727602467E-02));
#166 = CARTESIAN_POINT('',(-22.87014530688,6.531698225694,
    4.642727602466E-02));
#167 = CARTESIAN_POINT('',(-22.87014530688,-6.531698225694,
    4.642727602466E-02));
#168 = CARTESIAN_POINT('',(-20.8182077702,-13.06343055054,
    4.642727602463E-02));
#169 = CARTESIAN_POINT('',(-16.71378676968,-18.87860649675,
    4.642727602495E-02));
#170 = CARTESIAN_POINT('',(-10.84080721906,-23.26228834286,
    4.642727602399E-02));
#171 = CARTESIAN_POINT('',(-3.753359577269,-25.62250430955,
    4.642727602555E-02));
#172 = CARTESIAN_POINT('',(3.755617749075,-25.63283195501,
    4.642727602401E-02));
#173 = CARTESIAN_POINT('',(10.886561660168,-23.28395287269,
    4.642727602491E-02));
#174 = CARTESIAN_POINT('',(16.800510433516,-18.84104568452,
    4.64272760247E-02));
#175 = CARTESIAN_POINT('',(20.877045580117,-12.96240944346,
    4.642727602462E-02));
#176 = CARTESIAN_POINT('',(22.870145306882,-6.437212615481,
    4.642727602467E-02));
#177 = CARTESIAN_POINT('',(22.870145306882,-5.601570049221E-15,
    4.642727602467E-02));
#178 = DEFINITIONAL_REPRESENTATION('',(#179),#183);
#179 = LINE('',#180,#181);
#180 = CARTESIAN_POINT('',(0.,0.));
#181 = VECTOR('',#182,1.);
#182 = DIRECTION('',(0.,1.));
#183 = ( GEOMETRIC_REPRESENTATION_CONTEXT(2) 
PARAMETRIC_REPRESENTATION_CONTEXT() REPRESENTATION_CONTEXT('2D SPACE',''
  ) );
#184 = ADVANCED_FACE('',(#185),#43,.T.);
#185 = FACE_BOUND('',#186,.T.);
#186 = EDGE_LOOP('',(#187,#209,#210,#211));
#187 = ORIENTED_EDGE('',*,*,#188,.F.);
#188 = EDGE_CURVE('',#22,#189,#191,.T.);
#189 = VERTEX_POINT('',#190);
#190 = CARTESIAN_POINT('',(25.,0.,0.8));
#191 = SEAM_CURVE('',#192,(#197,#203),.PCURVE_S1.);
#192 = CIRCLE('',#193,0.8);
#193 = AXIS2_PLACEMENT_3D('',#194,#195,#196);
#194 = CARTESIAN_POINT('',(24.2,0.,0.8));
#195 = DIRECTION('',(0.,-1.,0.));
#196 = DIRECTION('',(1.,0.,0.));
#197 = PCURVE('',#43,#198);
#198 = DEFINITIONAL_REPRESENTATION('',(#199),#202);
#199 = B_SPLINE_CURVE_WITH_KNOTS('',1,(#200,#201),.UNSPECIFIED.,.F.,.F.,
  (2,2),(4.712388980385,6.28318530718),.PIECEWISE_BEZIER_KNOTS.);
#200 = CARTESIAN_POINT('',(0.,4.712388980385));
#201 = CARTESIAN_POINT('',(0.,6.28318530718));
#202 = ( GEOMETRIC_REPRESENTATION_CONTEXT(2) 
PARAMETRIC_REPRESENTATION_CONTEXT() REPRESENTATION_CONTEXT('2D SPACE',''
  ) );
#203 = PCURVE('',#43,#204);
#204 = DEFINITIONAL_REPRESENTATION('',(#205),#208);
#205 = B_SPLINE_CURVE_WITH_KNOTS('',1,(#206,#207),.UNSPECIFIED.,.F.,.F.,
  (2,2),(4.712388980385,6.28318530718),.PIECEWISE_BEZIER_KNOTS.);
#206 = CARTESIAN_POINT('',(6.28318530718,4.712388980385));
#207 = CARTESIAN_POINT('',(6.28318530718,6.28318530718));
#208 = ( GEOMETRIC_REPRESENTATION_CONTEXT(2) 
PARAMETRIC_REPRESENTATION_CONTEXT() REPRESENTATION_CONTEXT('2D SPACE',''
  ) );
#209 = ORIENTED_EDGE('',*,*,#21,.T.);
#210 = ORIENTED_EDGE('',*,*,#188,.T.);
#211 = ORIENTED_EDGE('',*,*,#212,.F.);
#212 = EDGE_CURVE('',#189,#189,#213,.T.);
#213 = SURFACE_CURVE('',#214,(#219,#226),.PCURVE_S1.);
#214 = CIRCLE('',#215,25.);
#215 = AXIS2_PLACEMENT_3D('',#216,#217,#218);
#216 = CARTESIAN_POINT('',(0.,0.,0.8));
#217 = DIRECTION('',(0.,0.,1.));
#218 = DIRECTION('',(1.,0.,-0.));
#219 = PCURVE('',#43,#220);
#220 = DEFINITIONAL_REPRESENTATION('',(#221),#225);
#221 = LINE('',#222,#223);
#222 = CARTESIAN_POINT('',(0.,6.28318530718));
#223 = VECTOR('',#224,1.);
#224 = DIRECTION('',(1.,0.));
#225 = ( GEOMETRIC_REPRESENTATION_CONTEXT(2) 
PARAMETRIC_REPRESENTATION_CONTEXT() REPRESENTATION_CONTEXT('2D SPACE',''
  ) );
#226 = PCURVE('',#227,#232);
#227 = CYLINDRICAL_SURFACE('',#228,25.);
#228 = AXIS2_PLACEMENT_3D('',#229,#230,#231);
#229 = CARTESIAN_POINT('',(0.,0.,0.));
#230 = DIRECTION('',(-0.,-0.,-1.));
#231 = DIRECTION('',(1.,0.,0.));
#232 = DEFINITIONAL_REPRESENTATION('',(#233),#237);
#233 = LINE('',#234,#235);
#234 = CARTESIAN_POINT('',(-0.,-0.8));
#235 = VECTOR('',#236,1.);
#236 = DIRECTION('',(-1.,0.));
#237 = ( GEOMETRIC_REPRESENTATION_CONTEXT(2) 
PARAMETRIC_REPRESENTATION_CONTEXT() REPRESENTATION_CONTEXT('2D SPACE',''
  ) );
#238 = ADVANCED_FACE('',(#239),#111,.T.);
#239 = FACE_BOUND('',#240,.T.);
#240 = EDGE_LOOP('',(#241,#262,#338,#339));
#241 = ORIENTED_EDGE('',*,*,#242,.T.);
#242 = EDGE_CURVE('',#58,#243,#245,.T.);
#243 = VERTEX_POINT('',#244);
#244 = CARTESIAN_POINT('',(22.870145306882,0.,4.642727602467E-02));
#245 = SEAM_CURVE('',#246,(#250,#256),.PCURVE_S1.);
#246 = ( BOUNDED_CURVE() B_SPLINE_CURVE(2,(#247,#248,#249),
.UNSPECIFIED.,.F.,.F.) B_SPLINE_CURVE_WITH_KNOTS((3,3),(0.,
144.51326206513),.PIECEWISE_BEZIER_KNOTS.) CURVE() 
GEOMETRIC_REPRESENTATION_ITEM() RATIONAL_B_SPLINE_CURVE((1.,
0.985384672341,1.)) REPRESENTATION_ITEM('') );
#247 = CARTESIAN_POINT('',(23.138712150852,0.,0.));
#248 = CARTESIAN_POINT('',(23.000415776398,3.819861094101E-15,
    4.215378046624E-15));
#249 = CARTESIAN_POINT('',(22.870145306882,0.,4.642727602467E-02));
#250 = PCURVE('',#111,#251);
#251 = DEFINITIONAL_REPRESENTATION('',(#252),#255);
#252 = B_SPLINE_CURVE_WITH_KNOTS('',1,(#253,#254),.UNSPECIFIED.,.F.,.F.,
  (2,2),(0.,144.51326206513),.PIECEWISE_BEZIER_KNOTS.);
#253 = CARTESIAN_POINT('',(0.,3.683225919281E-15));
#254 = CARTESIAN_POINT('',(144.51326206513,3.683225919281E-15));
#255 = ( GEOMETRIC_REPRESENTATION_CONTEXT(2) 
PARAMETRIC_REPRESENTATION_CONTEXT() REPRESENTATION_CONTEXT('2D SPACE',''
  ) );
#256 = PCURVE('',#111,#257);
#257 = DEFINITIONAL_REPRESENTATION('',(#258),#261);
#258 = B_SPLINE_CURVE_WITH_KNOTS('',1,(#259,#260),.UNSPECIFIED.,.F.,.F.,
  (2,2),(0.,144.51326206513),.PIECEWISE_BEZIER_KNOTS.);
#259 = CARTESIAN_POINT('',(0.,144.51326206513));
#260 = CARTESIAN_POINT('',(144.51326206513,144.51326206513));
#261 = ( GEOMETRIC_REPRESENTATION_CONTEXT(2) 
PARAMETRIC_REPRESENTATION_CONTEXT() REPRESENTATION_CONTEXT('2D SPACE',''
  ) );
#262 = ORIENTED_EDGE('',*,*,#263,.T.);
#263 = EDGE_CURVE('',#243,#243,#264,.T.);
#264 = SURFACE_CURVE('',#265,(#288,#295),.PCURVE_S1.);
#265 = ( BOUNDED_CURVE() B_SPLINE_CURVE(11,(#266,#267,#268,#269,#270,
    #271,#272,#273,#274,#275,#276,#277,#278,#279,#280,#281,#282,#283,
    #284,#285,#286,#287),.UNSPECIFIED.,.T.,.F.) 
B_SPLINE_CURVE_WITH_KNOTS((12,10,12),(3.683225919281E-15,72.256631032565
,144.51326206513),.UNSPECIFIED.) CURVE() GEOMETRIC_REPRESENTATION_ITEM()
 RATIONAL_B_SPLINE_CURVE((1.,1.,1.,1.000000000001,0.999999999999,
    1.000000000001,0.999999999999,1.000000000001,1.,1.,1.,1.,1.,1.,1.,1.
,1.,1.,1.,1.,1.,1.)) REPRESENTATION_ITEM('') );
#266 = CARTESIAN_POINT('',(22.870145306882,0.,4.642727602467E-02));
#267 = CARTESIAN_POINT('',(22.870145306881,6.437212615481,
    4.642727602467E-02));
#268 = CARTESIAN_POINT('',(20.877045580122,12.962409443469,
    4.642727602462E-02));
#269 = CARTESIAN_POINT('',(16.800510433511,18.841045684513,
    4.642727602476E-02));
#270 = CARTESIAN_POINT('',(10.886561660168,23.28395287272,
    4.642727602479E-02));
#271 = CARTESIAN_POINT('',(3.755617749087,25.632831954988,
    4.642727602413E-02));
#272 = CARTESIAN_POINT('',(-3.753359577291,25.622504309581,
    4.642727602527E-02));
#273 = CARTESIAN_POINT('',(-10.84080721904,23.262288342852,
    4.642727602433E-02));
#274 = CARTESIAN_POINT('',(-16.71378676969,18.878606496763,
    4.642727602477E-02));
#275 = CARTESIAN_POINT('',(-20.81820777019,13.063430550546,
    4.642727602467E-02));
#276 = CARTESIAN_POINT('',(-22.87014530688,6.531698225694,
    4.642727602466E-02));
#277 = CARTESIAN_POINT('',(-22.87014530688,-6.531698225694,
    4.642727602466E-02));
#278 = CARTESIAN_POINT('',(-20.8182077702,-13.06343055054,
    4.642727602463E-02));
#279 = CARTESIAN_POINT('',(-16.71378676968,-18.87860649675,
    4.642727602495E-02));
#280 = CARTESIAN_POINT('',(-10.84080721906,-23.26228834286,
    4.642727602399E-02));
#281 = CARTESIAN_POINT('',(-3.753359577269,-25.62250430955,
    4.642727602555E-02));
#282 = CARTESIAN_POINT('',(3.755617749075,-25.63283195501,
    4.642727602401E-02));
#283 = CARTESIAN_POINT('',(10.886561660168,-23.28395287269,
    4.642727602491E-02));
#284 = CARTESIAN_POINT('',(16.800510433516,-18.84104568452,
    4.64272760247E-02));
#285 = CARTESIAN_POINT('',(20.877045580117,-12.96240944346,
    4.642727602462E-02));
#286 = CARTESIAN_POINT('',(22.870145306882,-6.437212615481,
    4.642727602467E-02));
#287 = CARTESIAN_POINT('',(22.870145306882,-5.601570049221E-15,
    4.642727602467E-02));
#288 = PCURVE('',#111,#289);
#289 = DEFINITIONAL_REPRESENTATION('',(#290),#294);
#290 = LINE('',#291,#292);
#291 = CARTESIAN_POINT('',(144.51326206513,0.));
#292 = VECTOR('',#293,1.);
#293 = DIRECTION('',(0.,1.));
#294 = ( GEOMETRIC_REPRESENTATION_CONTEXT(2) 
PARAMETRIC_REPRESENTATION_CONTEXT() REPRESENTATION_CONTEXT('2D SPACE',''
  ) );
#295 = PCURVE('',#296,#301);
#296 = SPHERICAL_SURFACE('',#297,68.125);
#297 = AXIS2_PLACEMENT_3D('',#298,#299,#300);
#298 = CARTESIAN_POINT('',(0.,0.,-64.125));
#299 = DIRECTION('',(0.,0.,1.));
#300 = DIRECTION('',(1.,0.,0.));
#301 = DEFINITIONAL_REPRESENTATION('',(#302),#337);
#302 = B_SPLINE_CURVE_WITH_KNOTS('',9,(#303,#304,#305,#306,#307,#308,
    #309,#310,#311,#312,#313,#314,#315,#316,#317,#318,#319,#320,#321,
    #322,#323,#324,#325,#326,#327,#328,#329,#330,#331,#332,#333,#334,
    #335,#336),.UNSPECIFIED.,.F.,.F.,(10,8,8,8,10),(3.683225919281E-15,
    36.128315516283,72.256631032565,108.38494654884,144.51326206513),
  .UNSPECIFIED.);
#303 = CARTESIAN_POINT('',(2.22044604925E-16,1.228438988706));
#304 = CARTESIAN_POINT('',(0.172008183644,1.228438988706));
#305 = CARTESIAN_POINT('',(0.345485667567,1.228438988706));
#306 = CARTESIAN_POINT('',(0.519908556628,1.228438988706));
#307 = CARTESIAN_POINT('',(0.694857360008,1.228438988706));
#308 = CARTESIAN_POINT('',(0.869996861867,1.228438988706));
#309 = CARTESIAN_POINT('',(1.045158504663,1.228438988706));
#310 = CARTESIAN_POINT('',(1.220240210353,1.228438988706));
#311 = CARTESIAN_POINT('',(1.395212973228,1.228438988706));
#312 = CARTESIAN_POINT('',(1.744941203674,1.228438988706));
#313 = CARTESIAN_POINT('',(1.919696692251,1.228438988706));
#314 = CARTESIAN_POINT('',(2.094344948611,1.228438988706));
#315 = CARTESIAN_POINT('',(2.268919706767,1.228438988706));
#316 = CARTESIAN_POINT('',(2.44346088249,1.228438988706));
#317 = CARTESIAN_POINT('',(2.617994003193,1.228438988706));
#318 = CARTESIAN_POINT('',(2.792526778386,1.228438988706));
#319 = CARTESIAN_POINT('',(2.967059672826,1.228438988706));
#320 = CARTESIAN_POINT('',(3.316125634354,1.228438988706));
#321 = CARTESIAN_POINT('',(3.490658528793,1.228438988706));
#322 = CARTESIAN_POINT('',(3.665191303987,1.228438988706));
#323 = CARTESIAN_POINT('',(3.839724424688,1.228438988706));
#324 = CARTESIAN_POINT('',(4.014265600413,1.228438988706));
#325 = CARTESIAN_POINT('',(4.188840358568,1.228438988706));
#326 = CARTESIAN_POINT('',(4.363488614929,1.228438988706));
#327 = CARTESIAN_POINT('',(4.538244103506,1.228438988706));
#328 = CARTESIAN_POINT('',(4.887972333951,1.228438988706));
#329 = CARTESIAN_POINT('',(5.062945096827,1.228438988706));
#330 = CARTESIAN_POINT('',(5.238026802516,1.228438988706));
#331 = CARTESIAN_POINT('',(5.413188445313,1.228438988706));
#332 = CARTESIAN_POINT('',(5.588327947171,1.228438988706));
#333 = CARTESIAN_POINT('',(5.763276750552,1.228438988706));
#334 = CARTESIAN_POINT('',(5.937699639612,1.228438988706));
#335 = CARTESIAN_POINT('',(6.111177123536,1.228438988706));
#336 = CARTESIAN_POINT('',(6.28318530718,1.228438988706));
#337 = ( GEOMETRIC_REPRESENTATION_CONTEXT(2) 
PARAMETRIC_REPRESENTATION_CONTEXT() REPRESENTATION_CONTEXT('2D SPACE',''
  ) );
#338 = ORIENTED_EDGE('',*,*,#242,.F.);
#339 = ORIENTED_EDGE('',*,*,#57,.F.);
#340 = ADVANCED_FACE('',(#341),#227,.T.);
#341 = FACE_BOUND('',#342,.F.);
#342 = EDGE_LOOP('',(#343,#366,#393,#394));
#343 = ORIENTED_EDGE('',*,*,#344,.T.);
#344 = EDGE_CURVE('',#189,#345,#347,.T.);
#345 = VERTEX_POINT('',#346);
#346 = CARTESIAN_POINT('',(25.,0.,3.2));
#347 = SEAM_CURVE('',#348,(#352,#359),.PCURVE_S1.);
#348 = LINE('',#349,#350);
#349 = CARTESIAN_POINT('',(25.,0.,0.));
#350 = VECTOR('',#351,1.);
#351 = DIRECTION('',(0.,0.,1.));
#352 = PCURVE('',#227,#353);
#353 = DEFINITIONAL_REPRESENTATION('',(#354),#358);
#354 = LINE('',#355,#356);
#355 = CARTESIAN_POINT('',(-0.,0.));
#356 = VECTOR('',#357,1.);
#357 = DIRECTION('',(-0.,-1.));
#358 = ( GEOMETRIC_REPRESENTATION_CONTEXT(2) 
PARAMETRIC_REPRESENTATION_CONTEXT() REPRESENTATION_CONTEXT('2D SPACE',''
  ) );
#359 = PCURVE('',#227,#360);
#360 = DEFINITIONAL_REPRESENTATION('',(#361),#365);
#361 = LINE('',#362,#363);
#362 = CARTESIAN_POINT('',(-6.28318530718,0.));
#363 = VECTOR('',#364,1.);
#364 = DIRECTION('',(-0.,-1.));
#365 = ( GEOMETRIC_REPRESENTATION_CONTEXT(2) 
PARAMETRIC_REPRESENTATION_CONTEXT() REPRESENTATION_CONTEXT('2D SPACE',''
  ) );
#366 = ORIENTED_EDGE('',*,*,#367,.T.);
#367 = EDGE_CURVE('',#345,#345,#368,.T.);
#368 = SURFACE_CURVE('',#369,(#374,#381),.PCURVE_S1.);
#369 = CIRCLE('',#370,25.);
#370 = AXIS2_PLACEMENT_3D('',#371,#372,#373);
#371 = CARTESIAN_POINT('',(0.,0.,3.2));
#372 = DIRECTION('',(0.,0.,1.));
#373 = DIRECTION('',(1.,0.,-0.));
#374 = PCURVE('',#227,#375);
#375 = DEFINITIONAL_REPRESENTATION('',(#376),#380);
#376 = LINE('',#377,#378);
#377 = CARTESIAN_POINT('',(-0.,-3.2));
#378 = VECTOR('',#379,1.);
#379 = DIRECTION('',(-1.,0.));
#380 = ( GEOMETRIC_REPRESENTATION_CONTEXT(2) 
PARAMETRIC_REPRESENTATION_CONTEXT() REPRESENTATION_CONTEXT('2D SPACE',''
  ) );
#381 = PCURVE('',#382,#387);
#382 = TOROIDAL_SURFACE('',#383,24.2,0.8);
#383 = AXIS2_PLACEMENT_3D('',#384,#385,#386);
#384 = CARTESIAN_POINT('',(0.,0.,3.2));
#385 = DIRECTION('',(0.,0.,1.));
#386 = DIRECTION('',(1.,0.,-0.));
#387 = DEFINITIONAL_REPRESENTATION('',(#388),#392);
#388 = LINE('',#389,#390);
#389 = CARTESIAN_POINT('',(0.,0.));
#390 = VECTOR('',#391,1.);
#391 = DIRECTION('',(1.,0.));
#392 = ( GEOMETRIC_REPRESENTATION_CONTEXT(2) 
PARAMETRIC_REPRESENTATION_CONTEXT() REPRESENTATION_CONTEXT('2D SPACE',''
  ) );
#393 = ORIENTED_EDGE('',*,*,#344,.F.);
#394 = ORIENTED_EDGE('',*,*,#212,.F.);
#395 = ADVANCED_FACE('',(#396),#296,.F.);
#396 = FACE_BOUND('',#397,.F.);
#397 = EDGE_LOOP('',(#398,#422,#423,#424));
#398 = ORIENTED_EDGE('',*,*,#399,.F.);
#399 = EDGE_CURVE('',#243,#400,#402,.T.);
#400 = VERTEX_POINT('',#401);
#401 = CARTESIAN_POINT('',(3.755894087777,-9.199287345064E-16,
    3.896385494574));
#402 = SEAM_CURVE('',#403,(#408,#415),.PCURVE_S1.);
#403 = CIRCLE('',#404,68.125);
#404 = AXIS2_PLACEMENT_3D('',#405,#406,#407);
#405 = CARTESIAN_POINT('',(0.,0.,-64.125));
#406 = DIRECTION('',(-2.449293598295E-16,-1.,0.));
#407 = DIRECTION('',(1.,-2.449293598295E-16,0.));
#408 = PCURVE('',#296,#409);
#409 = DEFINITIONAL_REPRESENTATION('',(#410),#414);
#410 = LINE('',#411,#412);
#411 = CARTESIAN_POINT('',(0.,-6.28318530718));
#412 = VECTOR('',#413,1.);
#413 = DIRECTION('',(0.,1.));
#414 = ( GEOMETRIC_REPRESENTATION_CONTEXT(2) 
PARAMETRIC_REPRESENTATION_CONTEXT() REPRESENTATION_CONTEXT('2D SPACE',''
  ) );
#415 = PCURVE('',#296,#416);
#416 = DEFINITIONAL_REPRESENTATION('',(#417),#421);
#417 = LINE('',#418,#419);
#418 = CARTESIAN_POINT('',(6.28318530718,-6.28318530718));
#419 = VECTOR('',#420,1.);
#420 = DIRECTION('',(0.,1.));
#421 = ( GEOMETRIC_REPRESENTATION_CONTEXT(2) 
PARAMETRIC_REPRESENTATION_CONTEXT() REPRESENTATION_CONTEXT('2D SPACE',''
  ) );
#422 = ORIENTED_EDGE('',*,*,#263,.T.);
#423 = ORIENTED_EDGE('',*,*,#399,.T.);
#424 = ORIENTED_EDGE('',*,*,#425,.T.);
#425 = EDGE_CURVE('',#400,#400,#426,.T.);
#426 = SURFACE_CURVE('',#427,(#442,#476),.PCURVE_S1.);
#427 = ( BOUNDED_CURVE() B_SPLINE_CURVE(13,(#428,#429,#430,#431,#432,
    #433,#434,#435,#436,#437,#438,#439,#440,#441),.UNSPECIFIED.,.T.,.F.)
 B_SPLINE_CURVE_WITH_KNOTS((14,14),(1.412387424757E-15,18.849555921539),
.PIECEWISE_BEZIER_KNOTS.) CURVE() GEOMETRIC_REPRESENTATION_ITEM() 
RATIONAL_B_SPLINE_CURVE((1.,1.,1.000000000001,0.999999999998,
    1.000000000003,0.999999999997,1.000000000003,0.999999999998,
1.000000000001,0.999999999999,1.,1.,1.,1.)) REPRESENTATION_ITEM('') );
#428 = CARTESIAN_POINT('',(3.755894087777,-9.199287345064E-16,
    3.896385494574));
#429 = CARTESIAN_POINT('',(3.755894087777,-1.789046363067,3.896385494574
    ));
#430 = CARTESIAN_POINT('',(2.831255900583,-3.619349483475,3.896385494574
    ));
#431 = CARTESIAN_POINT('',(0.928479983258,-4.92809409107,3.896385494574)
  );
#432 = CARTESIAN_POINT('',(-1.689981199009,-5.129092321111,
    3.896385494574));
#433 = CARTESIAN_POINT('',(-3.952019995328,-3.734177735057,
    3.896385494573));
#434 = CARTESIAN_POINT('',(-5.610987836328,-1.697914075978,
    3.896385494574));
#435 = CARTESIAN_POINT('',(-5.610987836388,1.697914075984,3.896385494573
    ));
#436 = CARTESIAN_POINT('',(-3.952019995289,3.734177735048,3.896385494574
    ));
#437 = CARTESIAN_POINT('',(-1.689981199026,5.129092321119,3.896385494573
    ));
#438 = CARTESIAN_POINT('',(0.92847998326,4.928094091067,3.896385494574)
  );
#439 = CARTESIAN_POINT('',(2.831255900584,3.619349483475,3.896385494574)
  );
#440 = CARTESIAN_POINT('',(3.755894087777,1.789046363067,3.896385494574)
  );
#441 = CARTESIAN_POINT('',(3.755894087777,0.,3.896385494574));
#442 = PCURVE('',#296,#443);
#443 = DEFINITIONAL_REPRESENTATION('',(#444),#475);
#444 = B_SPLINE_CURVE_WITH_KNOTS('',8,(#445,#446,#447,#448,#449,#450,
    #451,#452,#453,#454,#455,#456,#457,#458,#459,#460,#461,#462,#463,
    #464,#465,#466,#467,#468,#469,#470,#471,#472,#473,#474),
  .UNSPECIFIED.,.F.,.F.,(9,7,7,7,9),(1.412387424757E-15,4.712388980385,
    9.424777960769,14.137166941154,18.849555921539),.UNSPECIFIED.);
#445 = CARTESIAN_POINT('',(6.28318530718,1.515635968354));
#446 = CARTESIAN_POINT('',(6.089676100581,1.515635968354));
#447 = CARTESIAN_POINT('',(5.894249861072,1.515635968354));
#448 = CARTESIAN_POINT('',(5.697812302167,1.515635968354));
#449 = CARTESIAN_POINT('',(5.500785135404,1.515635968354));
#450 = CARTESIAN_POINT('',(5.303676149988,1.515635968354));
#451 = CARTESIAN_POINT('',(5.106685632236,1.515635968354));
#452 = CARTESIAN_POINT('',(4.909829037315,1.515635968354));
#453 = CARTESIAN_POINT('',(4.516392016457,1.515635968354));
#454 = CARTESIAN_POINT('',(4.319810126389,1.515635968354));
#455 = CARTESIAN_POINT('',(4.123357060626,1.515635968354));
#456 = CARTESIAN_POINT('',(3.926983136611,1.515635968354));
#457 = CARTESIAN_POINT('',(3.73063785961,1.515635968354));
#458 = CARTESIAN_POINT('',(3.53429218676,1.515635968354));
#459 = CARTESIAN_POINT('',(3.33794198081,1.515635968354));
#460 = CARTESIAN_POINT('',(2.94524332637,1.515635968354));
#461 = CARTESIAN_POINT('',(2.74889312042,1.515635968354));
#462 = CARTESIAN_POINT('',(2.552547447569,1.515635968354));
#463 = CARTESIAN_POINT('',(2.356202170569,1.515635968354));
#464 = CARTESIAN_POINT('',(2.159828246554,1.515635968354));
#465 = CARTESIAN_POINT('',(1.963375180791,1.515635968354));
#466 = CARTESIAN_POINT('',(1.766793290723,1.515635968354));
#467 = CARTESIAN_POINT('',(1.373356269865,1.515635968354));
#468 = CARTESIAN_POINT('',(1.176499674941,1.515635968354));
#469 = CARTESIAN_POINT('',(0.979509157202,1.515635968354));
#470 = CARTESIAN_POINT('',(0.782400171754,1.515635968354));
#471 = CARTESIAN_POINT('',(0.585373005033,1.515635968354));
#472 = CARTESIAN_POINT('',(0.388935446096,1.515635968354));
#473 = CARTESIAN_POINT('',(0.193509206599,1.515635968354));
#474 = CARTESIAN_POINT('',(2.344735666667E-15,1.515635968354));
#475 = ( GEOMETRIC_REPRESENTATION_CONTEXT(2) 
PARAMETRIC_REPRESENTATION_CONTEXT() REPRESENTATION_CONTEXT('2D SPACE',''
  ) );
#476 = PCURVE('',#477,#520);
#477 = ( BOUNDED_SURFACE() B_SPLINE_SURFACE(2,13,(
    (#478,#479,#480,#481,#482,#483,#484,#485,#486,#487,#488,#489,#490
      ,#491)
    ,(#492,#493,#494,#495,#496,#497,#498,#499,#500,#501,#502,#503,#504
      ,#505)
    ,(#506,#507,#508,#509,#510,#511,#512,#513,#514,#515,#516,#517,#518
,#519
    )),.UNSPECIFIED.,.F.,.T.,.F.) B_SPLINE_SURFACE_WITH_KNOTS((3,3),(14,
    14),(0.,18.849555921539),(1.412387424757E-15,18.849555921539),
.PIECEWISE_BEZIER_KNOTS.) GEOMETRIC_REPRESENTATION_ITEM() 
RATIONAL_B_SPLINE_SURFACE((
    (1.,1.,1.000000000001,0.999999999998,1.000000000003,0.999999999997
      ,1.000000000003,0.999999999998,1.000000000001,0.999999999999,1.,1.
      ,1.,1.)
    ,(0.726337521501,0.726337521501,0.726337521501,0.7263375215
      ,0.726337521502,0.726337521499,0.726337521502,0.7263375215
      ,0.726337521501,0.7263375215,0.726337521501,0.726337521501
      ,0.726337521501,0.726337521501)
    ,(1.,1.,1.000000000001,0.999999999998,1.000000000003,0.999999999997
      ,1.000000000003,0.999999999998,1.000000000001,0.999999999999,1.,1.
,1.,1.))) REPRESENTATION_ITEM('') SURFACE() );
#478 = CARTESIAN_POINT('',(3.755894087777,-9.199287345064E-16,
    3.896385494574));
#479 = CARTESIAN_POINT('',(3.755894087777,-1.789046363067,3.896385494574
    ));
#480 = CARTESIAN_POINT('',(2.831255900583,-3.619349483475,3.896385494574
    ));
#481 = CARTESIAN_POINT('',(0.928479983258,-4.92809409107,3.896385494574)
  );
#482 = CARTESIAN_POINT('',(-1.689981199009,-5.129092321111,
    3.896385494574));
#483 = CARTESIAN_POINT('',(-3.952019995328,-3.734177735057,
    3.896385494573));
#484 = CARTESIAN_POINT('',(-5.610987836328,-1.697914075978,
    3.896385494574));
#485 = CARTESIAN_POINT('',(-5.610987836388,1.697914075984,3.896385494573
    ));
#486 = CARTESIAN_POINT('',(-3.952019995289,3.734177735048,3.896385494574
    ));
#487 = CARTESIAN_POINT('',(-1.689981199026,5.129092321119,3.896385494573
    ));
#488 = CARTESIAN_POINT('',(0.92847998326,4.928094091067,3.896385494574)
  );
#489 = CARTESIAN_POINT('',(2.831255900584,3.619349483475,3.896385494574)
  );
#490 = CARTESIAN_POINT('',(3.755894087777,1.789046363067,3.896385494574)
  );
#491 = CARTESIAN_POINT('',(3.755894087777,0.,3.896385494574));
#492 = CARTESIAN_POINT('',(3.,-1.214306433184E-17,3.938123223299));
#493 = CARTESIAN_POINT('',(3.,-1.428991064116,3.938123223299));
#494 = CARTESIAN_POINT('',(2.261450270762,-2.890935739047,3.938123223299
    ));
#495 = CARTESIAN_POINT('',(0.741618342975,-3.93628838505,3.938123223298)
  );
#496 = CARTESIAN_POINT('',(-1.349863302462,-4.096834629455,
    3.938123223301));
#497 = CARTESIAN_POINT('',(-3.156654503269,-2.982654181219,
    3.938123223294));
#498 = CARTESIAN_POINT('',(-4.481746054495,-1.356199644864,
    3.938123223305));
#499 = CARTESIAN_POINT('',(-4.48174605454,1.356199644866,3.938123223293)
  );
#500 = CARTESIAN_POINT('',(-3.156654503236,2.982654181214,3.938123223302
    ));
#501 = CARTESIAN_POINT('',(-1.349863302479,4.09683462946,3.938123223297)
  );
#502 = CARTESIAN_POINT('',(0.741618342981,3.936288385048,3.938123223299)
  );
#503 = CARTESIAN_POINT('',(2.26145027076,2.890935739048,3.938123223299)
  );
#504 = CARTESIAN_POINT('',(3.,1.428991064116,3.938123223299));
#505 = CARTESIAN_POINT('',(3.,8.608565249535E-15,3.938123223299));
#506 = CARTESIAN_POINT('',(3.,-7.347880794884E-16,4.695168737079));
#507 = CARTESIAN_POINT('',(3.,-1.428991064117,4.695168737079));
#508 = CARTESIAN_POINT('',(2.261450270762,-2.890935739046,4.695168737079
    ));
#509 = CARTESIAN_POINT('',(0.741618342974,-3.936288385056,4.695168737078
    ));
#510 = CARTESIAN_POINT('',(-1.349863302459,-4.096834629443,4.69516873708
    ));
#511 = CARTESIAN_POINT('',(-3.156654503275,-2.982654181235,
    4.695168737076));
#512 = CARTESIAN_POINT('',(-4.481746054487,-1.356199644845,
    4.695168737083));
#513 = CARTESIAN_POINT('',(-4.481746054546,1.35619964485,4.695168737075)
  );
#514 = CARTESIAN_POINT('',(-3.156654503233,2.982654181228,4.695168737081
    ));
#515 = CARTESIAN_POINT('',(-1.349863302481,4.09683462945,4.695168737078)
  );
#516 = CARTESIAN_POINT('',(0.741618342982,3.936288385053,4.695168737079)
  );
#517 = CARTESIAN_POINT('',(2.26145027076,2.890935739046,4.695168737079)
  );
#518 = CARTESIAN_POINT('',(3.,1.428991064117,4.695168737079));
#519 = CARTESIAN_POINT('',(3.,0.,4.695168737079));
#520 = DEFINITIONAL_REPRESENTATION('',(#521),#525);
#521 = LINE('',#522,#523);
#522 = CARTESIAN_POINT('',(0.,0.));
#523 = VECTOR('',#524,1.);
#524 = DIRECTION('',(0.,1.));
#525 = ( GEOMETRIC_REPRESENTATION_CONTEXT(2) 
PARAMETRIC_REPRESENTATION_CONTEXT() REPRESENTATION_CONTEXT('2D SPACE',''
  ) );
#526 = ADVANCED_FACE('',(#527),#382,.T.);
#527 = FACE_BOUND('',#528,.T.);
#528 = EDGE_LOOP('',(#529,#551,#552,#553));
#529 = ORIENTED_EDGE('',*,*,#530,.F.);
#530 = EDGE_CURVE('',#345,#531,#533,.T.);
#531 = VERTEX_POINT('',#532);
#532 = CARTESIAN_POINT('',(24.2,0.,4.));
#533 = SEAM_CURVE('',#534,(#539,#545),.PCURVE_S1.);
#534 = CIRCLE('',#535,0.8);
#535 = AXIS2_PLACEMENT_3D('',#536,#537,#538);
#536 = CARTESIAN_POINT('',(24.2,0.,3.2));
#537 = DIRECTION('',(0.,-1.,0.));
#538 = DIRECTION('',(1.,0.,0.));
#539 = PCURVE('',#382,#540);
#540 = DEFINITIONAL_REPRESENTATION('',(#541),#544);
#541 = B_SPLINE_CURVE_WITH_KNOTS('',1,(#542,#543),.UNSPECIFIED.,.F.,.F.,
  (2,2),(0.,1.570796326795),.PIECEWISE_BEZIER_KNOTS.);
#542 = CARTESIAN_POINT('',(0.,0.));
#543 = CARTESIAN_POINT('',(0.,1.570796326795));
#544 = ( GEOMETRIC_REPRESENTATION_CONTEXT(2) 
PARAMETRIC_REPRESENTATION_CONTEXT() REPRESENTATION_CONTEXT('2D SPACE',''
  ) );
#545 = PCURVE('',#382,#546);
#546 = DEFINITIONAL_REPRESENTATION('',(#547),#550);
#547 = B_SPLINE_CURVE_WITH_KNOTS('',1,(#548,#549),.UNSPECIFIED.,.F.,.F.,
  (2,2),(0.,1.570796326795),.PIECEWISE_BEZIER_KNOTS.);
#548 = CARTESIAN_POINT('',(6.28318530718,0.));
#549 = CARTESIAN_POINT('',(6.28318530718,1.570796326795));
#550 = ( GEOMETRIC_REPRESENTATION_CONTEXT(2) 
PARAMETRIC_REPRESENTATION_CONTEXT() REPRESENTATION_CONTEXT('2D SPACE',''
  ) );
#551 = ORIENTED_EDGE('',*,*,#367,.T.);
#552 = ORIENTED_EDGE('',*,*,#530,.T.);
#553 = ORIENTED_EDGE('',*,*,#554,.F.);
#554 = EDGE_CURVE('',#531,#531,#555,.T.);
#555 = SURFACE_CURVE('',#556,(#561,#568),.PCURVE_S1.);
#556 = CIRCLE('',#557,24.2);
#557 = AXIS2_PLACEMENT_3D('',#558,#559,#560);
#558 = CARTESIAN_POINT('',(0.,0.,4.));
#559 = DIRECTION('',(0.,0.,1.));
#560 = DIRECTION('',(1.,0.,-0.));
#561 = PCURVE('',#382,#562);
#562 = DEFINITIONAL_REPRESENTATION('',(#563),#567);
#563 = LINE('',#564,#565);
#564 = CARTESIAN_POINT('',(0.,1.570796326795));
#565 = VECTOR('',#566,1.);
#566 = DIRECTION('',(1.,0.));
#567 = ( GEOMETRIC_REPRESENTATION_CONTEXT(2) 
PARAMETRIC_REPRESENTATION_CONTEXT() REPRESENTATION_CONTEXT('2D SPACE',''
  ) );
#568 = PCURVE('',#569,#574);
#569 = PLANE('',#570);
#570 = AXIS2_PLACEMENT_3D('',#571,#572,#573);
#571 = CARTESIAN_POINT('',(-8.751616848252E-16,1.604946055186E-15,4.));
#572 = DIRECTION('',(0.,0.,1.));
#573 = DIRECTION('',(1.,0.,-0.));
#574 = DEFINITIONAL_REPRESENTATION('',(#575),#579);
#575 = CIRCLE('',#576,24.2);
#576 = AXIS2_PLACEMENT_2D('',#577,#578);
#577 = CARTESIAN_POINT('',(8.751616848252E-16,-1.604946055186E-15));
#578 = DIRECTION('',(1.,0.));
#579 = ( GEOMETRIC_REPRESENTATION_CONTEXT(2) 
PARAMETRIC_REPRESENTATION_CONTEXT() REPRESENTATION_CONTEXT('2D SPACE',''
  ) );
#580 = ADVANCED_FACE('',(#581),#477,.F.);
#581 = FACE_BOUND('',#582,.F.);
#582 = EDGE_LOOP('',(#583,#604,#656,#657));
#583 = ORIENTED_EDGE('',*,*,#584,.T.);
#584 = EDGE_CURVE('',#400,#585,#587,.T.);
#585 = VERTEX_POINT('',#586);
#586 = CARTESIAN_POINT('',(3.,-7.347880794884E-16,4.695168737079));
#587 = SEAM_CURVE('',#588,(#592,#598),.PCURVE_S1.);
#588 = ( BOUNDED_CURVE() B_SPLINE_CURVE(2,(#589,#590,#591),
.UNSPECIFIED.,.F.,.F.) B_SPLINE_CURVE_WITH_KNOTS((3,3),(0.,
18.849555921539),.PIECEWISE_BEZIER_KNOTS.) CURVE() 
GEOMETRIC_REPRESENTATION_ITEM() RATIONAL_B_SPLINE_CURVE((1.,
0.726337521501,1.)) REPRESENTATION_ITEM('') );
#589 = CARTESIAN_POINT('',(3.755894087777,-9.199287345064E-16,
    3.896385494574));
#590 = CARTESIAN_POINT('',(3.,-1.214306433184E-17,3.938123223299));
#591 = CARTESIAN_POINT('',(3.,-7.347880794884E-16,4.695168737079));
#592 = PCURVE('',#477,#593);
#593 = DEFINITIONAL_REPRESENTATION('',(#594),#597);
#594 = B_SPLINE_CURVE_WITH_KNOTS('',1,(#595,#596),.UNSPECIFIED.,.F.,.F.,
  (2,2),(0.,18.849555921539),.PIECEWISE_BEZIER_KNOTS.);
#595 = CARTESIAN_POINT('',(0.,1.412387424757E-15));
#596 = CARTESIAN_POINT('',(18.849555921539,1.412387424757E-15));
#597 = ( GEOMETRIC_REPRESENTATION_CONTEXT(2) 
PARAMETRIC_REPRESENTATION_CONTEXT() REPRESENTATION_CONTEXT('2D SPACE',''
  ) );
#598 = PCURVE('',#477,#599);
#599 = DEFINITIONAL_REPRESENTATION('',(#600),#603);
#600 = B_SPLINE_CURVE_WITH_KNOTS('',1,(#601,#602),.UNSPECIFIED.,.F.,.F.,
  (2,2),(0.,18.849555921539),.PIECEWISE_BEZIER_KNOTS.);
#601 = CARTESIAN_POINT('',(0.,18.849555921539));
#602 = CARTESIAN_POINT('',(18.849555921539,18.849555921539));
#603 = ( GEOMETRIC_REPRESENTATION_CONTEXT(2) 
PARAMETRIC_REPRESENTATION_CONTEXT() REPRESENTATION_CONTEXT('2D SPACE',''
  ) );
#604 = ORIENTED_EDGE('',*,*,#605,.T.);
#605 = EDGE_CURVE('',#585,#585,#606,.T.);
#606 = SURFACE_CURVE('',#607,(#622,#629),.PCURVE_S1.);
#607 = ( BOUNDED_CURVE() B_SPLINE_CURVE(13,(#608,#609,#610,#611,#612,
    #613,#614,#615,#616,#617,#618,#619,#620,#621),.UNSPECIFIED.,.T.,.F.)
 B_SPLINE_CURVE_WITH_KNOTS((14,14),(1.412387424757E-15,18.849555921539),
.PIECEWISE_BEZIER_KNOTS.) CURVE() GEOMETRIC_REPRESENTATION_ITEM() 
RATIONAL_B_SPLINE_CURVE((1.,1.,1.000000000001,0.999999999998,
    1.000000000003,0.999999999997,1.000000000003,0.999999999998,
1.000000000001,0.999999999999,1.,1.,1.,1.)) REPRESENTATION_ITEM('') );
#608 = CARTESIAN_POINT('',(3.,-7.347880794884E-16,4.695168737079));
#609 = CARTESIAN_POINT('',(3.,-1.428991064117,4.695168737079));
#610 = CARTESIAN_POINT('',(2.261450270762,-2.890935739046,4.695168737079
    ));
#611 = CARTESIAN_POINT('',(0.741618342974,-3.936288385056,4.695168737078
    ));
#612 = CARTESIAN_POINT('',(-1.349863302459,-4.096834629443,4.69516873708
    ));
#613 = CARTESIAN_POINT('',(-3.156654503275,-2.982654181235,
    4.695168737076));
#614 = CARTESIAN_POINT('',(-4.481746054487,-1.356199644845,
    4.695168737083));
#615 = CARTESIAN_POINT('',(-4.481746054546,1.35619964485,4.695168737075)
  );
#616 = CARTESIAN_POINT('',(-3.156654503233,2.982654181228,4.695168737081
    ));
#617 = CARTESIAN_POINT('',(-1.349863302481,4.09683462945,4.695168737078)
  );
#618 = CARTESIAN_POINT('',(0.741618342982,3.936288385053,4.695168737079)
  );
#619 = CARTESIAN_POINT('',(2.26145027076,2.890935739046,4.695168737079)
  );
#620 = CARTESIAN_POINT('',(3.,1.428991064117,4.695168737079));
#621 = CARTESIAN_POINT('',(3.,0.,4.695168737079));
#622 = PCURVE('',#477,#623);
#623 = DEFINITIONAL_REPRESENTATION('',(#624),#628);
#624 = LINE('',#625,#626);
#625 = CARTESIAN_POINT('',(18.849555921539,0.));
#626 = VECTOR('',#627,1.);
#627 = DIRECTION('',(0.,1.));
#628 = ( GEOMETRIC_REPRESENTATION_CONTEXT(2) 
PARAMETRIC_REPRESENTATION_CONTEXT() REPRESENTATION_CONTEXT('2D SPACE',''
  ) );
#629 = PCURVE('',#630,#635);
#630 = CYLINDRICAL_SURFACE('',#631,3.);
#631 = AXIS2_PLACEMENT_3D('',#632,#633,#634);
#632 = CARTESIAN_POINT('',(0.,0.,-1.001));
#633 = DIRECTION('',(-0.,-0.,-1.));
#634 = DIRECTION('',(1.,0.,0.));
#635 = DEFINITIONAL_REPRESENTATION('',(#636),#655);
#636 = B_SPLINE_CURVE_WITH_KNOTS('',9,(#637,#638,#639,#640,#641,#642,
    #643,#644,#645,#646,#647,#648,#649,#650,#651,#652,#653,#654),
  .UNSPECIFIED.,.F.,.F.,(10,8,10),(1.412387424757E-15,9.424777960769,
    18.849555921539),.UNSPECIFIED.);
#637 = CARTESIAN_POINT('',(-6.28318530718,-5.696168737079));
#638 = CARTESIAN_POINT('',(-5.939168939892,-5.696168737079));
#639 = CARTESIAN_POINT('',(-5.589233680327,-5.696168737079));
#640 = CARTESIAN_POINT('',(-5.237874626785,-5.696168737078));
#641 = CARTESIAN_POINT('',(-4.886704345178,-5.69616873708));
#642 = CARTESIAN_POINT('',(-4.53833457273,-5.696168737078));
#643 = CARTESIAN_POINT('',(-4.188547945052,-5.696168737079));
#644 = CARTESIAN_POINT('',(-3.839772328704,-5.696168737079));
#645 = CARTESIAN_POINT('',(-3.490658124203,-5.696168737079));
#646 = CARTESIAN_POINT('',(-2.792527182977,-5.696168737079));
#647 = CARTESIAN_POINT('',(-2.443412978474,-5.696168737079));
#648 = CARTESIAN_POINT('',(-2.094637362134,-5.696168737078));
#649 = CARTESIAN_POINT('',(-1.744850734434,-5.696168737079));
#650 = CARTESIAN_POINT('',(-1.396480962022,-5.696168737079));
#651 = CARTESIAN_POINT('',(-1.045310680379,-5.696168737078));
#652 = CARTESIAN_POINT('',(-0.693951626858,-5.69616873708));
#653 = CARTESIAN_POINT('',(-0.344016367288,-5.696168737078));
#654 = CARTESIAN_POINT('',(-3.123281142601E-15,-5.696168737079));
#655 = ( GEOMETRIC_REPRESENTATION_CONTEXT(2) 
PARAMETRIC_REPRESENTATION_CONTEXT() REPRESENTATION_CONTEXT('2D SPACE',''
  ) );
#656 = ORIENTED_EDGE('',*,*,#584,.F.);
#657 = ORIENTED_EDGE('',*,*,#425,.F.);
#658 = ADVANCED_FACE('',(#659,#662),#569,.T.);
#659 = FACE_BOUND('',#660,.T.);
#660 = EDGE_LOOP('',(#661));
#661 = ORIENTED_EDGE('',*,*,#554,.T.);
#662 = FACE_BOUND('',#663,.T.);
#663 = EDGE_LOOP('',(#664));
#664 = ORIENTED_EDGE('',*,*,#665,.T.);
#665 = EDGE_CURVE('',#666,#666,#668,.T.);
#666 = VERTEX_POINT('',#667);
#667 = CARTESIAN_POINT('',(10.8,-2.645237086158E-15,4.));
#668 = SURFACE_CURVE('',#669,(#674,#685),.PCURVE_S1.);
#669 = CIRCLE('',#670,10.8);
#670 = AXIS2_PLACEMENT_3D('',#671,#672,#673);
#671 = CARTESIAN_POINT('',(0.,0.,4.));
#672 = DIRECTION('',(0.,-0.,-1.));
#673 = DIRECTION('',(1.,-2.449293598295E-16,0.));
#674 = PCURVE('',#569,#675);
#675 = DEFINITIONAL_REPRESENTATION('',(#676),#684);
#676 = ( BOUNDED_CURVE() B_SPLINE_CURVE(2,(#677,#678,#679,#680,#681,#682
,#683),.UNSPECIFIED.,.T.,.F.) B_SPLINE_CURVE_WITH_KNOTS((1,2,2,2,2,1),(
    -2.094395102393,0.,2.094395102393,4.188790204786,6.28318530718,
8.377580409573),.UNSPECIFIED.) CURVE() GEOMETRIC_REPRESENTATION_ITEM() 
RATIONAL_B_SPLINE_CURVE((1.,0.5,1.,0.5,1.,0.5,1.)) REPRESENTATION_ITEM(
  '') );
#677 = CARTESIAN_POINT('',(10.8,-4.250183141345E-15));
#678 = CARTESIAN_POINT('',(10.8,-18.70614872174));
#679 = CARTESIAN_POINT('',(-5.4,-9.353074360872));
#680 = CARTESIAN_POINT('',(-21.6,1.040291030972E-15));
#681 = CARTESIAN_POINT('',(-5.4,9.353074360872));
#682 = CARTESIAN_POINT('',(10.8,18.706148721744));
#683 = CARTESIAN_POINT('',(10.8,-4.250183141345E-15));
#684 = ( GEOMETRIC_REPRESENTATION_CONTEXT(2) 
PARAMETRIC_REPRESENTATION_CONTEXT() REPRESENTATION_CONTEXT('2D SPACE',''
  ) );
#685 = PCURVE('',#686,#691);
#686 = TOROIDAL_SURFACE('',#687,10.8,0.8);
#687 = AXIS2_PLACEMENT_3D('',#688,#689,#690);
#688 = CARTESIAN_POINT('',(0.,0.,4.8));
#689 = DIRECTION('',(-0.,-0.,-1.));
#690 = DIRECTION('',(1.,-2.449293598295E-16,0.));
#691 = DEFINITIONAL_REPRESENTATION('',(#692),#696);
#692 = LINE('',#693,#694);
#693 = CARTESIAN_POINT('',(0.,1.570796326795));
#694 = VECTOR('',#695,1.);
#695 = DIRECTION('',(1.,0.));
#696 = ( GEOMETRIC_REPRESENTATION_CONTEXT(2) 
PARAMETRIC_REPRESENTATION_CONTEXT() REPRESENTATION_CONTEXT('2D SPACE',''
  ) );
#697 = ADVANCED_FACE('',(#698),#630,.F.);
#698 = FACE_BOUND('',#699,.T.);
#699 = EDGE_LOOP('',(#700,#723,#750,#751));
#700 = ORIENTED_EDGE('',*,*,#701,.T.);
#701 = EDGE_CURVE('',#585,#702,#704,.T.);
#702 = VERTEX_POINT('',#703);
#703 = CARTESIAN_POINT('',(3.,0.,17.));
#704 = SEAM_CURVE('',#705,(#709,#716),.PCURVE_S1.);
#705 = LINE('',#706,#707);
#706 = CARTESIAN_POINT('',(3.,-3.673940397442E-16,3.933912899047));
#707 = VECTOR('',#708,1.);
#708 = DIRECTION('',(-1.033232969835E-14,2.811813796323E-17,1.));
#709 = PCURVE('',#630,#710);
#710 = DEFINITIONAL_REPRESENTATION('',(#711),#715);
#711 = LINE('',#712,#713);
#712 = CARTESIAN_POINT('',(-0.,-4.934912899047));
#713 = VECTOR('',#714,1.);
#714 = DIRECTION('',(-0.,-1.));
#715 = ( GEOMETRIC_REPRESENTATION_CONTEXT(2) 
PARAMETRIC_REPRESENTATION_CONTEXT() REPRESENTATION_CONTEXT('2D SPACE',''
  ) );
#716 = PCURVE('',#630,#717);
#717 = DEFINITIONAL_REPRESENTATION('',(#718),#722);
#718 = LINE('',#719,#720);
#719 = CARTESIAN_POINT('',(-6.28318530718,-4.934912899047));
#720 = VECTOR('',#721,1.);
#721 = DIRECTION('',(-0.,-1.));
#722 = ( GEOMETRIC_REPRESENTATION_CONTEXT(2) 
PARAMETRIC_REPRESENTATION_CONTEXT() REPRESENTATION_CONTEXT('2D SPACE',''
  ) );
#723 = ORIENTED_EDGE('',*,*,#724,.T.);
#724 = EDGE_CURVE('',#702,#702,#725,.T.);
#725 = SURFACE_CURVE('',#726,(#731,#738),.PCURVE_S1.);
#726 = CIRCLE('',#727,3.);
#727 = AXIS2_PLACEMENT_3D('',#728,#729,#730);
#728 = CARTESIAN_POINT('',(0.,0.,17.));
#729 = DIRECTION('',(0.,0.,1.));
#730 = DIRECTION('',(1.,0.,0.));
#731 = PCURVE('',#630,#732);
#732 = DEFINITIONAL_REPRESENTATION('',(#733),#737);
#733 = LINE('',#734,#735);
#734 = CARTESIAN_POINT('',(-0.,-18.001));
#735 = VECTOR('',#736,1.);
#736 = DIRECTION('',(-1.,0.));
#737 = ( GEOMETRIC_REPRESENTATION_CONTEXT(2) 
PARAMETRIC_REPRESENTATION_CONTEXT() REPRESENTATION_CONTEXT('2D SPACE',''
  ) );
#738 = PCURVE('',#739,#744);
#739 = PLANE('',#740);
#740 = AXIS2_PLACEMENT_3D('',#741,#742,#743);
#741 = CARTESIAN_POINT('',(-3.418600331349E-16,2.108840176837E-16,17.));
#742 = DIRECTION('',(0.,0.,1.));
#743 = DIRECTION('',(1.,0.,-0.));
#744 = DEFINITIONAL_REPRESENTATION('',(#745),#749);
#745 = CIRCLE('',#746,3.);
#746 = AXIS2_PLACEMENT_2D('',#747,#748);
#747 = CARTESIAN_POINT('',(3.418600331349E-16,-2.108840176837E-16));
#748 = DIRECTION('',(1.,0.));
#749 = ( GEOMETRIC_REPRESENTATION_CONTEXT(2) 
PARAMETRIC_REPRESENTATION_CONTEXT() REPRESENTATION_CONTEXT('2D SPACE',''
  ) );
#750 = ORIENTED_EDGE('',*,*,#701,.F.);
#751 = ORIENTED_EDGE('',*,*,#605,.T.);
#752 = ADVANCED_FACE('',(#753),#686,.F.);
#753 = FACE_BOUND('',#754,.F.);
#754 = EDGE_LOOP('',(#755,#777,#778,#779));
#755 = ORIENTED_EDGE('',*,*,#756,.F.);
#756 = EDGE_CURVE('',#666,#757,#759,.T.);
#757 = VERTEX_POINT('',#758);
#758 = CARTESIAN_POINT('',(10.,-2.449293598295E-15,4.8));
#759 = SEAM_CURVE('',#760,(#765,#771),.PCURVE_S1.);
#760 = CIRCLE('',#761,0.8);
#761 = AXIS2_PLACEMENT_3D('',#762,#763,#764);
#762 = CARTESIAN_POINT('',(10.8,-2.645237086158E-15,4.8));
#763 = DIRECTION('',(2.449293598295E-16,1.,0.));
#764 = DIRECTION('',(1.,-2.449293598295E-16,0.));
#765 = PCURVE('',#686,#766);
#766 = DEFINITIONAL_REPRESENTATION('',(#767),#770);
#767 = B_SPLINE_CURVE_WITH_KNOTS('',1,(#768,#769),.UNSPECIFIED.,.F.,.F.,
  (2,2),(1.570796326795,3.14159265359),.PIECEWISE_BEZIER_KNOTS.);
#768 = CARTESIAN_POINT('',(0.,1.570796326795));
#769 = CARTESIAN_POINT('',(0.,3.14159265359));
#770 = ( GEOMETRIC_REPRESENTATION_CONTEXT(2) 
PARAMETRIC_REPRESENTATION_CONTEXT() REPRESENTATION_CONTEXT('2D SPACE',''
  ) );
#771 = PCURVE('',#686,#772);
#772 = DEFINITIONAL_REPRESENTATION('',(#773),#776);
#773 = B_SPLINE_CURVE_WITH_KNOTS('',1,(#774,#775),.UNSPECIFIED.,.F.,.F.,
  (2,2),(1.570796326795,3.14159265359),.PIECEWISE_BEZIER_KNOTS.);
#774 = CARTESIAN_POINT('',(6.28318530718,1.570796326795));
#775 = CARTESIAN_POINT('',(6.28318530718,3.14159265359));
#776 = ( GEOMETRIC_REPRESENTATION_CONTEXT(2) 
PARAMETRIC_REPRESENTATION_CONTEXT() REPRESENTATION_CONTEXT('2D SPACE',''
  ) );
#777 = ORIENTED_EDGE('',*,*,#665,.T.);
#778 = ORIENTED_EDGE('',*,*,#756,.T.);
#779 = ORIENTED_EDGE('',*,*,#780,.F.);
#780 = EDGE_CURVE('',#757,#757,#781,.T.);
#781 = SURFACE_CURVE('',#782,(#787,#794),.PCURVE_S1.);
#782 = CIRCLE('',#783,10.);
#783 = AXIS2_PLACEMENT_3D('',#784,#785,#786);
#784 = CARTESIAN_POINT('',(0.,0.,4.8));
#785 = DIRECTION('',(0.,-0.,-1.));
#786 = DIRECTION('',(1.,-2.449293598295E-16,0.));
#787 = PCURVE('',#686,#788);
#788 = DEFINITIONAL_REPRESENTATION('',(#789),#793);
#789 = LINE('',#790,#791);
#790 = CARTESIAN_POINT('',(0.,3.14159265359));
#791 = VECTOR('',#792,1.);
#792 = DIRECTION('',(1.,0.));
#793 = ( GEOMETRIC_REPRESENTATION_CONTEXT(2) 
PARAMETRIC_REPRESENTATION_CONTEXT() REPRESENTATION_CONTEXT('2D SPACE',''
  ) );
#794 = PCURVE('',#795,#800);
#795 = CYLINDRICAL_SURFACE('',#796,10.);
#796 = AXIS2_PLACEMENT_3D('',#797,#798,#799);
#797 = CARTESIAN_POINT('',(0.,0.,0.));
#798 = DIRECTION('',(-0.,-0.,-1.));
#799 = DIRECTION('',(1.,0.,0.));
#800 = DEFINITIONAL_REPRESENTATION('',(#801),#805);
#801 = LINE('',#802,#803);
#802 = CARTESIAN_POINT('',(-6.28318530718,-4.8));
#803 = VECTOR('',#804,1.);
#804 = DIRECTION('',(1.,-0.));
#805 = ( GEOMETRIC_REPRESENTATION_CONTEXT(2) 
PARAMETRIC_REPRESENTATION_CONTEXT() REPRESENTATION_CONTEXT('2D SPACE',''
  ) );
#806 = ADVANCED_FACE('',(#807,#838),#739,.T.);
#807 = FACE_BOUND('',#808,.T.);
#808 = EDGE_LOOP('',(#809));
#809 = ORIENTED_EDGE('',*,*,#810,.T.);
#810 = EDGE_CURVE('',#811,#811,#813,.T.);
#811 = VERTEX_POINT('',#812);
#812 = CARTESIAN_POINT('',(6.,0.,17.));
#813 = SURFACE_CURVE('',#814,(#819,#826),.PCURVE_S1.);
#814 = CIRCLE('',#815,6.);
#815 = AXIS2_PLACEMENT_3D('',#816,#817,#818);
#816 = CARTESIAN_POINT('',(0.,0.,17.));
#817 = DIRECTION('',(0.,0.,1.));
#818 = DIRECTION('',(1.,0.,0.));
#819 = PCURVE('',#739,#820);
#820 = DEFINITIONAL_REPRESENTATION('',(#821),#825);
#821 = CIRCLE('',#822,6.);
#822 = AXIS2_PLACEMENT_2D('',#823,#824);
#823 = CARTESIAN_POINT('',(3.418600331349E-16,-2.108840176837E-16));
#824 = DIRECTION('',(1.,0.));
#825 = ( GEOMETRIC_REPRESENTATION_CONTEXT(2) 
PARAMETRIC_REPRESENTATION_CONTEXT() REPRESENTATION_CONTEXT('2D SPACE',''
  ) );
#826 = PCURVE('',#827,#832);
#827 = CYLINDRICAL_SURFACE('',#828,6.);
#828 = AXIS2_PLACEMENT_3D('',#829,#830,#831);
#829 = CARTESIAN_POINT('',(0.,0.,17.));
#830 = DIRECTION('',(-0.,-0.,-1.));
#831 = DIRECTION('',(1.,0.,0.));
#832 = DEFINITIONAL_REPRESENTATION('',(#833),#837);
#833 = LINE('',#834,#835);
#834 = CARTESIAN_POINT('',(-0.,0.));
#835 = VECTOR('',#836,1.);
#836 = DIRECTION('',(-1.,0.));
#837 = ( GEOMETRIC_REPRESENTATION_CONTEXT(2) 
PARAMETRIC_REPRESENTATION_CONTEXT() REPRESENTATION_CONTEXT('2D SPACE',''
  ) );
#838 = FACE_BOUND('',#839,.T.);
#839 = EDGE_LOOP('',(#840));
#840 = ORIENTED_EDGE('',*,*,#724,.F.);
#841 = ADVANCED_FACE('',(#842),#795,.T.);
#842 = FACE_BOUND('',#843,.F.);
#843 = EDGE_LOOP('',(#844,#867,#868,#869));
#844 = ORIENTED_EDGE('',*,*,#845,.F.);
#845 = EDGE_CURVE('',#757,#846,#848,.T.);
#846 = VERTEX_POINT('',#847);
#847 = CARTESIAN_POINT('',(10.,0.,55.));
#848 = SEAM_CURVE('',#849,(#853,#860),.PCURVE_S1.);
#849 = LINE('',#850,#851);
#850 = CARTESIAN_POINT('',(10.,0.,0.));
#851 = VECTOR('',#852,1.);
#852 = DIRECTION('',(0.,0.,1.));
#853 = PCURVE('',#795,#854);
#854 = DEFINITIONAL_REPRESENTATION('',(#855),#859);
#855 = LINE('',#856,#857);
#856 = CARTESIAN_POINT('',(-6.28318530718,0.));
#857 = VECTOR('',#858,1.);
#858 = DIRECTION('',(-0.,-1.));
#859 = ( GEOMETRIC_REPRESENTATION_CONTEXT(2) 
PARAMETRIC_REPRESENTATION_CONTEXT() REPRESENTATION_CONTEXT('2D SPACE',''
  ) );
#860 = PCURVE('',#795,#861);
#861 = DEFINITIONAL_REPRESENTATION('',(#862),#866);
#862 = LINE('',#863,#864);
#863 = CARTESIAN_POINT('',(-0.,0.));
#864 = VECTOR('',#865,1.);
#865 = DIRECTION('',(-0.,-1.));
#866 = ( GEOMETRIC_REPRESENTATION_CONTEXT(2) 
PARAMETRIC_REPRESENTATION_CONTEXT() REPRESENTATION_CONTEXT('2D SPACE',''
  ) );
#867 = ORIENTED_EDGE('',*,*,#780,.T.);
#868 = ORIENTED_EDGE('',*,*,#845,.T.);
#869 = ORIENTED_EDGE('',*,*,#870,.T.);
#870 = EDGE_CURVE('',#846,#846,#871,.T.);
#871 = SURFACE_CURVE('',#872,(#877,#884),.PCURVE_S1.);
#872 = CIRCLE('',#873,10.);
#873 = AXIS2_PLACEMENT_3D('',#874,#875,#876);
#874 = CARTESIAN_POINT('',(0.,0.,55.));
#875 = DIRECTION('',(0.,0.,1.));
#876 = DIRECTION('',(1.,0.,0.));
#877 = PCURVE('',#795,#878);
#878 = DEFINITIONAL_REPRESENTATION('',(#879),#883);
#879 = LINE('',#880,#881);
#880 = CARTESIAN_POINT('',(-0.,-55.));
#881 = VECTOR('',#882,1.);
#882 = DIRECTION('',(-1.,0.));
#883 = ( GEOMETRIC_REPRESENTATION_CONTEXT(2) 
PARAMETRIC_REPRESENTATION_CONTEXT() REPRESENTATION_CONTEXT('2D SPACE',''
  ) );
#884 = PCURVE('',#885,#890);
#885 = PLANE('',#886);
#886 = AXIS2_PLACEMENT_3D('',#887,#888,#889);
#887 = CARTESIAN_POINT('',(-5.469760530158E-16,6.857365063158E-16,55.));
#888 = DIRECTION('',(0.,0.,1.));
#889 = DIRECTION('',(1.,0.,-0.));
#890 = DEFINITIONAL_REPRESENTATION('',(#891),#895);
#891 = CIRCLE('',#892,10.);
#892 = AXIS2_PLACEMENT_2D('',#893,#894);
#893 = CARTESIAN_POINT('',(5.469760530158E-16,-6.857365063158E-16));
#894 = DIRECTION('',(1.,0.));
#895 = ( GEOMETRIC_REPRESENTATION_CONTEXT(2) 
PARAMETRIC_REPRESENTATION_CONTEXT() REPRESENTATION_CONTEXT('2D SPACE',''
  ) );
#896 = ADVANCED_FACE('',(#897),#827,.F.);
#897 = FACE_BOUND('',#898,.T.);
#898 = EDGE_LOOP('',(#899,#900,#923,#949));
#899 = ORIENTED_EDGE('',*,*,#810,.F.);
#900 = ORIENTED_EDGE('',*,*,#901,.T.);
#901 = EDGE_CURVE('',#811,#902,#904,.T.);
#902 = VERTEX_POINT('',#903);
#903 = CARTESIAN_POINT('',(6.,0.,55.));
#904 = SEAM_CURVE('',#905,(#909,#916),.PCURVE_S1.);
#905 = LINE('',#906,#907);
#906 = CARTESIAN_POINT('',(6.,0.,17.));
#907 = VECTOR('',#908,1.);
#908 = DIRECTION('',(0.,0.,1.));
#909 = PCURVE('',#827,#910);
#910 = DEFINITIONAL_REPRESENTATION('',(#911),#915);
#911 = LINE('',#912,#913);
#912 = CARTESIAN_POINT('',(-6.28318530718,0.));
#913 = VECTOR('',#914,1.);
#914 = DIRECTION('',(-0.,-1.));
#915 = ( GEOMETRIC_REPRESENTATION_CONTEXT(2) 
PARAMETRIC_REPRESENTATION_CONTEXT() REPRESENTATION_CONTEXT('2D SPACE',''
  ) );
#916 = PCURVE('',#827,#917);
#917 = DEFINITIONAL_REPRESENTATION('',(#918),#922);
#918 = LINE('',#919,#920);
#919 = CARTESIAN_POINT('',(-0.,0.));
#920 = VECTOR('',#921,1.);
#921 = DIRECTION('',(-0.,-1.));
#922 = ( GEOMETRIC_REPRESENTATION_CONTEXT(2) 
PARAMETRIC_REPRESENTATION_CONTEXT() REPRESENTATION_CONTEXT('2D SPACE',''
  ) );
#923 = ORIENTED_EDGE('',*,*,#924,.F.);
#924 = EDGE_CURVE('',#902,#902,#925,.T.);
#925 = SURFACE_CURVE('',#926,(#931,#938),.PCURVE_S1.);
#926 = CIRCLE('',#927,6.);
#927 = AXIS2_PLACEMENT_3D('',#928,#929,#930);
#928 = CARTESIAN_POINT('',(0.,0.,55.));
#929 = DIRECTION('',(0.,0.,-1.));
#930 = DIRECTION('',(1.,0.,0.));
#931 = PCURVE('',#827,#932);
#932 = DEFINITIONAL_REPRESENTATION('',(#933),#937);
#933 = LINE('',#934,#935);
#934 = CARTESIAN_POINT('',(-6.28318530718,-38.));
#935 = VECTOR('',#936,1.);
#936 = DIRECTION('',(1.,-0.));
#937 = ( GEOMETRIC_REPRESENTATION_CONTEXT(2) 
PARAMETRIC_REPRESENTATION_CONTEXT() REPRESENTATION_CONTEXT('2D SPACE',''
  ) );
#938 = PCURVE('',#885,#939);
#939 = DEFINITIONAL_REPRESENTATION('',(#940),#948);
#940 = ( BOUNDED_CURVE() B_SPLINE_CURVE(2,(#941,#942,#943,#944,#945,#946
,#947),.UNSPECIFIED.,.T.,.F.) B_SPLINE_CURVE_WITH_KNOTS((1,2,2,2,2,1),(
    -2.094395102393,0.,2.094395102393,4.188790204786,6.28318530718,
8.377580409573),.UNSPECIFIED.) CURVE() GEOMETRIC_REPRESENTATION_ITEM() 
RATIONAL_B_SPLINE_CURVE((1.,0.5,1.,0.5,1.,0.5,1.)) REPRESENTATION_ITEM(
  '') );
#941 = CARTESIAN_POINT('',(6.,-6.857365063158E-16));
#942 = CARTESIAN_POINT('',(6.,-10.39230484541));
#943 = CARTESIAN_POINT('',(-3.,-5.196152422707));
#944 = CARTESIAN_POINT('',(-12.,-2.155312665293E-15));
#945 = CARTESIAN_POINT('',(-3.,5.196152422707));
#946 = CARTESIAN_POINT('',(6.,10.392304845413));
#947 = CARTESIAN_POINT('',(6.,-6.857365063158E-16));
#948 = ( GEOMETRIC_REPRESENTATION_CONTEXT(2) 
PARAMETRIC_REPRESENTATION_CONTEXT() REPRESENTATION_CONTEXT('2D SPACE',''
  ) );
#949 = ORIENTED_EDGE('',*,*,#901,.F.);
#950 = ADVANCED_FACE('',(#951,#954),#885,.T.);
#951 = FACE_BOUND('',#952,.T.);
#952 = EDGE_LOOP('',(#953));
#953 = ORIENTED_EDGE('',*,*,#870,.T.);
#954 = FACE_BOUND('',#955,.T.);
#955 = EDGE_LOOP('',(#956));
#956 = ORIENTED_EDGE('',*,*,#924,.T.);
#957 = ( GEOMETRIC_REPRESENTATION_CONTEXT(3) 
GLOBAL_UNCERTAINTY_ASSIGNED_CONTEXT((#961)) GLOBAL_UNIT_ASSIGNED_CONTEXT
((#958,#959,#960)) REPRESENTATION_CONTEXT('Context #1',
  '3D Context with UNIT and UNCERTAINTY') );
#958 = ( LENGTH_UNIT() NAMED_UNIT(*) SI_UNIT(.MILLI.,.METRE.) );
#959 = ( NAMED_UNIT(*) PLANE_ANGLE_UNIT() SI_UNIT($,.RADIAN.) );
#960 = ( NAMED_UNIT(*) SI_UNIT($,.STERADIAN.) SOLID_ANGLE_UNIT() );
#961 = UNCERTAINTY_MEASURE_WITH_UNIT(LENGTH_MEASURE(5.E-06),#958,
  'distance_accuracy_value','confusion accuracy');
#962 = PRODUCT_RELATED_PRODUCT_CATEGORY('part',$,(#7));
ENDSEC;
END-ISO-10303-21;
