ISO-10303-21;
HEADER;
FILE_DESCRIPTION(('Open CASCADE Model'),'2;1');
FILE_NAME('Open CASCADE Shape Model','2026-07-24T21:09:53',('Author'),(
    'Open CASCADE'),'Open CASCADE STEP processor 7.9','Open CASCADE 7.9'
  ,'Unknown');
FILE_SCHEMA(('AUTOMOTIVE_DESIGN { 1 0 10303 214 1 1 1 1 }'));
ENDSEC;
DATA;
#1 = APPLICATION_PROTOCOL_DEFINITION('international standard',
  'automotive_design',2000,#2);
#2 = APPLICATION_CONTEXT(
  'core data for automotive mechanical design processes');
#3 = SHAPE_DEFINITION_REPRESENTATION(#4,#10);
#4 = PRODUCT_DEFINITION_SHAPE('','',#5);
#5 = PRODUCT_DEFINITION('design','',#6,#9);
#6 = PRODUCT_DEFINITION_FORMATION('','',#7);
#7 = PRODUCT('Open CASCADE STEP translator 7.9 2',
  'Open CASCADE STEP translator 7.9 2','',(#8));
#8 = PRODUCT_CONTEXT('',#2,'mechanical');
#9 = PRODUCT_DEFINITION_CONTEXT('part definition',#2,'design');
#10 = ADVANCED_BREP_SHAPE_REPRESENTATION('',(#11,#15),#1126);
#11 = AXIS2_PLACEMENT_3D('',#12,#13,#14);
#12 = CARTESIAN_POINT('',(0.,0.,0.));
#13 = DIRECTION('',(0.,0.,1.));
#14 = DIRECTION('',(1.,0.,-0.));
#15 = MANIFOLD_SOLID_BREP('',#16);
#16 = CLOSED_SHELL('',(#17,#184,#238,#340,#395,#544,#598,#679,#718,#773,
    #827,#881,#936,#975,#1014,#1069,#1119));
#17 = ADVANCED_FACE('',(#18,#54),#31,.F.);
#18 = FACE_BOUND('',#19,.F.);
#19 = EDGE_LOOP('',(#20));
#20 = ORIENTED_EDGE('',*,*,#21,.T.);
#21 = EDGE_CURVE('',#22,#22,#24,.T.);
#22 = VERTEX_POINT('',#23);
#23 = CARTESIAN_POINT('',(26.7,0.,0.));
#24 = SURFACE_CURVE('',#25,(#30,#42),.PCURVE_S1.);
#25 = CIRCLE('',#26,26.7);
#26 = AXIS2_PLACEMENT_3D('',#27,#28,#29);
#27 = CARTESIAN_POINT('',(0.,0.,0.));
#28 = DIRECTION('',(0.,0.,1.));
#29 = DIRECTION('',(1.,0.,-0.));
#30 = PCURVE('',#31,#36);
#31 = PLANE('',#32);
#32 = AXIS2_PLACEMENT_3D('',#33,#34,#35);
#33 = CARTESIAN_POINT('',(-5.469760530158E-16,6.857365063158E-16,0.));
#34 = DIRECTION('',(0.,0.,1.));
#35 = DIRECTION('',(1.,0.,-0.));
#36 = DEFINITIONAL_REPRESENTATION('',(#37),#41);
#37 = CIRCLE('',#38,26.7);
#38 = AXIS2_PLACEMENT_2D('',#39,#40);
#39 = CARTESIAN_POINT('',(5.469760530158E-16,-6.857365063158E-16));
#40 = DIRECTION('',(1.,0.));
#41 = ( GEOMETRIC_REPRESENTATION_CONTEXT(2) 
PARAMETRIC_REPRESENTATION_CONTEXT() REPRESENTATION_CONTEXT('2D SPACE',''
  ) );
#42 = PCURVE('',#43,#48);
#43 = TOROIDAL_SURFACE('',#44,26.7,0.8);
#44 = AXIS2_PLACEMENT_3D('',#45,#46,#47);
#45 = CARTESIAN_POINT('',(0.,0.,0.8));
#46 = DIRECTION('',(0.,0.,1.));
#47 = DIRECTION('',(1.,0.,-0.));
#48 = DEFINITIONAL_REPRESENTATION('',(#49),#53);
#49 = LINE('',#50,#51);
#50 = CARTESIAN_POINT('',(0.,4.712388980385));
#51 = VECTOR('',#52,1.);
#52 = DIRECTION('',(1.,0.));
#53 = ( GEOMETRIC_REPRESENTATION_CONTEXT(2) 
PARAMETRIC_REPRESENTATION_CONTEXT() REPRESENTATION_CONTEXT('2D SPACE',''
  ) );
#54 = FACE_BOUND('',#55,.F.);
#55 = EDGE_LOOP('',(#56));
#56 = ORIENTED_EDGE('',*,*,#57,.F.);
#57 = EDGE_CURVE('',#58,#58,#60,.T.);
#58 = VERTEX_POINT('',#59);
#59 = CARTESIAN_POINT('',(25.625182926176,0.,0.));
#60 = SURFACE_CURVE('',#61,(#84,#110),.PCURVE_S1.);
#61 = ( BOUNDED_CURVE() B_SPLINE_CURVE(11,(#62,#63,#64,#65,#66,#67,#68,
    #69,#70,#71,#72,#73,#74,#75,#76,#77,#78,#79,#80,#81,#82,#83),
.UNSPECIFIED.,.T.,.F.) B_SPLINE_CURVE_WITH_KNOTS((12,10,12),(
    4.083576562681E-15,80.11061266654,160.22122533307),.UNSPECIFIED.) 
CURVE() GEOMETRIC_REPRESENTATION_ITEM() RATIONAL_B_SPLINE_CURVE((1.,1.,
    1.,1.000000000001,0.999999999999,1.000000000002,0.999999999998,
    1.000000000001,0.999999999999,1.,1.,1.,1.,1.,1.,1.,1.,1.,1.,1.,1.,1.
)) REPRESENTATION_ITEM('') );
#62 = CARTESIAN_POINT('',(25.625182926176,0.,0.));
#63 = CARTESIAN_POINT('',(25.625182926174,7.212667370188,
    1.457167719821E-16));
#64 = CARTESIAN_POINT('',(23.391985698834,14.523917915504,
    -6.800116025829E-16));
#65 = CARTESIAN_POINT('',(18.824373318787,21.110720360879,
    1.717376241217E-15));
#66 = CARTESIAN_POINT('',(12.198004439234,26.088839559238,
    -2.865763182314E-15));
#67 = CARTESIAN_POINT('',(4.208035870754,28.720674877614,
    3.261280134836E-15));
#68 = CARTESIAN_POINT('',(-4.205505669722,28.709103118904,
    -2.53963516883E-15));
#69 = CARTESIAN_POINT('',(-12.14673821823,26.06456522547,
    1.269817584415E-15));
#70 = CARTESIAN_POINT('',(-18.72720254355,21.152805912658,
    -3.642919299551E-16));
#71 = CARTESIAN_POINT('',(-23.32606002926,14.637108466489,
    8.326672684689E-17));
#72 = CARTESIAN_POINT('',(-25.62518292617,7.318535129797,
    -6.245004513517E-17));
#73 = CARTESIAN_POINT('',(-25.62518292617,-7.318535129797,
    1.52655665886E-16));
#74 = CARTESIAN_POINT('',(-23.32606002927,-14.63710846649,
    -8.500145032286E-16));
#75 = CARTESIAN_POINT('',(-18.72720254354,-21.15280591265,
    2.036565360797E-15));
#76 = CARTESIAN_POINT('',(-12.14673821823,-26.06456522548,
    -3.323730179972E-15));
#77 = CARTESIAN_POINT('',(-4.205505669729,-28.70910311888,
    4.017619570362E-15));
#78 = CARTESIAN_POINT('',(4.208035870772,-28.72067487763,
    -3.708838791638E-15));
#79 = CARTESIAN_POINT('',(12.198004439212,-26.08883955922,
    2.588207426157E-15));
#80 = CARTESIAN_POINT('',(18.824373318804,-21.11072036088,
    -1.294103713079E-15));
#81 = CARTESIAN_POINT('',(23.391985698826,-14.5239179155,
    4.163336342344E-16));
#82 = CARTESIAN_POINT('',(25.625182926177,-7.212667370188,
    -6.938893903907E-17));
#83 = CARTESIAN_POINT('',(25.625182926176,0.,0.));
#84 = PCURVE('',#31,#85);
#85 = DEFINITIONAL_REPRESENTATION('',(#86),#109);
#86 = B_SPLINE_CURVE_WITH_KNOTS('',11,(#87,#88,#89,#90,#91,#92,#93,#94,
    #95,#96,#97,#98,#99,#100,#101,#102,#103,#104,#105,#106,#107,#108),
  .UNSPECIFIED.,.F.,.F.,(12,10,12),(4.083576562681E-15,80.11061266654,
    160.22122533307),.UNSPECIFIED.);
#87 = CARTESIAN_POINT('',(25.625182926176,0.));
#88 = CARTESIAN_POINT('',(25.625182926177,7.212667370189));
#89 = CARTESIAN_POINT('',(23.391985698825,14.523917915499));
#90 = CARTESIAN_POINT('',(18.824373318803,21.110720360897));
#91 = CARTESIAN_POINT('',(12.198004439217,26.088839559201));
#92 = CARTESIAN_POINT('',(4.208035870761,28.720674877667));
#93 = CARTESIAN_POINT('',(-4.205505669713,28.709103118853));
#94 = CARTESIAN_POINT('',(-12.14673821825,26.064565225504));
#95 = CARTESIAN_POINT('',(-18.72720254353,21.152805912643));
#96 = CARTESIAN_POINT('',(-23.32606002927,14.637108466493));
#97 = CARTESIAN_POINT('',(-25.62518292617,7.318535129796));
#98 = CARTESIAN_POINT('',(-25.62518292617,-7.318535129797));
#99 = CARTESIAN_POINT('',(-23.32606002927,-14.63710846648));
#100 = CARTESIAN_POINT('',(-18.72720254354,-21.15280591265));
#101 = CARTESIAN_POINT('',(-12.14673821823,-26.06456522547));
#102 = CARTESIAN_POINT('',(-4.205505669722,-28.70910311888));
#103 = CARTESIAN_POINT('',(4.208035870766,-28.72067487763));
#104 = CARTESIAN_POINT('',(12.198004439215,-26.08883955922));
#105 = CARTESIAN_POINT('',(18.824373318803,-21.11072036088));
#106 = CARTESIAN_POINT('',(23.391985698825,-14.5239179155));
#107 = CARTESIAN_POINT('',(25.625182926177,-7.212667370188));
#108 = CARTESIAN_POINT('',(25.625182926176,-3.907985046681E-14));
#109 = ( GEOMETRIC_REPRESENTATION_CONTEXT(2) 
PARAMETRIC_REPRESENTATION_CONTEXT() REPRESENTATION_CONTEXT('2D SPACE',''
  ) );
#110 = PCURVE('',#111,#178);
#111 = ( BOUNDED_SURFACE() B_SPLINE_SURFACE(2,11,(
    (#112,#113,#114,#115,#116,#117,#118,#119,#120,#121,#122,#123,#124
      ,#125,#126,#127,#128,#129,#130,#131,#132,#133)
    ,(#134,#135,#136,#137,#138,#139,#140,#141,#142,#143,#144,#145,#146
      ,#147,#148,#149,#150,#151,#152,#153,#154,#155)
    ,(#156,#157,#158,#159,#160,#161,#162,#163,#164,#165,#166,#167,#168
      ,#169,#170,#171,#172,#173,#174,#175,#176,#177
)),.UNSPECIFIED.,.F.,.T.,.F.) B_SPLINE_SURFACE_WITH_KNOTS((3,3),(12,10,
    12),(0.,160.22122533307),(4.083576562681E-15,80.11061266654,
160.22122533307),.UNSPECIFIED.) GEOMETRIC_REPRESENTATION_ITEM() 
RATIONAL_B_SPLINE_SURFACE((
    (1.,1.,1.,1.000000000001,0.999999999999,1.000000000002
      ,0.999999999998,1.000000000001,0.999999999999,1.,1.,1.,1.,1.,1.,1.
      ,1.,1.,1.,1.,1.,1.)
    ,(0.988035163332,0.988035163332,0.988035163332,0.988035163333
      ,0.988035163331,0.988035163334,0.988035163331,0.988035163334
      ,0.988035163332,0.988035163333,0.988035163332,0.988035163332
      ,0.988035163332,0.988035163332,0.988035163332,0.988035163332
      ,0.988035163333,0.988035163332,0.988035163333,0.988035163332
      ,0.988035163332,0.988035163332)
    ,(1.,1.,1.,1.000000000001,0.999999999999,1.000000000002
      ,0.999999999998,1.000000000001,0.999999999999,1.,1.,1.,1.,1.,1.,1.
,1.,1.,1.,1.,1.,1.))) REPRESENTATION_ITEM('') SURFACE() );
#112 = CARTESIAN_POINT('',(25.625182926176,0.,0.));
#113 = CARTESIAN_POINT('',(25.625182926174,7.212667370188,
    1.457167719821E-16));
#114 = CARTESIAN_POINT('',(23.391985698834,14.523917915504,
    -6.800116025829E-16));
#115 = CARTESIAN_POINT('',(18.824373318787,21.110720360879,
    1.717376241217E-15));
#116 = CARTESIAN_POINT('',(12.198004439234,26.088839559238,
    -2.865763182314E-15));
#117 = CARTESIAN_POINT('',(4.208035870754,28.720674877614,
    3.261280134836E-15));
#118 = CARTESIAN_POINT('',(-4.205505669722,28.709103118904,
    -2.53963516883E-15));
#119 = CARTESIAN_POINT('',(-12.14673821823,26.06456522547,
    1.269817584415E-15));
#120 = CARTESIAN_POINT('',(-18.72720254355,21.152805912658,
    -3.642919299551E-16));
#121 = CARTESIAN_POINT('',(-23.32606002926,14.637108466489,
    8.326672684689E-17));
#122 = CARTESIAN_POINT('',(-25.62518292617,7.318535129797,
    -6.245004513517E-17));
#123 = CARTESIAN_POINT('',(-25.62518292617,-7.318535129797,
    1.52655665886E-16));
#124 = CARTESIAN_POINT('',(-23.32606002927,-14.63710846649,
    -8.500145032286E-16));
#125 = CARTESIAN_POINT('',(-18.72720254354,-21.15280591265,
    2.036565360797E-15));
#126 = CARTESIAN_POINT('',(-12.14673821823,-26.06456522548,
    -3.323730179972E-15));
#127 = CARTESIAN_POINT('',(-4.205505669729,-28.70910311888,
    4.017619570362E-15));
#128 = CARTESIAN_POINT('',(4.208035870772,-28.72067487763,
    -3.708838791638E-15));
#129 = CARTESIAN_POINT('',(12.198004439212,-26.08883955922,
    2.588207426157E-15));
#130 = CARTESIAN_POINT('',(18.824373318804,-21.11072036088,
    -1.294103713079E-15));
#131 = CARTESIAN_POINT('',(23.391985698826,-14.5239179155,
    4.163336342344E-16));
#132 = CARTESIAN_POINT('',(25.625182926177,-7.212667370188,
    -6.938893903907E-17));
#133 = CARTESIAN_POINT('',(25.625182926176,0.,0.));
#134 = CARTESIAN_POINT('',(25.500305768842,2.109423746788E-15,
    -7.736866702857E-16));
#135 = CARTESIAN_POINT('',(25.50030576884,7.177518454351,
    -5.308253836489E-16));
#136 = CARTESIAN_POINT('',(23.277991403187,14.453139666315,
    6.662378981837E-14));
#137 = CARTESIAN_POINT('',(18.732638003748,21.007843173406,
    -2.512781649422E-13));
#138 = CARTESIAN_POINT('',(12.138560878425,25.961702901063,
    5.166353456154E-13));
#139 = CARTESIAN_POINT('',(4.187529185632,28.580712706583,
    -7.119513312226E-13));
#140 = CARTESIAN_POINT('',(-4.185011314828,28.569197339598,
    6.78991585179E-13));
#141 = CARTESIAN_POINT('',(-12.087544489,25.937546861469,
    -4.425973476607E-13));
#142 = CARTESIAN_POINT('',(-18.63594076309,21.049723633026,
    1.532211857391E-13));
#143 = CARTESIAN_POINT('',(-23.21238700392,14.565778614829,
    -2.306488333659E-14));
#144 = CARTESIAN_POINT('',(-25.50030576884,7.282870297062,
    -7.667477763817E-16));
#145 = CARTESIAN_POINT('',(-25.50030576884,-7.282870297062,
    -7.875644580935E-16));
#146 = CARTESIAN_POINT('',(-23.21238700392,-14.56577861482,
    -4.165418010516E-14));
#147 = CARTESIAN_POINT('',(-18.63594076308,-21.04972363302,
    1.797798021563E-13));
#148 = CARTESIAN_POINT('',(-12.087544489,-25.93754686147,
    -1.93376564761E-13));
#149 = CARTESIAN_POINT('',(-4.185011314828,-28.56919733958,
    6.390721285499E-15));
#150 = CARTESIAN_POINT('',(4.187529185646,-28.58071270659,
    1.437183705377E-13));
#151 = CARTESIAN_POINT('',(12.138560878404,-25.96170290106,
    -7.096059850831E-14));
#152 = CARTESIAN_POINT('',(18.732638003765,-21.0078431734,
    -2.074035387878E-14));
#153 = CARTESIAN_POINT('',(23.277991403179,-14.45313966631,
    6.789707684973E-15));
#154 = CARTESIAN_POINT('',(25.500305768842,-7.17751845435,
    -7.840950111415E-16));
#155 = CARTESIAN_POINT('',(25.500305768842,-3.384792446326E-14,
    -7.736866702857E-16));
#156 = CARTESIAN_POINT('',(25.381369396514,0.,3.805842562997E-02));
#157 = CARTESIAN_POINT('',(25.381369396512,7.144041679013,
    3.805842562997E-02));
#158 = CARTESIAN_POINT('',(23.169420161819,14.385728553041,
    3.80584256301E-02));
#159 = CARTESIAN_POINT('',(18.645266815793,20.909860165672,
    3.805842562949E-02));
#160 = CARTESIAN_POINT('',(12.081945228035,25.840614519195,
    3.805842563095E-02));
#161 = CARTESIAN_POINT('',(4.1679980657,28.447408960406,
    3.805842562861E-02));
#162 = CARTESIAN_POINT('',(-4.165491938536,28.435947302406,
    3.805842563128E-02));
#163 = CARTESIAN_POINT('',(-12.03116678494,25.816571146174,
    3.805842562911E-02));
#164 = CARTESIAN_POINT('',(-18.54902058224,20.951545289981,
    3.805842563027E-02));
#165 = CARTESIAN_POINT('',(-23.10412174905,14.497842140488,
    3.805842562992E-02));
#166 = CARTESIAN_POINT('',(-25.38136939651,7.248902148557,
    3.805842562997E-02));
#167 = CARTESIAN_POINT('',(-25.38136939651,-7.248902148557,
    3.805842562997E-02));
#168 = CARTESIAN_POINT('',(-23.10412174905,-14.49784214048,
    3.805842562989E-02));
#169 = CARTESIAN_POINT('',(-18.54902058222,-20.95154528998,
    3.805842563034E-02));
#170 = CARTESIAN_POINT('',(-12.03116678495,-25.81657114617,
    3.805842562956E-02));
#171 = CARTESIAN_POINT('',(-4.165491938533,-28.4359473024,
    3.805842563003E-02));
#172 = CARTESIAN_POINT('',(4.167998065711,-28.4474089604,
    3.805842563021E-02));
#173 = CARTESIAN_POINT('',(12.081945228017,-25.8406145192,
    3.805842562985E-02));
#174 = CARTESIAN_POINT('',(18.645266815808,-20.90986016566,
    3.805842562993E-02));
#175 = CARTESIAN_POINT('',(23.169420161811,-14.38572855304,
    3.805842562998E-02));
#176 = CARTESIAN_POINT('',(25.381369396514,-7.144041679012,
    3.805842562997E-02));
#177 = CARTESIAN_POINT('',(25.381369396514,-6.216642557883E-15,
    3.805842562997E-02));
#178 = DEFINITIONAL_REPRESENTATION('',(#179),#183);
#179 = LINE('',#180,#181);
#180 = CARTESIAN_POINT('',(0.,0.));
#181 = VECTOR('',#182,1.);
#182 = DIRECTION('',(0.,1.));
#183 = ( GEOMETRIC_REPRESENTATION_CONTEXT(2) 
PARAMETRIC_REPRESENTATION_CONTEXT() REPRESENTATION_CONTEXT('2D SPACE',''
  ) );
#184 = ADVANCED_FACE('',(#185),#43,.T.);
#185 = FACE_BOUND('',#186,.T.);
#186 = EDGE_LOOP('',(#187,#209,#210,#211));
#187 = ORIENTED_EDGE('',*,*,#188,.F.);
#188 = EDGE_CURVE('',#22,#189,#191,.T.);
#189 = VERTEX_POINT('',#190);
#190 = CARTESIAN_POINT('',(27.5,0.,0.8));
#191 = SEAM_CURVE('',#192,(#197,#203),.PCURVE_S1.);
#192 = CIRCLE('',#193,0.8);
#193 = AXIS2_PLACEMENT_3D('',#194,#195,#196);
#194 = CARTESIAN_POINT('',(26.7,0.,0.8));
#195 = DIRECTION('',(0.,-1.,0.));
#196 = DIRECTION('',(1.,0.,0.));
#197 = PCURVE('',#43,#198);
#198 = DEFINITIONAL_REPRESENTATION('',(#199),#202);
#199 = B_SPLINE_CURVE_WITH_KNOTS('',1,(#200,#201),.UNSPECIFIED.,.F.,.F.,
  (2,2),(4.712388980385,6.28318530718),.PIECEWISE_BEZIER_KNOTS.);
#200 = CARTESIAN_POINT('',(0.,4.712388980385));
#201 = CARTESIAN_POINT('',(0.,6.28318530718));
#202 = ( GEOMETRIC_REPRESENTATION_CONTEXT(2) 
PARAMETRIC_REPRESENTATION_CONTEXT() REPRESENTATION_CONTEXT('2D SPACE',''
  ) );
#203 = PCURVE('',#43,#204);
#204 = DEFINITIONAL_REPRESENTATION('',(#205),#208);
#205 = B_SPLINE_CURVE_WITH_KNOTS('',1,(#206,#207),.UNSPECIFIED.,.F.,.F.,
  (2,2),(4.712388980385,6.28318530718),.PIECEWISE_BEZIER_KNOTS.);
#206 = CARTESIAN_POINT('',(6.28318530718,4.712388980385));
#207 = CARTESIAN_POINT('',(6.28318530718,6.28318530718));
#208 = ( GEOMETRIC_REPRESENTATION_CONTEXT(2) 
PARAMETRIC_REPRESENTATION_CONTEXT() REPRESENTATION_CONTEXT('2D SPACE',''
  ) );
#209 = ORIENTED_EDGE('',*,*,#21,.T.);
#210 = ORIENTED_EDGE('',*,*,#188,.T.);
#211 = ORIENTED_EDGE('',*,*,#212,.F.);
#212 = EDGE_CURVE('',#189,#189,#213,.T.);
#213 = SURFACE_CURVE('',#214,(#219,#226),.PCURVE_S1.);
#214 = CIRCLE('',#215,27.5);
#215 = AXIS2_PLACEMENT_3D('',#216,#217,#218);
#216 = CARTESIAN_POINT('',(0.,0.,0.8));
#217 = DIRECTION('',(0.,0.,1.));
#218 = DIRECTION('',(1.,0.,-0.));
#219 = PCURVE('',#43,#220);
#220 = DEFINITIONAL_REPRESENTATION('',(#221),#225);
#221 = LINE('',#222,#223);
#222 = CARTESIAN_POINT('',(0.,6.28318530718));
#223 = VECTOR('',#224,1.);
#224 = DIRECTION('',(1.,0.));
#225 = ( GEOMETRIC_REPRESENTATION_CONTEXT(2) 
PARAMETRIC_REPRESENTATION_CONTEXT() REPRESENTATION_CONTEXT('2D SPACE',''
  ) );
#226 = PCURVE('',#227,#232);
#227 = CYLINDRICAL_SURFACE('',#228,27.5);
#228 = AXIS2_PLACEMENT_3D('',#229,#230,#231);
#229 = CARTESIAN_POINT('',(0.,0.,0.));
#230 = DIRECTION('',(-0.,-0.,-1.));
#231 = DIRECTION('',(1.,0.,0.));
#232 = DEFINITIONAL_REPRESENTATION('',(#233),#237);
#233 = LINE('',#234,#235);
#234 = CARTESIAN_POINT('',(-0.,-0.8));
#235 = VECTOR('',#236,1.);
#236 = DIRECTION('',(-1.,0.));
#237 = ( GEOMETRIC_REPRESENTATION_CONTEXT(2) 
PARAMETRIC_REPRESENTATION_CONTEXT() REPRESENTATION_CONTEXT('2D SPACE',''
  ) );
#238 = ADVANCED_FACE('',(#239),#111,.T.);
#239 = FACE_BOUND('',#240,.T.);
#240 = EDGE_LOOP('',(#241,#262,#338,#339));
#241 = ORIENTED_EDGE('',*,*,#242,.T.);
#242 = EDGE_CURVE('',#58,#243,#245,.T.);
#243 = VERTEX_POINT('',#244);
#244 = CARTESIAN_POINT('',(25.381369396514,0.,3.805842562997E-02));
#245 = SEAM_CURVE('',#246,(#250,#256),.PCURVE_S1.);
#246 = ( BOUNDED_CURVE() B_SPLINE_CURVE(2,(#247,#248,#249),
.UNSPECIFIED.,.F.,.F.) B_SPLINE_CURVE_WITH_KNOTS((3,3),(0.,
160.22122533307),.PIECEWISE_BEZIER_KNOTS.) CURVE() 
GEOMETRIC_REPRESENTATION_ITEM() RATIONAL_B_SPLINE_CURVE((1.,
0.988035163332,1.)) REPRESENTATION_ITEM('') );
#247 = CARTESIAN_POINT('',(25.625182926176,0.,0.));
#248 = CARTESIAN_POINT('',(25.500305768842,2.109423746788E-15,
    -7.736866702857E-16));
#249 = CARTESIAN_POINT('',(25.381369396514,0.,3.805842562997E-02));
#250 = PCURVE('',#111,#251);
#251 = DEFINITIONAL_REPRESENTATION('',(#252),#255);
#252 = B_SPLINE_CURVE_WITH_KNOTS('',1,(#253,#254),.UNSPECIFIED.,.F.,.F.,
  (2,2),(0.,160.22122533307),.PIECEWISE_BEZIER_KNOTS.);
#253 = CARTESIAN_POINT('',(0.,4.083576562681E-15));
#254 = CARTESIAN_POINT('',(160.22122533307,4.083576562681E-15));
#255 = ( GEOMETRIC_REPRESENTATION_CONTEXT(2) 
PARAMETRIC_REPRESENTATION_CONTEXT() REPRESENTATION_CONTEXT('2D SPACE',''
  ) );
#256 = PCURVE('',#111,#257);
#257 = DEFINITIONAL_REPRESENTATION('',(#258),#261);
#258 = B_SPLINE_CURVE_WITH_KNOTS('',1,(#259,#260),.UNSPECIFIED.,.F.,.F.,
  (2,2),(0.,160.22122533307),.PIECEWISE_BEZIER_KNOTS.);
#259 = CARTESIAN_POINT('',(0.,160.22122533307));
#260 = CARTESIAN_POINT('',(160.22122533307,160.22122533307));
#261 = ( GEOMETRIC_REPRESENTATION_CONTEXT(2) 
PARAMETRIC_REPRESENTATION_CONTEXT() REPRESENTATION_CONTEXT('2D SPACE',''
  ) );
#262 = ORIENTED_EDGE('',*,*,#263,.T.);
#263 = EDGE_CURVE('',#243,#243,#264,.T.);
#264 = SURFACE_CURVE('',#265,(#288,#295),.PCURVE_S1.);
#265 = ( BOUNDED_CURVE() B_SPLINE_CURVE(11,(#266,#267,#268,#269,#270,
    #271,#272,#273,#274,#275,#276,#277,#278,#279,#280,#281,#282,#283,
    #284,#285,#286,#287),.UNSPECIFIED.,.T.,.F.) 
B_SPLINE_CURVE_WITH_KNOTS((12,10,12),(4.083576562681E-15,80.11061266654,
160.22122533307),.UNSPECIFIED.) CURVE() GEOMETRIC_REPRESENTATION_ITEM() 
RATIONAL_B_SPLINE_CURVE((1.,1.,1.,1.000000000001,0.999999999999,
    1.000000000002,0.999999999998,1.000000000001,0.999999999999,1.,1.,1.
,1.,1.,1.,1.,1.,1.,1.,1.,1.,1.)) REPRESENTATION_ITEM('') );
#266 = CARTESIAN_POINT('',(25.381369396514,0.,3.805842562997E-02));
#267 = CARTESIAN_POINT('',(25.381369396512,7.144041679013,
    3.805842562997E-02));
#268 = CARTESIAN_POINT('',(23.169420161819,14.385728553041,
    3.80584256301E-02));
#269 = CARTESIAN_POINT('',(18.645266815793,20.909860165672,
    3.805842562949E-02));
#270 = CARTESIAN_POINT('',(12.081945228035,25.840614519195,
    3.805842563095E-02));
#271 = CARTESIAN_POINT('',(4.1679980657,28.447408960406,
    3.805842562861E-02));
#272 = CARTESIAN_POINT('',(-4.165491938536,28.435947302406,
    3.805842563128E-02));
#273 = CARTESIAN_POINT('',(-12.03116678494,25.816571146174,
    3.805842562911E-02));
#274 = CARTESIAN_POINT('',(-18.54902058224,20.951545289981,
    3.805842563027E-02));
#275 = CARTESIAN_POINT('',(-23.10412174905,14.497842140488,
    3.805842562992E-02));
#276 = CARTESIAN_POINT('',(-25.38136939651,7.248902148557,
    3.805842562997E-02));
#277 = CARTESIAN_POINT('',(-25.38136939651,-7.248902148557,
    3.805842562997E-02));
#278 = CARTESIAN_POINT('',(-23.10412174905,-14.49784214048,
    3.805842562989E-02));
#279 = CARTESIAN_POINT('',(-18.54902058222,-20.95154528998,
    3.805842563034E-02));
#280 = CARTESIAN_POINT('',(-12.03116678495,-25.81657114617,
    3.805842562956E-02));
#281 = CARTESIAN_POINT('',(-4.165491938533,-28.4359473024,
    3.805842563003E-02));
#282 = CARTESIAN_POINT('',(4.167998065711,-28.4474089604,
    3.805842563021E-02));
#283 = CARTESIAN_POINT('',(12.081945228017,-25.8406145192,
    3.805842562985E-02));
#284 = CARTESIAN_POINT('',(18.645266815808,-20.90986016566,
    3.805842562993E-02));
#285 = CARTESIAN_POINT('',(23.169420161811,-14.38572855304,
    3.805842562998E-02));
#286 = CARTESIAN_POINT('',(25.381369396514,-7.144041679012,
    3.805842562997E-02));
#287 = CARTESIAN_POINT('',(25.381369396514,-6.216642557883E-15,
    3.805842562997E-02));
#288 = PCURVE('',#111,#289);
#289 = DEFINITIONAL_REPRESENTATION('',(#290),#294);
#290 = LINE('',#291,#292);
#291 = CARTESIAN_POINT('',(160.22122533307,0.));
#292 = VECTOR('',#293,1.);
#293 = DIRECTION('',(0.,1.));
#294 = ( GEOMETRIC_REPRESENTATION_CONTEXT(2) 
PARAMETRIC_REPRESENTATION_CONTEXT() REPRESENTATION_CONTEXT('2D SPACE',''
  ) );
#295 = PCURVE('',#296,#301);
#296 = SPHERICAL_SURFACE('',#297,83.28125);
#297 = AXIS2_PLACEMENT_3D('',#298,#299,#300);
#298 = CARTESIAN_POINT('',(0.,0.,-79.28125));
#299 = DIRECTION('',(0.,0.,1.));
#300 = DIRECTION('',(1.,0.,0.));
#301 = DEFINITIONAL_REPRESENTATION('',(#302),#337);
#302 = B_SPLINE_CURVE_WITH_KNOTS('',9,(#303,#304,#305,#306,#307,#308,
    #309,#310,#311,#312,#313,#314,#315,#316,#317,#318,#319,#320,#321,
    #322,#323,#324,#325,#326,#327,#328,#329,#330,#331,#332,#333,#334,
    #335,#336),.UNSPECIFIED.,.F.,.F.,(10,8,8,8,10),(4.083576562681E-15,
    40.05530633327,80.11061266654,120.16591899981,160.22122533307),
  .UNSPECIFIED.);
#303 = CARTESIAN_POINT('',(-1.110223024625E-16,1.261102637596));
#304 = CARTESIAN_POINT('',(0.172008183644,1.261102637596));
#305 = CARTESIAN_POINT('',(0.345485667567,1.261102637596));
#306 = CARTESIAN_POINT('',(0.519908556628,1.261102637596));
#307 = CARTESIAN_POINT('',(0.694857360008,1.261102637596));
#308 = CARTESIAN_POINT('',(0.869996861867,1.261102637596));
#309 = CARTESIAN_POINT('',(1.045158504663,1.261102637596));
#310 = CARTESIAN_POINT('',(1.220240210353,1.261102637596));
#311 = CARTESIAN_POINT('',(1.395212973228,1.261102637596));
#312 = CARTESIAN_POINT('',(1.744941203674,1.261102637596));
#313 = CARTESIAN_POINT('',(1.919696692251,1.261102637596));
#314 = CARTESIAN_POINT('',(2.094344948611,1.261102637596));
#315 = CARTESIAN_POINT('',(2.268919706767,1.261102637596));
#316 = CARTESIAN_POINT('',(2.44346088249,1.261102637596));
#317 = CARTESIAN_POINT('',(2.617994003193,1.261102637596));
#318 = CARTESIAN_POINT('',(2.792526778386,1.261102637596));
#319 = CARTESIAN_POINT('',(2.967059672826,1.261102637596));
#320 = CARTESIAN_POINT('',(3.316125634354,1.261102637596));
#321 = CARTESIAN_POINT('',(3.490658528794,1.261102637596));
#322 = CARTESIAN_POINT('',(3.665191303986,1.261102637596));
#323 = CARTESIAN_POINT('',(3.83972442469,1.261102637596));
#324 = CARTESIAN_POINT('',(4.014265600412,1.261102637596));
#325 = CARTESIAN_POINT('',(4.188840358569,1.261102637596));
#326 = CARTESIAN_POINT('',(4.363488614929,1.261102637596));
#327 = CARTESIAN_POINT('',(4.538244103506,1.261102637596));
#328 = CARTESIAN_POINT('',(4.887972333951,1.261102637596));
#329 = CARTESIAN_POINT('',(5.062945096826,1.261102637596));
#330 = CARTESIAN_POINT('',(5.238026802516,1.261102637596));
#331 = CARTESIAN_POINT('',(5.413188445313,1.261102637596));
#332 = CARTESIAN_POINT('',(5.588327947171,1.261102637596));
#333 = CARTESIAN_POINT('',(5.763276750552,1.261102637596));
#334 = CARTESIAN_POINT('',(5.937699639612,1.261102637596));
#335 = CARTESIAN_POINT('',(6.111177123536,1.261102637596));
#336 = CARTESIAN_POINT('',(6.28318530718,1.261102637596));
#337 = ( GEOMETRIC_REPRESENTATION_CONTEXT(2) 
PARAMETRIC_REPRESENTATION_CONTEXT() REPRESENTATION_CONTEXT('2D SPACE',''
  ) );
#338 = ORIENTED_EDGE('',*,*,#242,.F.);
#339 = ORIENTED_EDGE('',*,*,#57,.F.);
#340 = ADVANCED_FACE('',(#341),#227,.T.);
#341 = FACE_BOUND('',#342,.F.);
#342 = EDGE_LOOP('',(#343,#366,#393,#394));
#343 = ORIENTED_EDGE('',*,*,#344,.T.);
#344 = EDGE_CURVE('',#189,#345,#347,.T.);
#345 = VERTEX_POINT('',#346);
#346 = CARTESIAN_POINT('',(27.5,0.,3.2));
#347 = SEAM_CURVE('',#348,(#352,#359),.PCURVE_S1.);
#348 = LINE('',#349,#350);
#349 = CARTESIAN_POINT('',(27.5,0.,0.));
#350 = VECTOR('',#351,1.);
#351 = DIRECTION('',(0.,0.,1.));
#352 = PCURVE('',#227,#353);
#353 = DEFINITIONAL_REPRESENTATION('',(#354),#358);
#354 = LINE('',#355,#356);
#355 = CARTESIAN_POINT('',(-0.,0.));
#356 = VECTOR('',#357,1.);
#357 = DIRECTION('',(-0.,-1.));
#358 = ( GEOMETRIC_REPRESENTATION_CONTEXT(2) 
PARAMETRIC_REPRESENTATION_CONTEXT() REPRESENTATION_CONTEXT('2D SPACE',''
  ) );
#359 = PCURVE('',#227,#360);
#360 = DEFINITIONAL_REPRESENTATION('',(#361),#365);
#361 = LINE('',#362,#363);
#362 = CARTESIAN_POINT('',(-6.28318530718,0.));
#363 = VECTOR('',#364,1.);
#364 = DIRECTION('',(-0.,-1.));
#365 = ( GEOMETRIC_REPRESENTATION_CONTEXT(2) 
PARAMETRIC_REPRESENTATION_CONTEXT() REPRESENTATION_CONTEXT('2D SPACE',''
  ) );
#366 = ORIENTED_EDGE('',*,*,#367,.T.);
#367 = EDGE_CURVE('',#345,#345,#368,.T.);
#368 = SURFACE_CURVE('',#369,(#374,#381),.PCURVE_S1.);
#369 = CIRCLE('',#370,27.5);
#370 = AXIS2_PLACEMENT_3D('',#371,#372,#373);
#371 = CARTESIAN_POINT('',(0.,0.,3.2));
#372 = DIRECTION('',(0.,0.,1.));
#373 = DIRECTION('',(1.,0.,-0.));
#374 = PCURVE('',#227,#375);
#375 = DEFINITIONAL_REPRESENTATION('',(#376),#380);
#376 = LINE('',#377,#378);
#377 = CARTESIAN_POINT('',(-0.,-3.2));
#378 = VECTOR('',#379,1.);
#379 = DIRECTION('',(-1.,0.));
#380 = ( GEOMETRIC_REPRESENTATION_CONTEXT(2) 
PARAMETRIC_REPRESENTATION_CONTEXT() REPRESENTATION_CONTEXT('2D SPACE',''
  ) );
#381 = PCURVE('',#382,#387);
#382 = TOROIDAL_SURFACE('',#383,26.7,0.8);
#383 = AXIS2_PLACEMENT_3D('',#384,#385,#386);
#384 = CARTESIAN_POINT('',(0.,0.,3.2));
#385 = DIRECTION('',(0.,0.,1.));
#386 = DIRECTION('',(1.,0.,-0.));
#387 = DEFINITIONAL_REPRESENTATION('',(#388),#392);
#388 = LINE('',#389,#390);
#389 = CARTESIAN_POINT('',(0.,0.));
#390 = VECTOR('',#391,1.);
#391 = DIRECTION('',(1.,0.));
#392 = ( GEOMETRIC_REPRESENTATION_CONTEXT(2) 
PARAMETRIC_REPRESENTATION_CONTEXT() REPRESENTATION_CONTEXT('2D SPACE',''
  ) );
#393 = ORIENTED_EDGE('',*,*,#344,.F.);
#394 = ORIENTED_EDGE('',*,*,#212,.F.);
#395 = ADVANCED_FACE('',(#396),#296,.F.);
#396 = FACE_BOUND('',#397,.F.);
#397 = EDGE_LOOP('',(#398,#422,#423,#424));
#398 = ORIENTED_EDGE('',*,*,#399,.F.);
#399 = EDGE_CURVE('',#243,#400,#402,.T.);
#400 = VERTEX_POINT('',#401);
#401 = CARTESIAN_POINT('',(6.865954383572,-1.681673811787E-15,
    3.716492571501));
#402 = SEAM_CURVE('',#403,(#408,#415),.PCURVE_S1.);
#403 = CIRCLE('',#404,83.28125);
#404 = AXIS2_PLACEMENT_3D('',#405,#406,#407);
#405 = CARTESIAN_POINT('',(0.,0.,-79.28125));
#406 = DIRECTION('',(-2.449293598295E-16,-1.,0.));
#407 = DIRECTION('',(1.,-2.449293598295E-16,0.));
#408 = PCURVE('',#296,#409);
#409 = DEFINITIONAL_REPRESENTATION('',(#410),#414);
#410 = LINE('',#411,#412);
#411 = CARTESIAN_POINT('',(0.,-6.28318530718));
#412 = VECTOR('',#413,1.);
#413 = DIRECTION('',(0.,1.));
#414 = ( GEOMETRIC_REPRESENTATION_CONTEXT(2) 
PARAMETRIC_REPRESENTATION_CONTEXT() REPRESENTATION_CONTEXT('2D SPACE',''
  ) );
#415 = PCURVE('',#296,#416);
#416 = DEFINITIONAL_REPRESENTATION('',(#417),#421);
#417 = LINE('',#418,#419);
#418 = CARTESIAN_POINT('',(6.28318530718,-6.28318530718));
#419 = VECTOR('',#420,1.);
#420 = DIRECTION('',(0.,1.));
#421 = ( GEOMETRIC_REPRESENTATION_CONTEXT(2) 
PARAMETRIC_REPRESENTATION_CONTEXT() REPRESENTATION_CONTEXT('2D SPACE',''
  ) );
#422 = ORIENTED_EDGE('',*,*,#263,.T.);
#423 = ORIENTED_EDGE('',*,*,#399,.T.);
#424 = ORIENTED_EDGE('',*,*,#425,.T.);
#425 = EDGE_CURVE('',#400,#400,#426,.T.);
#426 = SURFACE_CURVE('',#427,(#443,#491),.PCURVE_S1.);
#427 = ( BOUNDED_CURVE() B_SPLINE_CURVE(14,(#428,#429,#430,#431,#432,
    #433,#434,#435,#436,#437,#438,#439,#440,#441,#442),.UNSPECIFIED.,.T.
,.F.) B_SPLINE_CURVE_WITH_KNOTS((15,15),(2.824774849514E-15,
37.699111843078),.PIECEWISE_BEZIER_KNOTS.) CURVE() 
GEOMETRIC_REPRESENTATION_ITEM() RATIONAL_B_SPLINE_CURVE((1.,1.,
    0.999999999999,1.000000000003,0.999999999994,1.00000000001,
    0.999999999987,1.000000000015,0.999999999986,1.000000000011,
    0.999999999993,1.000000000003,0.999999999999,1.,1.)) 
REPRESENTATION_ITEM('') );
#428 = CARTESIAN_POINT('',(6.865954383572,-1.681673811787E-15,
    3.716492571501));
#429 = CARTESIAN_POINT('',(6.86595438357,-3.036858023568,3.716492571501)
  );
#430 = CARTESIAN_POINT('',(5.41965515374,-6.138361186744,3.716492571501)
  );
#431 = CARTESIAN_POINT('',(2.425067060319,-8.496124765366,3.716492571501
    ));
#432 = CARTESIAN_POINT('',(-1.659335641378,-9.271245304766,
    3.716492571501));
#433 = CARTESIAN_POINT('',(-5.89030705694,-7.736959675313,3.716492571501
    ));
#434 = CARTESIAN_POINT('',(-8.728600169168,-4.699177249479,
    3.716492571501));
#435 = CARTESIAN_POINT('',(-10.52413186721,5.555960466003E-11,
    3.716492571501));
#436 = CARTESIAN_POINT('',(-8.728600169171,4.699177249383,3.716492571502
    ));
#437 = CARTESIAN_POINT('',(-5.890307056939,7.736959675376,3.716492571501
    ));
#438 = CARTESIAN_POINT('',(-1.659335641376,9.271245304734,3.716492571502
    ));
#439 = CARTESIAN_POINT('',(2.425067060316,8.496124765379,3.716492571501)
  );
#440 = CARTESIAN_POINT('',(5.419655153742,6.13836118674,3.716492571501)
  );
#441 = CARTESIAN_POINT('',(6.86595438357,3.036858023569,3.716492571501)
  );
#442 = CARTESIAN_POINT('',(6.865954383572,0.,3.716492571501));
#443 = PCURVE('',#296,#444);
#444 = DEFINITIONAL_REPRESENTATION('',(#445),#490);
#445 = B_SPLINE_CURVE_WITH_KNOTS('',8,(#446,#447,#448,#449,#450,#451,
    #452,#453,#454,#455,#456,#457,#458,#459,#460,#461,#462,#463,#464,
    #465,#466,#467,#468,#469,#470,#471,#472,#473,#474,#475,#476,#477,
    #478,#479,#480,#481,#482,#483,#484,#485,#486,#487,#488,#489),
  .UNSPECIFIED.,.F.,.F.,(9,7,7,7,7,7,9),(2.824774849514E-15,
    4.712388980385,9.424777960769,18.849555921539,28.274333882308,
    32.986722862693,37.699111843078),.UNSPECIFIED.);
#446 = CARTESIAN_POINT('',(6.28318530718,1.488259668498));
#447 = CARTESIAN_POINT('',(6.18643070388,1.488259668498));
#448 = CARTESIAN_POINT('',(6.089198803318,1.488259668498));
#449 = CARTESIAN_POINT('',(5.99160024965,1.488259668498));
#450 = CARTESIAN_POINT('',(5.893717591068,1.488259668498));
#451 = CARTESIAN_POINT('',(5.795614962502,1.488259668498));
#452 = CARTESIAN_POINT('',(5.697367402328,1.488259668498));
#453 = CARTESIAN_POINT('',(5.59901885885,1.488259668498));
#454 = CARTESIAN_POINT('',(5.402201923145,1.488259668498));
#455 = CARTESIAN_POINT('',(5.303733207387,1.488259668498));
#456 = CARTESIAN_POINT('',(5.205243129356,1.488259668498));
#457 = CARTESIAN_POINT('',(5.106758483537,1.488259668498));
#458 = CARTESIAN_POINT('',(5.008296137355,1.488259668498));
#459 = CARTESIAN_POINT('',(4.909865195272,1.488259668498));
#460 = CARTESIAN_POINT('',(4.811469162871,1.488259668498));
#461 = CARTESIAN_POINT('',(4.516386007119,1.488259668498));
#462 = CARTESIAN_POINT('',(4.319803109513,1.488259668498));
#463 = CARTESIAN_POINT('',(4.123361563276,1.488259668498));
#464 = CARTESIAN_POINT('',(3.926991988212,1.488259668498));
#465 = CARTESIAN_POINT('',(3.730640442521,1.488259668498));
#466 = CARTESIAN_POINT('',(3.534289388033,1.488259668498));
#467 = CARTESIAN_POINT('',(3.337941186125,1.488259668498));
#468 = CARTESIAN_POINT('',(2.945244121055,1.488259668498));
#469 = CARTESIAN_POINT('',(2.748895919147,1.488259668498));
#470 = CARTESIAN_POINT('',(2.552544864659,1.488259668498));
#471 = CARTESIAN_POINT('',(2.356193318968,1.488259668498));
#472 = CARTESIAN_POINT('',(2.159823743903,1.488259668498));
#473 = CARTESIAN_POINT('',(1.963382197667,1.488259668498));
#474 = CARTESIAN_POINT('',(1.766799300061,1.488259668498));
#475 = CARTESIAN_POINT('',(1.471716144308,1.488259668498));
#476 = CARTESIAN_POINT('',(1.373320111908,1.488259668498));
#477 = CARTESIAN_POINT('',(1.274889169824,1.488259668498));
#478 = CARTESIAN_POINT('',(1.176426823643,1.488259668498));
#479 = CARTESIAN_POINT('',(1.077942177823,1.488259668498));
#480 = CARTESIAN_POINT('',(0.979452099793,1.488259668498));
#481 = CARTESIAN_POINT('',(0.880983384035,1.488259668498));
#482 = CARTESIAN_POINT('',(0.68416644833,1.488259668498));
#483 = CARTESIAN_POINT('',(0.585817904852,1.488259668498));
#484 = CARTESIAN_POINT('',(0.48757034468,1.488259668498));
#485 = CARTESIAN_POINT('',(0.389467716114,1.488259668498));
#486 = CARTESIAN_POINT('',(0.291585057526,1.488259668498));
#487 = CARTESIAN_POINT('',(0.193986503869,1.488259668498));
#488 = CARTESIAN_POINT('',(9.675460329958E-02,1.488259668498));
#489 = CARTESIAN_POINT('',(2.617320196551E-15,1.488259668498));
#490 = ( GEOMETRIC_REPRESENTATION_CONTEXT(2) 
PARAMETRIC_REPRESENTATION_CONTEXT() REPRESENTATION_CONTEXT('2D SPACE',''
  ) );
#491 = PCURVE('',#492,#538);
#492 = ( BOUNDED_SURFACE() B_SPLINE_SURFACE(2,14,(
    (#493,#494,#495,#496,#497,#498,#499,#500,#501,#502,#503,#504,#505
      ,#506,#507)
    ,(#508,#509,#510,#511,#512,#513,#514,#515,#516,#517,#518,#519,#520
      ,#521,#522)
    ,(#523,#524,#525,#526,#527,#528,#529,#530,#531,#532,#533,#534,#535
      ,#536,#537
)),.UNSPECIFIED.,.F.,.T.,.F.) B_SPLINE_SURFACE_WITH_KNOTS((3,3),(15,15),
  (0.,37.699111843078),(2.824774849514E-15,37.699111843078),
.PIECEWISE_BEZIER_KNOTS.) GEOMETRIC_REPRESENTATION_ITEM() 
RATIONAL_B_SPLINE_SURFACE((
    (1.,1.,0.999999999999,1.000000000003,0.999999999994,1.00000000001
      ,0.999999999987,1.000000000015,0.999999999986,1.000000000011
      ,0.999999999993,1.000000000003,0.999999999999,1.,1.)
    ,(0.677331905544,0.677331905544,0.677331905543,0.677331905545
      ,0.677331905541,0.677331905549,0.677331905537,0.677331905551
      ,0.677331905537,0.677331905549,0.677331905541,0.677331905545
      ,0.677331905543,0.677331905544,0.677331905544)
    ,(1.,1.,0.999999999999,1.000000000003,0.999999999994,1.00000000001
      ,0.999999999987,1.000000000015,0.999999999986,1.000000000011
      ,0.999999999993,1.000000000003,0.999999999999,1.,1.
))) REPRESENTATION_ITEM('') SURFACE() );
#493 = CARTESIAN_POINT('',(6.865954383572,-1.681673811787E-15,
    3.716492571501));
#494 = CARTESIAN_POINT('',(6.86595438357,-3.036858023568,3.716492571501)
  );
#495 = CARTESIAN_POINT('',(5.41965515374,-6.138361186744,3.716492571501)
  );
#496 = CARTESIAN_POINT('',(2.425067060319,-8.496124765366,3.716492571501
    ));
#497 = CARTESIAN_POINT('',(-1.659335641378,-9.271245304766,
    3.716492571501));
#498 = CARTESIAN_POINT('',(-5.89030705694,-7.736959675313,3.716492571501
    ));
#499 = CARTESIAN_POINT('',(-8.728600169168,-4.699177249479,
    3.716492571501));
#500 = CARTESIAN_POINT('',(-10.52413186721,5.555960466003E-11,
    3.716492571501));
#501 = CARTESIAN_POINT('',(-8.728600169171,4.699177249383,3.716492571502
    ));
#502 = CARTESIAN_POINT('',(-5.890307056939,7.736959675376,3.716492571501
    ));
#503 = CARTESIAN_POINT('',(-1.659335641376,9.271245304734,3.716492571502
    ));
#504 = CARTESIAN_POINT('',(2.425067060316,8.496124765379,3.716492571501)
  );
#505 = CARTESIAN_POINT('',(5.419655153742,6.13836118674,3.716492571501)
  );
#506 = CARTESIAN_POINT('',(6.86595438357,3.036858023569,3.716492571501)
  );
#507 = CARTESIAN_POINT('',(6.865954383572,0.,3.716492571501));
#508 = CARTESIAN_POINT('',(6.,4.236194728335E-15,3.788128294494));
#509 = CARTESIAN_POINT('',(5.999999999998,-2.653840547645,3.788128294494
    ));
#510 = CARTESIAN_POINT('',(4.736112287646,-5.364172999545,3.788128294494
    ));
#511 = CARTESIAN_POINT('',(2.119210462088,-7.424568493227,3.788128294495
    ));
#512 = CARTESIAN_POINT('',(-1.450055344381,-8.101928547861,3.78812829449
    ));
#513 = CARTESIAN_POINT('',(-5.147404187015,-6.761151539687,
    3.788128294502));
#514 = CARTESIAN_POINT('',(-7.627723414529,-4.106503178104,3.78812829448
    ));
#515 = CARTESIAN_POINT('',(-9.196797368014,5.721115074742E-11,
    3.788128294512));
#516 = CARTESIAN_POINT('',(-7.627723414527,4.106503178002,3.788128294477
    ));
#517 = CARTESIAN_POINT('',(-5.147404187018,6.76115153976,3.788128294505)
  );
#518 = CARTESIAN_POINT('',(-1.450055344379,8.101928547819,3.788128294488
    ));
#519 = CARTESIAN_POINT('',(2.119210462087,7.424568493245,3.788128294496)
  );
#520 = CARTESIAN_POINT('',(4.736112287646,5.364172999539,3.788128294493)
  );
#521 = CARTESIAN_POINT('',(5.999999999998,2.653840547646,3.788128294494)
  );
#522 = CARTESIAN_POINT('',(6.,1.484663086915E-14,3.788128294494));
#523 = CARTESIAN_POINT('',(6.,-1.469576158977E-15,2.919215944923));
#524 = CARTESIAN_POINT('',(5.999999999998,-2.653840547645,2.919215944923
    ));
#525 = CARTESIAN_POINT('',(4.736112287649,-5.364172999546,2.919215944923
    ));
#526 = CARTESIAN_POINT('',(2.11921046208,-7.424568493224,2.919215944924)
  );
#527 = CARTESIAN_POINT('',(-1.450055344368,-8.10192854787,2.919215944921
    ));
#528 = CARTESIAN_POINT('',(-5.147404187027,-6.761151539673,
    2.919215944928));
#529 = CARTESIAN_POINT('',(-7.627723414524,-4.10650317812,2.919215944914
    ));
#530 = CARTESIAN_POINT('',(-9.196797368011,6.249956455151E-11,
    2.919215944936));
#531 = CARTESIAN_POINT('',(-7.627723414529,4.106503178011,2.919215944911
    ));
#532 = CARTESIAN_POINT('',(-5.147404187022,6.761151539746,2.919215944931
    ));
#533 = CARTESIAN_POINT('',(-1.45005534437,8.101928547831,2.91921594492)
  );
#534 = CARTESIAN_POINT('',(2.119210462079,7.42456849324,2.919215944924)
  );
#535 = CARTESIAN_POINT('',(4.73611228765,5.36417299954,2.919215944923));
#536 = CARTESIAN_POINT('',(5.999999999997,2.653840547646,2.919215944923)
  );
#537 = CARTESIAN_POINT('',(6.,0.,2.919215944923));
#538 = DEFINITIONAL_REPRESENTATION('',(#539),#543);
#539 = LINE('',#540,#541);
#540 = CARTESIAN_POINT('',(0.,0.));
#541 = VECTOR('',#542,1.);
#542 = DIRECTION('',(0.,1.));
#543 = ( GEOMETRIC_REPRESENTATION_CONTEXT(2) 
PARAMETRIC_REPRESENTATION_CONTEXT() REPRESENTATION_CONTEXT('2D SPACE',''
  ) );
#544 = ADVANCED_FACE('',(#545),#382,.T.);
#545 = FACE_BOUND('',#546,.T.);
#546 = EDGE_LOOP('',(#547,#569,#570,#571));
#547 = ORIENTED_EDGE('',*,*,#548,.F.);
#548 = EDGE_CURVE('',#345,#549,#551,.T.);
#549 = VERTEX_POINT('',#550);
#550 = CARTESIAN_POINT('',(26.7,0.,4.));
#551 = SEAM_CURVE('',#552,(#557,#563),.PCURVE_S1.);
#552 = CIRCLE('',#553,0.8);
#553 = AXIS2_PLACEMENT_3D('',#554,#555,#556);
#554 = CARTESIAN_POINT('',(26.7,0.,3.2));
#555 = DIRECTION('',(0.,-1.,0.));
#556 = DIRECTION('',(1.,0.,0.));
#557 = PCURVE('',#382,#558);
#558 = DEFINITIONAL_REPRESENTATION('',(#559),#562);
#559 = B_SPLINE_CURVE_WITH_KNOTS('',1,(#560,#561),.UNSPECIFIED.,.F.,.F.,
  (2,2),(0.,1.570796326795),.PIECEWISE_BEZIER_KNOTS.);
#560 = CARTESIAN_POINT('',(0.,0.));
#561 = CARTESIAN_POINT('',(0.,1.570796326795));
#562 = ( GEOMETRIC_REPRESENTATION_CONTEXT(2) 
PARAMETRIC_REPRESENTATION_CONTEXT() REPRESENTATION_CONTEXT('2D SPACE',''
  ) );
#563 = PCURVE('',#382,#564);
#564 = DEFINITIONAL_REPRESENTATION('',(#565),#568);
#565 = B_SPLINE_CURVE_WITH_KNOTS('',1,(#566,#567),.UNSPECIFIED.,.F.,.F.,
  (2,2),(0.,1.570796326795),.PIECEWISE_BEZIER_KNOTS.);
#566 = CARTESIAN_POINT('',(6.28318530718,0.));
#567 = CARTESIAN_POINT('',(6.28318530718,1.570796326795));
#568 = ( GEOMETRIC_REPRESENTATION_CONTEXT(2) 
PARAMETRIC_REPRESENTATION_CONTEXT() REPRESENTATION_CONTEXT('2D SPACE',''
  ) );
#569 = ORIENTED_EDGE('',*,*,#367,.T.);
#570 = ORIENTED_EDGE('',*,*,#548,.T.);
#571 = ORIENTED_EDGE('',*,*,#572,.F.);
#572 = EDGE_CURVE('',#549,#549,#573,.T.);
#573 = SURFACE_CURVE('',#574,(#579,#586),.PCURVE_S1.);
#574 = CIRCLE('',#575,26.7);
#575 = AXIS2_PLACEMENT_3D('',#576,#577,#578);
#576 = CARTESIAN_POINT('',(0.,0.,4.));
#577 = DIRECTION('',(0.,0.,1.));
#578 = DIRECTION('',(1.,0.,-0.));
#579 = PCURVE('',#382,#580);
#580 = DEFINITIONAL_REPRESENTATION('',(#581),#585);
#581 = LINE('',#582,#583);
#582 = CARTESIAN_POINT('',(0.,1.570796326795));
#583 = VECTOR('',#584,1.);
#584 = DIRECTION('',(1.,0.));
#585 = ( GEOMETRIC_REPRESENTATION_CONTEXT(2) 
PARAMETRIC_REPRESENTATION_CONTEXT() REPRESENTATION_CONTEXT('2D SPACE',''
  ) );
#586 = PCURVE('',#587,#592);
#587 = PLANE('',#588);
#588 = AXIS2_PLACEMENT_3D('',#589,#590,#591);
#589 = CARTESIAN_POINT('',(-1.591203063319E-15,2.059813227419E-15,4.));
#590 = DIRECTION('',(0.,0.,1.));
#591 = DIRECTION('',(1.,0.,-0.));
#592 = DEFINITIONAL_REPRESENTATION('',(#593),#597);
#593 = CIRCLE('',#594,26.7);
#594 = AXIS2_PLACEMENT_2D('',#595,#596);
#595 = CARTESIAN_POINT('',(1.591203063319E-15,-2.059813227419E-15));
#596 = DIRECTION('',(1.,0.));
#597 = ( GEOMETRIC_REPRESENTATION_CONTEXT(2) 
PARAMETRIC_REPRESENTATION_CONTEXT() REPRESENTATION_CONTEXT('2D SPACE',''
  ) );
#598 = ADVANCED_FACE('',(#599),#492,.F.);
#599 = FACE_BOUND('',#600,.F.);
#600 = EDGE_LOOP('',(#601,#622,#677,#678));
#601 = ORIENTED_EDGE('',*,*,#602,.T.);
#602 = EDGE_CURVE('',#400,#603,#605,.T.);
#603 = VERTEX_POINT('',#604);
#604 = CARTESIAN_POINT('',(6.,-1.469576158977E-15,2.919215944923));
#605 = SEAM_CURVE('',#606,(#610,#616),.PCURVE_S1.);
#606 = ( BOUNDED_CURVE() B_SPLINE_CURVE(2,(#607,#608,#609),
.UNSPECIFIED.,.F.,.F.) B_SPLINE_CURVE_WITH_KNOTS((3,3),(0.,
37.699111843078),.PIECEWISE_BEZIER_KNOTS.) CURVE() 
GEOMETRIC_REPRESENTATION_ITEM() RATIONAL_B_SPLINE_CURVE((1.,
0.677331905544,1.)) REPRESENTATION_ITEM('') );
#607 = CARTESIAN_POINT('',(6.865954383572,-1.681673811787E-15,
    3.716492571501));
#608 = CARTESIAN_POINT('',(6.,4.236194728335E-15,3.788128294494));
#609 = CARTESIAN_POINT('',(6.,-1.469576158977E-15,2.919215944923));
#610 = PCURVE('',#492,#611);
#611 = DEFINITIONAL_REPRESENTATION('',(#612),#615);
#612 = B_SPLINE_CURVE_WITH_KNOTS('',1,(#613,#614),.UNSPECIFIED.,.F.,.F.,
  (2,2),(0.,37.699111843078),.PIECEWISE_BEZIER_KNOTS.);
#613 = CARTESIAN_POINT('',(0.,2.824774849514E-15));
#614 = CARTESIAN_POINT('',(37.699111843078,2.824774849514E-15));
#615 = ( GEOMETRIC_REPRESENTATION_CONTEXT(2) 
PARAMETRIC_REPRESENTATION_CONTEXT() REPRESENTATION_CONTEXT('2D SPACE',''
  ) );
#616 = PCURVE('',#492,#617);
#617 = DEFINITIONAL_REPRESENTATION('',(#618),#621);
#618 = B_SPLINE_CURVE_WITH_KNOTS('',1,(#619,#620),.UNSPECIFIED.,.F.,.F.,
  (2,2),(0.,37.699111843078),.PIECEWISE_BEZIER_KNOTS.);
#619 = CARTESIAN_POINT('',(0.,37.699111843078));
#620 = CARTESIAN_POINT('',(37.699111843078,37.699111843078));
#621 = ( GEOMETRIC_REPRESENTATION_CONTEXT(2) 
PARAMETRIC_REPRESENTATION_CONTEXT() REPRESENTATION_CONTEXT('2D SPACE',''
  ) );
#622 = ORIENTED_EDGE('',*,*,#623,.T.);
#623 = EDGE_CURVE('',#603,#603,#624,.T.);
#624 = SURFACE_CURVE('',#625,(#641,#648),.PCURVE_S1.);
#625 = ( BOUNDED_CURVE() B_SPLINE_CURVE(14,(#626,#627,#628,#629,#630,
    #631,#632,#633,#634,#635,#636,#637,#638,#639,#640),.UNSPECIFIED.,.T.
,.F.) B_SPLINE_CURVE_WITH_KNOTS((15,15),(2.824774849514E-15,
37.699111843078),.PIECEWISE_BEZIER_KNOTS.) CURVE() 
GEOMETRIC_REPRESENTATION_ITEM() RATIONAL_B_SPLINE_CURVE((1.,1.,
    0.999999999999,1.000000000003,0.999999999994,1.00000000001,
    0.999999999987,1.000000000015,0.999999999986,1.000000000011,
    0.999999999993,1.000000000003,0.999999999999,1.,1.)) 
REPRESENTATION_ITEM('') );
#626 = CARTESIAN_POINT('',(6.,-1.469576158977E-15,2.919215944923));
#627 = CARTESIAN_POINT('',(5.999999999998,-2.653840547645,2.919215944923
    ));
#628 = CARTESIAN_POINT('',(4.736112287649,-5.364172999546,2.919215944923
    ));
#629 = CARTESIAN_POINT('',(2.11921046208,-7.424568493224,2.919215944924)
  );
#630 = CARTESIAN_POINT('',(-1.450055344368,-8.10192854787,2.919215944921
    ));
#631 = CARTESIAN_POINT('',(-5.147404187027,-6.761151539673,
    2.919215944928));
#632 = CARTESIAN_POINT('',(-7.627723414524,-4.10650317812,2.919215944914
    ));
#633 = CARTESIAN_POINT('',(-9.196797368011,6.249956455151E-11,
    2.919215944936));
#634 = CARTESIAN_POINT('',(-7.627723414529,4.106503178011,2.919215944911
    ));
#635 = CARTESIAN_POINT('',(-5.147404187022,6.761151539746,2.919215944931
    ));
#636 = CARTESIAN_POINT('',(-1.45005534437,8.101928547831,2.91921594492)
  );
#637 = CARTESIAN_POINT('',(2.119210462079,7.42456849324,2.919215944924)
  );
#638 = CARTESIAN_POINT('',(4.73611228765,5.36417299954,2.919215944923));
#639 = CARTESIAN_POINT('',(5.999999999997,2.653840547646,2.919215944923)
  );
#640 = CARTESIAN_POINT('',(6.,0.,2.919215944923));
#641 = PCURVE('',#492,#642);
#642 = DEFINITIONAL_REPRESENTATION('',(#643),#647);
#643 = LINE('',#644,#645);
#644 = CARTESIAN_POINT('',(37.699111843078,0.));
#645 = VECTOR('',#646,1.);
#646 = DIRECTION('',(0.,1.));
#647 = ( GEOMETRIC_REPRESENTATION_CONTEXT(2) 
PARAMETRIC_REPRESENTATION_CONTEXT() REPRESENTATION_CONTEXT('2D SPACE',''
  ) );
#648 = PCURVE('',#649,#654);
#649 = CYLINDRICAL_SURFACE('',#650,6.);
#650 = AXIS2_PLACEMENT_3D('',#651,#652,#653);
#651 = CARTESIAN_POINT('',(0.,0.,-3.));
#652 = DIRECTION('',(-0.,-0.,-1.));
#653 = DIRECTION('',(1.,0.,0.));
#654 = DEFINITIONAL_REPRESENTATION('',(#655),#676);
#655 = B_SPLINE_CURVE_WITH_KNOTS('',10,(#656,#657,#658,#659,#660,#661,
    #662,#663,#664,#665,#666,#667,#668,#669,#670,#671,#672,#673,#674,
    #675),.UNSPECIFIED.,.F.,.F.,(11,9,11),(2.824774849514E-15,
    18.849555921539,37.699111843078),.UNSPECIFIED.);
#656 = CARTESIAN_POINT('',(-6.28318530718,-5.919215944923));
#657 = CARTESIAN_POINT('',(-5.973570576621,-5.919215944925));
#658 = CARTESIAN_POINT('',(-5.659235727976,-5.91921594492));
#659 = CARTESIAN_POINT('',(-5.343230466278,-5.919215944929));
#660 = CARTESIAN_POINT('',(-5.027184923198,-5.919215944917));
#661 = CARTESIAN_POINT('',(-4.712694854769,-5.919215944929));
#662 = CARTESIAN_POINT('',(-4.398108426946,-5.91921594492));
#663 = CARTESIAN_POINT('',(-4.084129987288,-5.919215944925));
#664 = CARTESIAN_POINT('',(-3.769896077448,-5.919215944923));
#665 = CARTESIAN_POINT('',(-3.455750305646,-5.919215944923));
#666 = CARTESIAN_POINT('',(-2.827435001534,-5.919215944923));
#667 = CARTESIAN_POINT('',(-2.513289229734,-5.919215944923));
#668 = CARTESIAN_POINT('',(-2.199055319882,-5.919215944923));
#669 = CARTESIAN_POINT('',(-1.88507688026,-5.919215944923));
#670 = CARTESIAN_POINT('',(-1.570490452368,-5.919215944925));
#671 = CARTESIAN_POINT('',(-1.256000384026,-5.91921594492));
#672 = CARTESIAN_POINT('',(-0.939954840872,-5.919215944927));
#673 = CARTESIAN_POINT('',(-0.623949579215,-5.919215944921));
#674 = CARTESIAN_POINT('',(-0.309614730559,-5.919215944924));
#675 = CARTESIAN_POINT('',(-3.789415475008E-15,-5.919215944923));
#676 = ( GEOMETRIC_REPRESENTATION_CONTEXT(2) 
PARAMETRIC_REPRESENTATION_CONTEXT() REPRESENTATION_CONTEXT('2D SPACE',''
  ) );
#677 = ORIENTED_EDGE('',*,*,#602,.F.);
#678 = ORIENTED_EDGE('',*,*,#425,.F.);
#679 = ADVANCED_FACE('',(#680,#683),#587,.T.);
#680 = FACE_BOUND('',#681,.T.);
#681 = EDGE_LOOP('',(#682));
#682 = ORIENTED_EDGE('',*,*,#572,.T.);
#683 = FACE_BOUND('',#684,.T.);
#684 = EDGE_LOOP('',(#685));
#685 = ORIENTED_EDGE('',*,*,#686,.T.);
#686 = EDGE_CURVE('',#687,#687,#689,.T.);
#687 = VERTEX_POINT('',#688);
#688 = CARTESIAN_POINT('',(10.8,-2.645237086158E-15,4.));
#689 = SURFACE_CURVE('',#690,(#695,#706),.PCURVE_S1.);
#690 = CIRCLE('',#691,10.8);
#691 = AXIS2_PLACEMENT_3D('',#692,#693,#694);
#692 = CARTESIAN_POINT('',(0.,0.,4.));
#693 = DIRECTION('',(0.,-0.,-1.));
#694 = DIRECTION('',(1.,-2.449293598295E-16,0.));
#695 = PCURVE('',#587,#696);
#696 = DEFINITIONAL_REPRESENTATION('',(#697),#705);
#697 = ( BOUNDED_CURVE() B_SPLINE_CURVE(2,(#698,#699,#700,#701,#702,#703
,#704),.UNSPECIFIED.,.T.,.F.) B_SPLINE_CURVE_WITH_KNOTS((1,2,2,2,2,1),(
    -2.094395102393,0.,2.094395102393,4.188790204786,6.28318530718,
8.377580409573),.UNSPECIFIED.) CURVE() GEOMETRIC_REPRESENTATION_ITEM() 
RATIONAL_B_SPLINE_CURVE((1.,0.5,1.,0.5,1.,0.5,1.)) REPRESENTATION_ITEM(
  '') );
#698 = CARTESIAN_POINT('',(10.8,-4.705050313577E-15));
#699 = CARTESIAN_POINT('',(10.8,-18.70614872174));
#700 = CARTESIAN_POINT('',(-5.4,-9.353074360872));
#701 = CARTESIAN_POINT('',(-21.6,5.854238587395E-16));
#702 = CARTESIAN_POINT('',(-5.4,9.353074360872));
#703 = CARTESIAN_POINT('',(10.8,18.706148721744));
#704 = CARTESIAN_POINT('',(10.8,-4.705050313577E-15));
#705 = ( GEOMETRIC_REPRESENTATION_CONTEXT(2) 
PARAMETRIC_REPRESENTATION_CONTEXT() REPRESENTATION_CONTEXT('2D SPACE',''
  ) );
#706 = PCURVE('',#707,#712);
#707 = TOROIDAL_SURFACE('',#708,10.8,0.8);
#708 = AXIS2_PLACEMENT_3D('',#709,#710,#711);
#709 = CARTESIAN_POINT('',(0.,0.,4.8));
#710 = DIRECTION('',(-0.,-0.,-1.));
#711 = DIRECTION('',(1.,-2.449293598295E-16,0.));
#712 = DEFINITIONAL_REPRESENTATION('',(#713),#717);
#713 = LINE('',#714,#715);
#714 = CARTESIAN_POINT('',(0.,1.570796326795));
#715 = VECTOR('',#716,1.);
#716 = DIRECTION('',(1.,0.));
#717 = ( GEOMETRIC_REPRESENTATION_CONTEXT(2) 
PARAMETRIC_REPRESENTATION_CONTEXT() REPRESENTATION_CONTEXT('2D SPACE',''
  ) );
#718 = ADVANCED_FACE('',(#719),#649,.T.);
#719 = FACE_BOUND('',#720,.F.);
#720 = EDGE_LOOP('',(#721,#744,#771,#772));
#721 = ORIENTED_EDGE('',*,*,#722,.F.);
#722 = EDGE_CURVE('',#723,#603,#725,.T.);
#723 = VERTEX_POINT('',#724);
#724 = CARTESIAN_POINT('',(6.,0.,-0.3));
#725 = SEAM_CURVE('',#726,(#730,#737),.PCURVE_S1.);
#726 = LINE('',#727,#728);
#727 = CARTESIAN_POINT('',(6.,0.,-3.));
#728 = VECTOR('',#729,1.);
#729 = DIRECTION('',(0.,0.,1.));
#730 = PCURVE('',#649,#731);
#731 = DEFINITIONAL_REPRESENTATION('',(#732),#736);
#732 = LINE('',#733,#734);
#733 = CARTESIAN_POINT('',(-6.28318530718,0.));
#734 = VECTOR('',#735,1.);
#735 = DIRECTION('',(-0.,-1.));
#736 = ( GEOMETRIC_REPRESENTATION_CONTEXT(2) 
PARAMETRIC_REPRESENTATION_CONTEXT() REPRESENTATION_CONTEXT('2D SPACE',''
  ) );
#737 = PCURVE('',#649,#738);
#738 = DEFINITIONAL_REPRESENTATION('',(#739),#743);
#739 = LINE('',#740,#741);
#740 = CARTESIAN_POINT('',(-0.,0.));
#741 = VECTOR('',#742,1.);
#742 = DIRECTION('',(-0.,-1.));
#743 = ( GEOMETRIC_REPRESENTATION_CONTEXT(2) 
PARAMETRIC_REPRESENTATION_CONTEXT() REPRESENTATION_CONTEXT('2D SPACE',''
  ) );
#744 = ORIENTED_EDGE('',*,*,#745,.F.);
#745 = EDGE_CURVE('',#723,#723,#746,.T.);
#746 = SURFACE_CURVE('',#747,(#752,#759),.PCURVE_S1.);
#747 = CIRCLE('',#748,6.);
#748 = AXIS2_PLACEMENT_3D('',#749,#750,#751);
#749 = CARTESIAN_POINT('',(0.,0.,-0.3));
#750 = DIRECTION('',(0.,0.,1.));
#751 = DIRECTION('',(1.,0.,-0.));
#752 = PCURVE('',#649,#753);
#753 = DEFINITIONAL_REPRESENTATION('',(#754),#758);
#754 = LINE('',#755,#756);
#755 = CARTESIAN_POINT('',(-0.,-2.7));
#756 = VECTOR('',#757,1.);
#757 = DIRECTION('',(-1.,0.));
#758 = ( GEOMETRIC_REPRESENTATION_CONTEXT(2) 
PARAMETRIC_REPRESENTATION_CONTEXT() REPRESENTATION_CONTEXT('2D SPACE',''
  ) );
#759 = PCURVE('',#760,#765);
#760 = TOROIDAL_SURFACE('',#761,3.3,2.7);
#761 = AXIS2_PLACEMENT_3D('',#762,#763,#764);
#762 = CARTESIAN_POINT('',(0.,0.,-0.3));
#763 = DIRECTION('',(-0.,-0.,-1.));
#764 = DIRECTION('',(1.,0.,-0.));
#765 = DEFINITIONAL_REPRESENTATION('',(#766),#770);
#766 = LINE('',#767,#768);
#767 = CARTESIAN_POINT('',(-0.,0.));
#768 = VECTOR('',#769,1.);
#769 = DIRECTION('',(-1.,0.));
#770 = ( GEOMETRIC_REPRESENTATION_CONTEXT(2) 
PARAMETRIC_REPRESENTATION_CONTEXT() REPRESENTATION_CONTEXT('2D SPACE',''
  ) );
#771 = ORIENTED_EDGE('',*,*,#722,.T.);
#772 = ORIENTED_EDGE('',*,*,#623,.F.);
#773 = ADVANCED_FACE('',(#774),#707,.F.);
#774 = FACE_BOUND('',#775,.F.);
#775 = EDGE_LOOP('',(#776,#798,#799,#800));
#776 = ORIENTED_EDGE('',*,*,#777,.F.);
#777 = EDGE_CURVE('',#687,#778,#780,.T.);
#778 = VERTEX_POINT('',#779);
#779 = CARTESIAN_POINT('',(10.,-2.449293598295E-15,4.8));
#780 = SEAM_CURVE('',#781,(#786,#792),.PCURVE_S1.);
#781 = CIRCLE('',#782,0.8);
#782 = AXIS2_PLACEMENT_3D('',#783,#784,#785);
#783 = CARTESIAN_POINT('',(10.8,-2.645237086158E-15,4.8));
#784 = DIRECTION('',(2.449293598295E-16,1.,0.));
#785 = DIRECTION('',(1.,-2.449293598295E-16,0.));
#786 = PCURVE('',#707,#787);
#787 = DEFINITIONAL_REPRESENTATION('',(#788),#791);
#788 = B_SPLINE_CURVE_WITH_KNOTS('',1,(#789,#790),.UNSPECIFIED.,.F.,.F.,
  (2,2),(1.570796326795,3.14159265359),.PIECEWISE_BEZIER_KNOTS.);
#789 = CARTESIAN_POINT('',(0.,1.570796326795));
#790 = CARTESIAN_POINT('',(0.,3.14159265359));
#791 = ( GEOMETRIC_REPRESENTATION_CONTEXT(2) 
PARAMETRIC_REPRESENTATION_CONTEXT() REPRESENTATION_CONTEXT('2D SPACE',''
  ) );
#792 = PCURVE('',#707,#793);
#793 = DEFINITIONAL_REPRESENTATION('',(#794),#797);
#794 = B_SPLINE_CURVE_WITH_KNOTS('',1,(#795,#796),.UNSPECIFIED.,.F.,.F.,
  (2,2),(1.570796326795,3.14159265359),.PIECEWISE_BEZIER_KNOTS.);
#795 = CARTESIAN_POINT('',(6.28318530718,1.570796326795));
#796 = CARTESIAN_POINT('',(6.28318530718,3.14159265359));
#797 = ( GEOMETRIC_REPRESENTATION_CONTEXT(2) 
PARAMETRIC_REPRESENTATION_CONTEXT() REPRESENTATION_CONTEXT('2D SPACE',''
  ) );
#798 = ORIENTED_EDGE('',*,*,#686,.T.);
#799 = ORIENTED_EDGE('',*,*,#777,.T.);
#800 = ORIENTED_EDGE('',*,*,#801,.F.);
#801 = EDGE_CURVE('',#778,#778,#802,.T.);
#802 = SURFACE_CURVE('',#803,(#808,#815),.PCURVE_S1.);
#803 = CIRCLE('',#804,10.);
#804 = AXIS2_PLACEMENT_3D('',#805,#806,#807);
#805 = CARTESIAN_POINT('',(0.,0.,4.8));
#806 = DIRECTION('',(0.,-0.,-1.));
#807 = DIRECTION('',(1.,-2.449293598295E-16,0.));
#808 = PCURVE('',#707,#809);
#809 = DEFINITIONAL_REPRESENTATION('',(#810),#814);
#810 = LINE('',#811,#812);
#811 = CARTESIAN_POINT('',(0.,3.14159265359));
#812 = VECTOR('',#813,1.);
#813 = DIRECTION('',(1.,0.));
#814 = ( GEOMETRIC_REPRESENTATION_CONTEXT(2) 
PARAMETRIC_REPRESENTATION_CONTEXT() REPRESENTATION_CONTEXT('2D SPACE',''
  ) );
#815 = PCURVE('',#816,#821);
#816 = CYLINDRICAL_SURFACE('',#817,10.);
#817 = AXIS2_PLACEMENT_3D('',#818,#819,#820);
#818 = CARTESIAN_POINT('',(0.,0.,0.));
#819 = DIRECTION('',(-0.,-0.,-1.));
#820 = DIRECTION('',(1.,0.,0.));
#821 = DEFINITIONAL_REPRESENTATION('',(#822),#826);
#822 = LINE('',#823,#824);
#823 = CARTESIAN_POINT('',(-6.28318530718,-4.8));
#824 = VECTOR('',#825,1.);
#825 = DIRECTION('',(1.,-0.));
#826 = ( GEOMETRIC_REPRESENTATION_CONTEXT(2) 
PARAMETRIC_REPRESENTATION_CONTEXT() REPRESENTATION_CONTEXT('2D SPACE',''
  ) );
#827 = ADVANCED_FACE('',(#828),#760,.T.);
#828 = FACE_BOUND('',#829,.F.);
#829 = EDGE_LOOP('',(#830,#852,#853,#854));
#830 = ORIENTED_EDGE('',*,*,#831,.F.);
#831 = EDGE_CURVE('',#723,#832,#834,.T.);
#832 = VERTEX_POINT('',#833);
#833 = CARTESIAN_POINT('',(3.3,0.,-3.));
#834 = SEAM_CURVE('',#835,(#840,#846),.PCURVE_S1.);
#835 = CIRCLE('',#836,2.7);
#836 = AXIS2_PLACEMENT_3D('',#837,#838,#839);
#837 = CARTESIAN_POINT('',(3.3,0.,-0.3));
#838 = DIRECTION('',(0.,1.,0.));
#839 = DIRECTION('',(1.,0.,-0.));
#840 = PCURVE('',#760,#841);
#841 = DEFINITIONAL_REPRESENTATION('',(#842),#845);
#842 = B_SPLINE_CURVE_WITH_KNOTS('',1,(#843,#844),.UNSPECIFIED.,.F.,.F.,
  (2,2),(0.,1.570796326795),.PIECEWISE_BEZIER_KNOTS.);
#843 = CARTESIAN_POINT('',(0.,0.));
#844 = CARTESIAN_POINT('',(0.,1.570796326795));
#845 = ( GEOMETRIC_REPRESENTATION_CONTEXT(2) 
PARAMETRIC_REPRESENTATION_CONTEXT() REPRESENTATION_CONTEXT('2D SPACE',''
  ) );
#846 = PCURVE('',#760,#847);
#847 = DEFINITIONAL_REPRESENTATION('',(#848),#851);
#848 = B_SPLINE_CURVE_WITH_KNOTS('',1,(#849,#850),.UNSPECIFIED.,.F.,.F.,
  (2,2),(0.,1.570796326795),.PIECEWISE_BEZIER_KNOTS.);
#849 = CARTESIAN_POINT('',(-6.28318530718,0.));
#850 = CARTESIAN_POINT('',(-6.28318530718,1.570796326795));
#851 = ( GEOMETRIC_REPRESENTATION_CONTEXT(2) 
PARAMETRIC_REPRESENTATION_CONTEXT() REPRESENTATION_CONTEXT('2D SPACE',''
  ) );
#852 = ORIENTED_EDGE('',*,*,#745,.F.);
#853 = ORIENTED_EDGE('',*,*,#831,.T.);
#854 = ORIENTED_EDGE('',*,*,#855,.T.);
#855 = EDGE_CURVE('',#832,#832,#856,.T.);
#856 = SURFACE_CURVE('',#857,(#862,#869),.PCURVE_S1.);
#857 = CIRCLE('',#858,3.3);
#858 = AXIS2_PLACEMENT_3D('',#859,#860,#861);
#859 = CARTESIAN_POINT('',(0.,0.,-3.));
#860 = DIRECTION('',(0.,0.,1.));
#861 = DIRECTION('',(1.,0.,-0.));
#862 = PCURVE('',#760,#863);
#863 = DEFINITIONAL_REPRESENTATION('',(#864),#868);
#864 = LINE('',#865,#866);
#865 = CARTESIAN_POINT('',(-0.,1.570796326795));
#866 = VECTOR('',#867,1.);
#867 = DIRECTION('',(-1.,0.));
#868 = ( GEOMETRIC_REPRESENTATION_CONTEXT(2) 
PARAMETRIC_REPRESENTATION_CONTEXT() REPRESENTATION_CONTEXT('2D SPACE',''
  ) );
#869 = PCURVE('',#870,#875);
#870 = PLANE('',#871);
#871 = AXIS2_PLACEMENT_3D('',#872,#873,#874);
#872 = CARTESIAN_POINT('',(-3.418600331349E-16,2.108840176837E-16,-3.));
#873 = DIRECTION('',(0.,0.,1.));
#874 = DIRECTION('',(1.,0.,-0.));
#875 = DEFINITIONAL_REPRESENTATION('',(#876),#880);
#876 = CIRCLE('',#877,3.3);
#877 = AXIS2_PLACEMENT_2D('',#878,#879);
#878 = CARTESIAN_POINT('',(3.418600331349E-16,-2.108840176837E-16));
#879 = DIRECTION('',(1.,0.));
#880 = ( GEOMETRIC_REPRESENTATION_CONTEXT(2) 
PARAMETRIC_REPRESENTATION_CONTEXT() REPRESENTATION_CONTEXT('2D SPACE',''
  ) );
#881 = ADVANCED_FACE('',(#882),#816,.T.);
#882 = FACE_BOUND('',#883,.F.);
#883 = EDGE_LOOP('',(#884,#907,#908,#909));
#884 = ORIENTED_EDGE('',*,*,#885,.F.);
#885 = EDGE_CURVE('',#778,#886,#888,.T.);
#886 = VERTEX_POINT('',#887);
#887 = CARTESIAN_POINT('',(10.,0.,55.));
#888 = SEAM_CURVE('',#889,(#893,#900),.PCURVE_S1.);
#889 = LINE('',#890,#891);
#890 = CARTESIAN_POINT('',(10.,0.,0.));
#891 = VECTOR('',#892,1.);
#892 = DIRECTION('',(0.,0.,1.));
#893 = PCURVE('',#816,#894);
#894 = DEFINITIONAL_REPRESENTATION('',(#895),#899);
#895 = LINE('',#896,#897);
#896 = CARTESIAN_POINT('',(-6.28318530718,0.));
#897 = VECTOR('',#898,1.);
#898 = DIRECTION('',(-0.,-1.));
#899 = ( GEOMETRIC_REPRESENTATION_CONTEXT(2) 
PARAMETRIC_REPRESENTATION_CONTEXT() REPRESENTATION_CONTEXT('2D SPACE',''
  ) );
#900 = PCURVE('',#816,#901);
#901 = DEFINITIONAL_REPRESENTATION('',(#902),#906);
#902 = LINE('',#903,#904);
#903 = CARTESIAN_POINT('',(-0.,0.));
#904 = VECTOR('',#905,1.);
#905 = DIRECTION('',(-0.,-1.));
#906 = ( GEOMETRIC_REPRESENTATION_CONTEXT(2) 
PARAMETRIC_REPRESENTATION_CONTEXT() REPRESENTATION_CONTEXT('2D SPACE',''
  ) );
#907 = ORIENTED_EDGE('',*,*,#801,.T.);
#908 = ORIENTED_EDGE('',*,*,#885,.T.);
#909 = ORIENTED_EDGE('',*,*,#910,.T.);
#910 = EDGE_CURVE('',#886,#886,#911,.T.);
#911 = SURFACE_CURVE('',#912,(#917,#924),.PCURVE_S1.);
#912 = CIRCLE('',#913,10.);
#913 = AXIS2_PLACEMENT_3D('',#914,#915,#916);
#914 = CARTESIAN_POINT('',(0.,0.,55.));
#915 = DIRECTION('',(0.,0.,1.));
#916 = DIRECTION('',(1.,0.,0.));
#917 = PCURVE('',#816,#918);
#918 = DEFINITIONAL_REPRESENTATION('',(#919),#923);
#919 = LINE('',#920,#921);
#920 = CARTESIAN_POINT('',(-0.,-55.));
#921 = VECTOR('',#922,1.);
#922 = DIRECTION('',(-1.,0.));
#923 = ( GEOMETRIC_REPRESENTATION_CONTEXT(2) 
PARAMETRIC_REPRESENTATION_CONTEXT() REPRESENTATION_CONTEXT('2D SPACE',''
  ) );
#924 = PCURVE('',#925,#930);
#925 = PLANE('',#926);
#926 = AXIS2_PLACEMENT_3D('',#927,#928,#929);
#927 = CARTESIAN_POINT('',(-5.469760530158E-16,6.857365063158E-16,55.));
#928 = DIRECTION('',(0.,0.,1.));
#929 = DIRECTION('',(1.,0.,-0.));
#930 = DEFINITIONAL_REPRESENTATION('',(#931),#935);
#931 = CIRCLE('',#932,10.);
#932 = AXIS2_PLACEMENT_2D('',#933,#934);
#933 = CARTESIAN_POINT('',(5.469760530158E-16,-6.857365063158E-16));
#934 = DIRECTION('',(1.,0.));
#935 = ( GEOMETRIC_REPRESENTATION_CONTEXT(2) 
PARAMETRIC_REPRESENTATION_CONTEXT() REPRESENTATION_CONTEXT('2D SPACE',''
  ) );
#936 = ADVANCED_FACE('',(#937,#940),#870,.F.);
#937 = FACE_BOUND('',#938,.F.);
#938 = EDGE_LOOP('',(#939));
#939 = ORIENTED_EDGE('',*,*,#855,.T.);
#940 = FACE_BOUND('',#941,.F.);
#941 = EDGE_LOOP('',(#942));
#942 = ORIENTED_EDGE('',*,*,#943,.T.);
#943 = EDGE_CURVE('',#944,#944,#946,.T.);
#944 = VERTEX_POINT('',#945);
#945 = CARTESIAN_POINT('',(3.,0.,-3.));
#946 = SURFACE_CURVE('',#947,(#952,#963),.PCURVE_S1.);
#947 = CIRCLE('',#948,3.);
#948 = AXIS2_PLACEMENT_3D('',#949,#950,#951);
#949 = CARTESIAN_POINT('',(0.,0.,-3.));
#950 = DIRECTION('',(0.,0.,-1.));
#951 = DIRECTION('',(1.,0.,0.));
#952 = PCURVE('',#870,#953);
#953 = DEFINITIONAL_REPRESENTATION('',(#954),#962);
#954 = ( BOUNDED_CURVE() B_SPLINE_CURVE(2,(#955,#956,#957,#958,#959,#960
,#961),.UNSPECIFIED.,.T.,.F.) B_SPLINE_CURVE_WITH_KNOTS((1,2,2,2,2,1),(
    -2.094395102393,0.,2.094395102393,4.188790204786,6.28318530718,
8.377580409573),.UNSPECIFIED.) CURVE() GEOMETRIC_REPRESENTATION_ITEM() 
RATIONAL_B_SPLINE_CURVE((1.,0.5,1.,0.5,1.,0.5,1.)) REPRESENTATION_ITEM(
  '') );
#955 = CARTESIAN_POINT('',(3.,-2.108840176837E-16));
#956 = CARTESIAN_POINT('',(3.,-5.196152422707));
#957 = CARTESIAN_POINT('',(-1.5,-2.598076211353));
#958 = CARTESIAN_POINT('',(-6.,-9.456720971721E-16));
#959 = CARTESIAN_POINT('',(-1.5,2.598076211353));
#960 = CARTESIAN_POINT('',(3.,5.196152422707));
#961 = CARTESIAN_POINT('',(3.,-2.108840176837E-16));
#962 = ( GEOMETRIC_REPRESENTATION_CONTEXT(2) 
PARAMETRIC_REPRESENTATION_CONTEXT() REPRESENTATION_CONTEXT('2D SPACE',''
  ) );
#963 = PCURVE('',#964,#969);
#964 = CYLINDRICAL_SURFACE('',#965,3.);
#965 = AXIS2_PLACEMENT_3D('',#966,#967,#968);
#966 = CARTESIAN_POINT('',(0.,0.,-4.));
#967 = DIRECTION('',(-0.,-0.,-1.));
#968 = DIRECTION('',(1.,0.,0.));
#969 = DEFINITIONAL_REPRESENTATION('',(#970),#974);
#970 = LINE('',#971,#972);
#971 = CARTESIAN_POINT('',(-6.28318530718,-1.));
#972 = VECTOR('',#973,1.);
#973 = DIRECTION('',(1.,-0.));
#974 = ( GEOMETRIC_REPRESENTATION_CONTEXT(2) 
PARAMETRIC_REPRESENTATION_CONTEXT() REPRESENTATION_CONTEXT('2D SPACE',''
  ) );
#975 = ADVANCED_FACE('',(#976,#979),#925,.T.);
#976 = FACE_BOUND('',#977,.T.);
#977 = EDGE_LOOP('',(#978));
#978 = ORIENTED_EDGE('',*,*,#910,.T.);
#979 = FACE_BOUND('',#980,.T.);
#980 = EDGE_LOOP('',(#981));
#981 = ORIENTED_EDGE('',*,*,#982,.T.);
#982 = EDGE_CURVE('',#983,#983,#985,.T.);
#983 = VERTEX_POINT('',#984);
#984 = CARTESIAN_POINT('',(6.,0.,55.));
#985 = SURFACE_CURVE('',#986,(#991,#1002),.PCURVE_S1.);
#986 = CIRCLE('',#987,6.);
#987 = AXIS2_PLACEMENT_3D('',#988,#989,#990);
#988 = CARTESIAN_POINT('',(0.,0.,55.));
#989 = DIRECTION('',(0.,0.,-1.));
#990 = DIRECTION('',(1.,0.,0.));
#991 = PCURVE('',#925,#992);
#992 = DEFINITIONAL_REPRESENTATION('',(#993),#1001);
#993 = ( BOUNDED_CURVE() B_SPLINE_CURVE(2,(#994,#995,#996,#997,#998,#999
,#1000),.UNSPECIFIED.,.T.,.F.) B_SPLINE_CURVE_WITH_KNOTS((1,2,2,2,2,1),(
    -2.094395102393,0.,2.094395102393,4.188790204786,6.28318530718,
8.377580409573),.UNSPECIFIED.) CURVE() GEOMETRIC_REPRESENTATION_ITEM() 
RATIONAL_B_SPLINE_CURVE((1.,0.5,1.,0.5,1.,0.5,1.)) REPRESENTATION_ITEM(
  '') );
#994 = CARTESIAN_POINT('',(6.,-6.857365063158E-16));
#995 = CARTESIAN_POINT('',(6.,-10.39230484541));
#996 = CARTESIAN_POINT('',(-3.,-5.196152422707));
#997 = CARTESIAN_POINT('',(-12.,-2.155312665293E-15));
#998 = CARTESIAN_POINT('',(-3.,5.196152422707));
#999 = CARTESIAN_POINT('',(6.,10.392304845413));
#1000 = CARTESIAN_POINT('',(6.,-6.857365063158E-16));
#1001 = ( GEOMETRIC_REPRESENTATION_CONTEXT(2) 
PARAMETRIC_REPRESENTATION_CONTEXT() REPRESENTATION_CONTEXT('2D SPACE',''
  ) );
#1002 = PCURVE('',#1003,#1008);
#1003 = CYLINDRICAL_SURFACE('',#1004,6.);
#1004 = AXIS2_PLACEMENT_3D('',#1005,#1006,#1007);
#1005 = CARTESIAN_POINT('',(0.,0.,17.));
#1006 = DIRECTION('',(-0.,-0.,-1.));
#1007 = DIRECTION('',(1.,0.,0.));
#1008 = DEFINITIONAL_REPRESENTATION('',(#1009),#1013);
#1009 = LINE('',#1010,#1011);
#1010 = CARTESIAN_POINT('',(-6.28318530718,-38.));
#1011 = VECTOR('',#1012,1.);
#1012 = DIRECTION('',(1.,-0.));
#1013 = ( GEOMETRIC_REPRESENTATION_CONTEXT(2) 
PARAMETRIC_REPRESENTATION_CONTEXT() REPRESENTATION_CONTEXT('2D SPACE',''
  ) );
#1014 = ADVANCED_FACE('',(#1015),#964,.F.);
#1015 = FACE_BOUND('',#1016,.T.);
#1016 = EDGE_LOOP('',(#1017,#1018,#1041,#1068));
#1017 = ORIENTED_EDGE('',*,*,#943,.T.);
#1018 = ORIENTED_EDGE('',*,*,#1019,.T.);
#1019 = EDGE_CURVE('',#944,#1020,#1022,.T.);
#1020 = VERTEX_POINT('',#1021);
#1021 = CARTESIAN_POINT('',(3.,0.,17.));
#1022 = SEAM_CURVE('',#1023,(#1027,#1034),.PCURVE_S1.);
#1023 = LINE('',#1024,#1025);
#1024 = CARTESIAN_POINT('',(3.,0.,-3.));
#1025 = VECTOR('',#1026,1.);
#1026 = DIRECTION('',(0.,0.,1.));
#1027 = PCURVE('',#964,#1028);
#1028 = DEFINITIONAL_REPRESENTATION('',(#1029),#1033);
#1029 = LINE('',#1030,#1031);
#1030 = CARTESIAN_POINT('',(-0.,-1.));
#1031 = VECTOR('',#1032,1.);
#1032 = DIRECTION('',(-0.,-1.));
#1033 = ( GEOMETRIC_REPRESENTATION_CONTEXT(2) 
PARAMETRIC_REPRESENTATION_CONTEXT() REPRESENTATION_CONTEXT('2D SPACE',''
  ) );
#1034 = PCURVE('',#964,#1035);
#1035 = DEFINITIONAL_REPRESENTATION('',(#1036),#1040);
#1036 = LINE('',#1037,#1038);
#1037 = CARTESIAN_POINT('',(-6.28318530718,-1.));
#1038 = VECTOR('',#1039,1.);
#1039 = DIRECTION('',(-0.,-1.));
#1040 = ( GEOMETRIC_REPRESENTATION_CONTEXT(2) 
PARAMETRIC_REPRESENTATION_CONTEXT() REPRESENTATION_CONTEXT('2D SPACE',''
  ) );
#1041 = ORIENTED_EDGE('',*,*,#1042,.T.);
#1042 = EDGE_CURVE('',#1020,#1020,#1043,.T.);
#1043 = SURFACE_CURVE('',#1044,(#1049,#1056),.PCURVE_S1.);
#1044 = CIRCLE('',#1045,3.);
#1045 = AXIS2_PLACEMENT_3D('',#1046,#1047,#1048);
#1046 = CARTESIAN_POINT('',(0.,0.,17.));
#1047 = DIRECTION('',(0.,0.,1.));
#1048 = DIRECTION('',(1.,0.,0.));
#1049 = PCURVE('',#964,#1050);
#1050 = DEFINITIONAL_REPRESENTATION('',(#1051),#1055);
#1051 = LINE('',#1052,#1053);
#1052 = CARTESIAN_POINT('',(-0.,-21.));
#1053 = VECTOR('',#1054,1.);
#1054 = DIRECTION('',(-1.,0.));
#1055 = ( GEOMETRIC_REPRESENTATION_CONTEXT(2) 
PARAMETRIC_REPRESENTATION_CONTEXT() REPRESENTATION_CONTEXT('2D SPACE',''
  ) );
#1056 = PCURVE('',#1057,#1062);
#1057 = PLANE('',#1058);
#1058 = AXIS2_PLACEMENT_3D('',#1059,#1060,#1061);
#1059 = CARTESIAN_POINT('',(-3.418600331349E-16,2.108840176837E-16,17.)
  );
#1060 = DIRECTION('',(0.,0.,1.));
#1061 = DIRECTION('',(1.,0.,-0.));
#1062 = DEFINITIONAL_REPRESENTATION('',(#1063),#1067);
#1063 = CIRCLE('',#1064,3.);
#1064 = AXIS2_PLACEMENT_2D('',#1065,#1066);
#1065 = CARTESIAN_POINT('',(3.418600331349E-16,-2.108840176837E-16));
#1066 = DIRECTION('',(1.,0.));
#1067 = ( GEOMETRIC_REPRESENTATION_CONTEXT(2) 
PARAMETRIC_REPRESENTATION_CONTEXT() REPRESENTATION_CONTEXT('2D SPACE',''
  ) );
#1068 = ORIENTED_EDGE('',*,*,#1019,.F.);
#1069 = ADVANCED_FACE('',(#1070),#1003,.F.);
#1070 = FACE_BOUND('',#1071,.T.);
#1071 = EDGE_LOOP('',(#1072,#1096,#1117,#1118));
#1072 = ORIENTED_EDGE('',*,*,#1073,.F.);
#1073 = EDGE_CURVE('',#1074,#1074,#1076,.T.);
#1074 = VERTEX_POINT('',#1075);
#1075 = CARTESIAN_POINT('',(6.,0.,17.));
#1076 = SURFACE_CURVE('',#1077,(#1082,#1089),.PCURVE_S1.);
#1077 = CIRCLE('',#1078,6.);
#1078 = AXIS2_PLACEMENT_3D('',#1079,#1080,#1081);
#1079 = CARTESIAN_POINT('',(0.,0.,17.));
#1080 = DIRECTION('',(0.,0.,1.));
#1081 = DIRECTION('',(1.,0.,0.));
#1082 = PCURVE('',#1003,#1083);
#1083 = DEFINITIONAL_REPRESENTATION('',(#1084),#1088);
#1084 = LINE('',#1085,#1086);
#1085 = CARTESIAN_POINT('',(-0.,0.));
#1086 = VECTOR('',#1087,1.);
#1087 = DIRECTION('',(-1.,0.));
#1088 = ( GEOMETRIC_REPRESENTATION_CONTEXT(2) 
PARAMETRIC_REPRESENTATION_CONTEXT() REPRESENTATION_CONTEXT('2D SPACE',''
  ) );
#1089 = PCURVE('',#1057,#1090);
#1090 = DEFINITIONAL_REPRESENTATION('',(#1091),#1095);
#1091 = CIRCLE('',#1092,6.);
#1092 = AXIS2_PLACEMENT_2D('',#1093,#1094);
#1093 = CARTESIAN_POINT('',(3.418600331349E-16,-2.108840176837E-16));
#1094 = DIRECTION('',(1.,0.));
#1095 = ( GEOMETRIC_REPRESENTATION_CONTEXT(2) 
PARAMETRIC_REPRESENTATION_CONTEXT() REPRESENTATION_CONTEXT('2D SPACE',''
  ) );
#1096 = ORIENTED_EDGE('',*,*,#1097,.T.);
#1097 = EDGE_CURVE('',#1074,#983,#1098,.T.);
#1098 = SEAM_CURVE('',#1099,(#1103,#1110),.PCURVE_S1.);
#1099 = LINE('',#1100,#1101);
#1100 = CARTESIAN_POINT('',(6.,0.,17.));
#1101 = VECTOR('',#1102,1.);
#1102 = DIRECTION('',(0.,0.,1.));
#1103 = PCURVE('',#1003,#1104);
#1104 = DEFINITIONAL_REPRESENTATION('',(#1105),#1109);
#1105 = LINE('',#1106,#1107);
#1106 = CARTESIAN_POINT('',(-6.28318530718,0.));
#1107 = VECTOR('',#1108,1.);
#1108 = DIRECTION('',(-0.,-1.));
#1109 = ( GEOMETRIC_REPRESENTATION_CONTEXT(2) 
PARAMETRIC_REPRESENTATION_CONTEXT() REPRESENTATION_CONTEXT('2D SPACE',''
  ) );
#1110 = PCURVE('',#1003,#1111);
#1111 = DEFINITIONAL_REPRESENTATION('',(#1112),#1116);
#1112 = LINE('',#1113,#1114);
#1113 = CARTESIAN_POINT('',(-0.,0.));
#1114 = VECTOR('',#1115,1.);
#1115 = DIRECTION('',(-0.,-1.));
#1116 = ( GEOMETRIC_REPRESENTATION_CONTEXT(2) 
PARAMETRIC_REPRESENTATION_CONTEXT() REPRESENTATION_CONTEXT('2D SPACE',''
  ) );
#1117 = ORIENTED_EDGE('',*,*,#982,.F.);
#1118 = ORIENTED_EDGE('',*,*,#1097,.F.);
#1119 = ADVANCED_FACE('',(#1120,#1123),#1057,.T.);
#1120 = FACE_BOUND('',#1121,.T.);
#1121 = EDGE_LOOP('',(#1122));
#1122 = ORIENTED_EDGE('',*,*,#1073,.T.);
#1123 = FACE_BOUND('',#1124,.T.);
#1124 = EDGE_LOOP('',(#1125));
#1125 = ORIENTED_EDGE('',*,*,#1042,.F.);
#1126 = ( GEOMETRIC_REPRESENTATION_CONTEXT(3) 
GLOBAL_UNCERTAINTY_ASSIGNED_CONTEXT((#1130)) 
GLOBAL_UNIT_ASSIGNED_CONTEXT((#1127,#1128,#1129)) REPRESENTATION_CONTEXT
('Context #1','3D Context with UNIT and UNCERTAINTY') );
#1127 = ( LENGTH_UNIT() NAMED_UNIT(*) SI_UNIT(.MILLI.,.METRE.) );
#1128 = ( NAMED_UNIT(*) PLANE_ANGLE_UNIT() SI_UNIT($,.RADIAN.) );
#1129 = ( NAMED_UNIT(*) SI_UNIT($,.STERADIAN.) SOLID_ANGLE_UNIT() );
#1130 = UNCERTAINTY_MEASURE_WITH_UNIT(LENGTH_MEASURE(2.E-06),#1127,
  'distance_accuracy_value','confusion accuracy');
#1131 = PRODUCT_RELATED_PRODUCT_CATEGORY('part',$,(#7));
ENDSEC;
END-ISO-10303-21;
